SplineFontDB: 2.0
FontName: FreeMono
FullName: Free Monospaced
FamilyName: FreeMono
Weight: Medium
Copyright: Copyleft 2002, 2003, 2005 Free Software Foundation.
Version: $Revision: 1.42 $
ItalicAngle: 0
UnderlinePosition: -100
UnderlineWidth: 50
Ascent: 800
Descent: 200
LayerCount: 2
Layer: 0 0 "Back" 
Layer: 1 0 "Fore" 
NeedsXUIDChange: 1
FSType: 0
OS2Version: 0
OS2_WeightWidthSlopeOnly: 0
OS2_UseTypoMetrics: 0
CreationTime: 1203284335
ModificationTime: 1203623272
PfmFamily: 49
TTFWeight: 400
TTFWidth: 5
LineGap: 90
VLineGap: 0
Panose: 2 7 4 9 2 2 5 2 4 4
OS2TypoAscent: 0
OS2TypoAOffset: 1
OS2TypoDescent: 0
OS2TypoDOffset: 1
OS2TypoLinegap: 0
OS2WinAscent: -273
OS2WinAOffset: 1
OS2WinDescent: -119
OS2WinDOffset: 1
HheadAscent: -273
HheadAOffset: 1
HheadDescent: 119
HheadDOffset: 1
OS2SubXSize: 2240
OS2SubYSize: 22688
OS2SubXOff: 13416
OS2SubYOff: -1896
OS2SupXSize: 1648
OS2SupYSize: -30896
OS2SupXOff: -21048
OS2SupYOff: -2104
OS2StrikeYSize: 22688
OS2StrikeYPos: -29328
OS2Vendor: 'GNU '
Lookup: 4 8 0 "'dlig' Discretionary Ligatures in Hebrew lookup 0"  {"'dlig' Discretionary Ligatures in Hebrew lookup 0 subtable"  } ['dlig' ('hebr' <'dflt' > ) ]
Lookup: 262 0 0 "'mkmk' Mark to Mark in Latin lookup 0"  {"'mkmk' Mark to Mark in Latin lookup 0 subtable"  } ['mkmk' ('latn' <'dflt' > ) ]
Lookup: 262 0 0 "'mkmk' Mark to Mark in Latin lookup 1"  {"'mkmk' Mark to Mark in Latin lookup 1 subtable"  } ['mkmk' ('latn' <'dflt' > ) ]
Lookup: 260 0 0 "'mark' Mark Positioning in Latin lookup 2"  {"'mark' Mark Positioning in Latin lookup 2 subtable"  } ['mark' ('latn' <'dflt' > ) ]
Lookup: 260 0 0 "'mark' Mark Positioning in Latin lookup 3"  {"'mark' Mark Positioning in Latin lookup 3 subtable"  } ['mark' ('latn' <'dflt' > ) ]
DEI: 0
LangName: 1066 "" "" "th+AbABoQMA-ng" "" "" "" "" "" "" "" "" "" "" "" "http://www.gnu.org/copyleft/gpl.html" 
LangName: 1055 "" "" "Normal" "" "" "" "" "" "" "" "" "" "" "" "http://www.gnu.org/copyleft/gpl.html" 

StartChar: exclam
Encoding: 33 33 1
Width: 600
Flags: W
HStem: -15 100<248.859 350.824> 598 20G<288.5 311>
VStem: 240 120<-5.18018 75.1802> 260 79<437 613.819> 279 41<209.007 363.778>
LayerCount: 2
Fore
SplineSet
338 563 m 0xd0
 320 237 l 1
 319 217 313 209 299 209 c 0
 286 209 280 218 279 237 c 2xc8
 261 563 l 1
 260 570 260 575 260 579 c 0
 260 601 277 618 300 618 c 0
 322 618 339 601 339 579 c 0
 339 577 338 571 338 563 c 0xd0
293 85 m 2
 306 85 l 2
 336 85 360 63 360 35 c 0
 360 7 336 -15 306 -15 c 2
 293 -15 l 2
 263 -15 240 7 240 35 c 0xe0
 240 63 263 85 293 85 c 2
EndSplineSet
EndChar

StartChar: quotedbl
Encoding: 34 34 2
Width: 600
Flags: W
HStem: 315 289<182.861 237.139 362.861 417.139>
VStem: 180 60<315.99 403.088> 360 60<315.99 403.088>
LayerCount: 2
Fore
SplineSet
146 604 m 1
 274 604 l 1
 240 351 l 1
 237 326 228 315 210 315 c 0
 192 315 183 326 180 351 c 0
 146 604 l 1
326 604 m 1
 454 604 l 1
 420 351 l 1
 417 326 408 315 390 315 c 0
 372 315 363 326 360 351 c 0
 326 604 l 1
EndSplineSet
EndChar

StartChar: numbersign
Encoding: 35 35 3
Width: 600
Flags: W
HStem: 189 41<92.0066 206 249 337 381 487.993> 356 41<112.007 217 261 349 392 507.993>
VStem: 190 41<-61.9934 67.625> 236 40<619 646.993> 337 41<90.5625 189> 368 40<619 646.993>
LayerCount: 2
Fore
SplineSet
321 -42 m 2xf8
 321 -42 337 188 337 189 c 1xf8
 246 189 l 1
 231 -36 l 1
 229 -54 223 -62 210 -62 c 0
 199 -62 190 -53 190 -41 c 2
 190 -33 l 1
 206 189 l 1
 119 189 l 2
 101 189 92 196 92 210 c 0
 92 223 101 230 119 230 c 2
 208 230 l 1
 217 356 l 1
 139 356 l 2
 121 356 112 363 112 377 c 0
 112 390 121 397 139 397 c 2
 220 397 l 1
 236 622 l 1
 237 639 244 647 257 647 c 0
 270 647 276 637 276 622 c 0
 276 619 l 0
 261 397 l 1
 352 397 l 1
 368 622 l 1
 369 639 375 647 388 647 c 0
 401 647 408 637 408 622 c 0
 408 619 l 0xf4
 392 397 l 1
 481 397 l 2
 499 397 508 390 508 377 c 0
 508 363 499 356 481 356 c 2
 390 356 l 1
 381 230 l 1
 461 230 l 2
 479 230 488 223 488 210 c 0
 488 196 479 189 461 189 c 2
 378 189 l 1
 362 -36 l 1
 361 -54 354 -62 341 -62 c 0
 331 -62 321 -52 321 -42 c 2xf8
349 356 m 1
 258 356 l 1
 249 230 l 1
 340 230 l 1
 349 356 l 1
EndSplineSet
EndChar

StartChar: dollar
Encoding: 36 36 4
Width: 600
Flags: W
HStem: 54 39<205.32 280 321 389.969> 538 38<227.226 280 321 386.589>
VStem: 113 41<65.0066 108 135.391 197.993> 136 41<383.18 491.91> 280 41<-91.9934 54 576 654.993> 425 41<471 505.296 534 562.993> 446 41<143.331 255.936>
LayerCount: 2
Fore
SplineSet
446 201 m 4xea
 446 355 136 248 136 435 c 4
 136 507 196 566 280 576 c 5
 280 628 l 6
 280 646 287 655 301 655 c 4
 314 655 321 646 321 628 c 6
 321 576 l 5
 366 572 389 562 425 534 c 5xdc
 426 553 433 563 446 563 c 4xca
 460 563 466 554 466 536 c 6
 466 476 l 6xcc
 466 458 459 449 446 449 c 4xca
 433 449 427 455 425 471 c 4
 420 507 363 538 302 538 c 4
 233 538 177 491 177 434 c 4xdc
 177 290 487 399 487 201 c 4
 487 122 423 65 321 54 c 5
 321 -65 l 6
 321 -83 314 -92 301 -92 c 4
 287 -92 280 -83 280 -65 c 6
 280 54 l 5
 234 56 180 79 154 108 c 5
 154 92 l 6
 154 74 147 65 134 65 c 4
 120 65 113 74 113 92 c 6
 113 171 l 6
 113 189 120 198 134 198 c 4
 147 198 152 191 154 173 c 4
 158 130 225 93 299 93 c 4
 384 93 446 138 446 201 c 4xea
EndSplineSet
EndChar

StartChar: percent
Encoding: 37 37 5
Width: 600
Flags: W
HStem: -12 38<306.162 416.873> 198 38<305.907 417.261> 363 38<182.162 292.67> 573 38<181.907 293.261>
VStem: 115 38<430.841 543.933> 239 38<55.8414 169.131> 322 38<430.586 544.103> 446 38<54.6445 168.929>
LayerCount: 2
Fore
SplineSet
361 236 m 0
 430 236 484 181 484 110 c 0
 484 44 428 -12 362 -12 c 0
 294 -12 239 44 239 112 c 0
 239 180 294 236 361 236 c 0
361 198 m 0
 315 198 277 160 277 112 c 0
 277 65 315 26 362 26 c 0
 408 26 446 65 446 111 c 0
 446 160 409 198 361 198 c 0
237 611 m 0
 306 611 360 556 360 486 c 0
 360 419 304 363 238 363 c 0
 170 363 115 419 115 487 c 0
 115 555 170 611 237 611 c 0
237 573 m 0
 191 573 153 534 153 487 c 0
 153 440 191 401 238 401 c 0
 283 401 322 440 322 486 c 0
 322 535 285 573 237 573 c 0
495 344 m 2
 116 222 l 2
 111 220 106 219 104 219 c 0
 96 219 87 228 87 238 c 0
 87 248 92 254 105 258 c 2
 484 380 l 2
 488 381 492 382 496 382 c 0
 505 382 513 373 513 363 c 0
 513 354 508 348 495 344 c 2
EndSplineSet
EndChar

StartChar: ampersand
Encoding: 38 38 6
Width: 600
Flags: W
HStem: -16 41<191.731 305.155> 0 41<413 477.993> 208 41<439 477.993> 251 36<146.292 216> 478 41<235.427 346.808>
VStem: 105 41<73.589 209.531> 166 41<335.842 449.065> 408 70<209.709 248.75>
LayerCount: 2
Fore
SplineSet
393 0 m 1x7f
 362 48 l 1
 332 5 296 -16 250 -16 c 0xbf
 172 -16 105 57 105 142 c 0
 105 211 147 266 216 287 c 1
 171 360 166 371 166 400 c 0
 166 465 222 519 289 519 c 0
 312 519 332 513 355 499 c 1
 362 503 373 510 381 510 c 0
 391 510 400 500 400 489 c 0
 400 480 396 475 384 468 c 2
 352 452 l 1
 331 470 312 478 289 478 c 0
 246 478 207 440 207 398 c 0
 207 375 218 350 251 298 c 2
 362 121 l 1
 382 158 398 201 408 249 c 1
 451 249 l 2
 469 249 478 242 478 229 c 0
 478 215 469 208 451 208 c 2
 439 208 l 1
 425 156 406 110 386 82 c 1
 413 41 l 1
 451 41 l 2
 469 41 478 34 478 21 c 0
 478 7 469 0 451 0 c 2
 393 0 l 1x7f
338 86 m 1
 233 251 l 1
 180 239 146 197 146 142 c 0
 146 79 194 25 249 25 c 0
 284 25 316 47 338 86 c 1
EndSplineSet
EndChar

StartChar: quotesingle
Encoding: 39 39 7
Width: 600
Flags: W
HStem: 315 289<272.861 327.139>
VStem: 270 60<315.99 403.088>
LayerCount: 2
Fore
SplineSet
236 604 m 1
 364 604 l 1
 330 351 l 1
 327 326 318 315 300 315 c 0
 282 315 273 326 270 351 c 0
 236 604 l 1
EndSplineSet
EndChar

StartChar: parenleft
Encoding: 40 40 8
Width: 600
Flags: W
HStem: 584 20G<424 443.5>
VStem: 294 61<105.617 376.81>
LayerCount: 2
Fore
SplineSet
294 243 m 0
 294 404 410 604 438 604 c 0
 449 604 458 595 458 584 c 0
 458 545 355 454 355 240 c 0
 355 133 386 31 455 -93 c 0
 457 -98 458 -100 458 -104 c 0
 458 -115 448 -124 437 -124 c 0
 408 -124 294 73 294 243 c 0
EndSplineSet
EndChar

StartChar: parenright
Encoding: 41 41 9
Width: 600
Flags: W
HStem: 584 20G<162.5 182.5>
VStem: 250 61<103.19 374.44>
LayerCount: 2
Fore
SplineSet
147 -104 m 0
 147 -65 250 26 250 240 c 0
 250 348 220 448 150 573 c 0
 148 578 147 580 147 584 c 0
 147 595 157 604 168 604 c 0
 197 604 311 407 311 237 c 0
 311 76 195 -124 167 -124 c 0
 156 -124 147 -115 147 -104 c 0
EndSplineSet
EndChar

StartChar: asterisk
Encoding: 42 42 10
Width: 600
Flags: W
HStem: 584 20G<293 306.5>
VStem: 279 41<438 603.993>
LayerCount: 2
Fore
SplineSet
279 438 m 1
 279 577 l 2
 279 595 286 604 300 604 c 0
 313 604 320 595 320 577 c 2
 320 438 l 1
 453 481 l 2
 458 483 465 484 468 484 c 0
 478 484 487 474 487 464 c 0
 487 453 481 447 466 442 c 2
 333 400 l 1
 414 288 l 1
 418 281 421 275 421 270 c 0
 421 259 412 250 401 250 c 0
 393 250 389 253 381 264 c 2
 299 376 l 1
 218 264 l 2
 210 254 205 250 197 250 c 0
 186 250 177 259 177 271 c 0
 177 276 178 278 185 288 c 2
 266 400 l 1
 133 442 l 1
 122 445 113 450 113 463 c 0
 113 474 122 483 133 483 c 0
 137 483 139 482 146 480 c 2
 279 438 l 1
EndSplineSet
EndChar

StartChar: plus
Encoding: 43 43 11
Width: 600
Flags: W
HStem: 261 41<72.0066 279 320 527.993>
VStem: 279 41<32.0066 261 302 529.993>
LayerCount: 2
Fore
SplineSet
320 261 m 1
 320 59 l 2
 320 41 313 32 300 32 c 0
 286 32 279 41 279 59 c 2
 279 261 l 1
 99 261 l 2
 81 261 72 268 72 282 c 0
 72 295 81 302 99 302 c 2
 279 302 l 1
 279 503 l 2
 279 521 286 530 300 530 c 0
 313 530 320 521 320 503 c 2
 320 302 l 1
 500 302 l 2
 519 302 528 295 528 282 c 0
 528 268 519 261 500 261 c 2
 320 261 l 1
EndSplineSet
EndChar

StartChar: comma
Encoding: 44 44 12
Width: 600
Flags: W
HStem: -145 290
VStem: 135 205
LayerCount: 2
Fore
SplineSet
207 145 m 1
 340 145 l 1
 195 -120 l 2
 185 -139 177 -145 164 -145 c 0
 148 -145 135 -132 135 -116 c 0
 135 -112 136 -109 137 -105 c 2
 207 145 l 1
EndSplineSet
EndChar

StartChar: hyphen
Encoding: 45 45 13
Width: 600
Flags: W
HStem: 258 41<72.0066 527.993>
LayerCount: 2
Fore
SplineSet
501 258 m 2
 99 258 l 2
 81 258 72 265 72 279 c 0
 72 292 81 299 99 299 c 2
 501 299 l 2
 519 299 528 292 528 279 c 0
 528 265 519 258 501 258 c 2
EndSplineSet
EndChar

StartChar: period
Encoding: 46 46 14
Width: 600
Flags: W
HStem: -15 131<243.612 356.388>
VStem: 226 148<3.02535 98.4512>
LayerCount: 2
Fore
SplineSet
295 116 m 2
 305 116 l 2
 344 116 374 88 374 51 c 0
 374 13 344 -15 305 -15 c 2
 295 -15 l 2
 256 -15 226 14 226 51 c 0
 226 88 256 116 295 116 c 2
EndSplineSet
EndChar

StartChar: slash
Encoding: 47 47 15
Width: 600
Flags: W
LayerCount: 2
Fore
SplineSet
482 633 m 2
 155 -63 l 2
 148 -77 143 -81 133 -81 c 0
 123 -81 113 -72 113 -62 c 0
 113 -58 115 -53 118 -46 c 0
 445 650 l 2
 452 664 457 668 467 668 c 0
 477 668 487 659 487 649 c 0
 487 645 486 641 482 633 c 2
EndSplineSet
EndChar

StartChar: zero
Encoding: 48 48 16
Width: 600
Flags: W
HStem: -15 41<236.678 363.139> 577 41<236.861 363.322>
VStem: 113 41<132.307 470.066> 446 41<132.934 257 257 470.693>
LayerCount: 2
Fore
SplineSet
487 351 m 2
 487 251 l 2
 487 93 411 -15 300 -15 c 0
 189 -15 113 93 113 251 c 2
 113 351 l 2
 113 510 189 618 300 618 c 0
 411 618 487 510 487 351 c 2
300 577 m 0
 204 577 154 462 154 346 c 2
 154 257 l 2
 154 129 211 26 300 26 c 0
 396 26 446 141 446 257 c 2
 446 346 l 2
 446 474 389 577 300 577 c 0
EndSplineSet
EndChar

StartChar: one
Encoding: 49 49 17
Width: 600
Flags: W
HStem: 0 41<113.007 280 321 486.993> 592 20G<257.207 321>
VStem: 280 41<41 557>
LayerCount: 2
Fore
SplineSet
321 612 m 1
 321 41 l 1
 460 41 l 2
 478 41 487 34 487 21 c 0
 487 7 478 0 460 0 c 2
 141 0 l 2
 123 0 113 7 113 21 c 0
 113 34 122 41 141 41 c 2
 280 41 l 1
 280 557 l 1
 148 515 l 2
 144 514 136 512 134 512 c 0
 125 512 115 522 115 532 c 0
 115 543 120 549 136 554 c 2
 321 612 l 1
EndSplineSet
EndChar

StartChar: two
Encoding: 50 50 18
Width: 600
Flags: W
HStem: 0 104<437.251 477.75> 0 41<123 437> 577 41<211.916 364.963>
VStem: 104 40<452.007 514.641> 433 41<41 103.835 382.723 512.217>
LayerCount: 2
Fore
SplineSet
104 470 m 0x78
 104 521 178 618 290 618 c 0
 388 618 474 537 474 446 c 0
 474 387 454 358 330 237 c 0
 243 151 180 92 123 44 c 1
 123 41 l 1
 437 41 l 1x78
 437 77 l 2
 437 95 444 104 458 104 c 0xb8
 471 104 478 95 478 77 c 2
 478 0 l 1
 84 0 l 1
 84 60 l 1
 320 282 l 2
 414 374 433 402 433 447 c 0
 433 516 366 577 290 577 c 0
 222 577 160 532 144 472 c 0
 140 458 134 452 123 452 c 0
 113 452 104 461 104 470 c 0x78
EndSplineSet
EndChar

StartChar: three
Encoding: 51 51 19
Width: 600
Flags: W
HStem: -15 41<189.596 376.438> 312 41<252.007 370.992> 577 41<205.905 379.037>
VStem: 436 41<401.052 525.056> 458 41<100.936 235.219>
LayerCount: 2
Fore
SplineSet
125 528 m 0xf0
 125 546 189 618 301 618 c 0
 401 618 477 551 477 464 c 0xf0
 477 407 439 355 379 330 c 0
 378 330 376 329 374 328 c 1
 452 296 499 236 499 168 c 0
 499 67 405 -15 290 -15 c 0
 212 -15 96 35 96 69 c 0
 96 79 105 88 115 88 c 0
 137 88 179 26 291 26 c 0
 382 26 458 91 458 168 c 0xe8
 458 246 376 312 279 312 c 0
 261 312 252 319 252 333 c 0
 252 346 262 353 279 353 c 0
 329 353 345 354 366 364 c 0
 408 382 436 421 436 463 c 0
 436 528 377 577 300 577 c 0
 178 577 174 509 145 509 c 0
 134 509 125 518 125 528 c 0xf0
EndSplineSet
EndChar

StartChar: four
Encoding: 52 52 20
Width: 600
Flags: W
HStem: 0 41<273.007 376 417 477.993> 169 41<144 376 417 477.993> 563 41<352 376>
VStem: 376 41<41 169 210 563>
LayerCount: 2
Fore
SplineSet
376 169 m 1
 105 169 l 1
 105 216 l 1
 333 604 l 1
 417 604 l 1
 417 210 l 1
 451 210 l 2
 469 210 478 203 478 189 c 0
 478 176 469 169 451 169 c 2
 417 169 l 1
 417 41 l 1
 451 41 l 2
 469 41 478 34 478 21 c 0
 478 7 469 0 451 0 c 2
 300 0 l 2
 282 0 273 7 273 21 c 0
 273 34 282 41 300 41 c 2
 376 41 l 1
 376 169 l 1
376 210 m 1
 376 563 l 1
 352 563 l 1
 144 210 l 1
 376 210 l 1
EndSplineSet
EndChar

StartChar: five
Encoding: 53 53 21
Width: 600
Flags: W
HStem: -15 41<199.612 377.631> 354 41<215.72 392.398> 563 41<190 458.993>
VStem: 149 41<365 563> 458 41<110.452 287.046>
LayerCount: 2
Fore
SplineSet
316 354 m 0
 227 354 194 313 168 313 c 0
 157 313 149 322 149 335 c 2
 149 604 l 1
 431 604 l 2
 450 604 459 597 459 584 c 0
 459 570 450 563 431 563 c 2
 190 563 l 1
 190 365 l 1
 241 386 278 395 322 395 c 0
 424 395 499 313 499 201 c 0
 499 75 414 -15 295 -15 c 0
 185 -15 96 61 96 82 c 0
 96 93 105 102 116 102 c 0
 138 102 179 26 293 26 c 0
 391 26 458 98 458 203 c 0
 458 292 400 354 316 354 c 0
EndSplineSet
EndChar

StartChar: six
Encoding: 54 54 22
Width: 600
Flags: W
HStem: -15 41<263.921 405.807> 323 41<274.104 407.638> 577 41<333.47 494.005>
VStem: 136 39<195.672 405.475> 469 41<92.9128 258.459>
LayerCount: 2
Fore
SplineSet
488 563 m 0
 473 563 472 577 424 577 c 0
 348 577 269 530 220 455 c 0
 192 411 175 349 175 285 c 0
 175 276 176 261 177 242 c 1
 218 324 272 364 343 364 c 0
 434 364 510 280 510 178 c 0
 510 70 434 -15 337 -15 c 0
 219 -15 136 107 136 282 c 0
 136 485 268 618 428 618 c 0
 471 618 507 602 507 583 c 0
 507 572 499 563 488 563 c 0
183 188 m 1
 210 84 256 26 338 26 c 0
 412 26 469 92 469 178 c 0
 469 257 412 323 342 323 c 0
 252 323 202 223 183 188 c 1
EndSplineSet
EndChar

StartChar: seven
Encoding: 55 55 23
Width: 600
Flags: W
HStem: -1 21G<289.5 300> 500 104<105.328 145.674> 563 41<146 437>
VStem: 105 41<500.007 563> 275 40<-0.993435 42.2883> 437 41<522.556 563>
LayerCount: 2
Fore
SplineSet
437 545 m 1xbc
 437 563 l 1
 146 563 l 1xbc
 146 528 l 2
 146 509 139 500 126 500 c 0xdc
 112 500 105 509 105 528 c 2
 105 604 l 1
 478 604 l 1
 478 539 l 1
 315 20 l 2
 310 4 305 -1 295 -1 c 0
 284 -1 275 8 275 19 c 0
 275 22 276 28 277 32 c 2
 437 545 l 1xbc
EndSplineSet
EndChar

StartChar: eight
Encoding: 56 56 24
Width: 600
Flags: W
HStem: -15 41<222.154 377.625> 293 40<223.687 376.757> 577 41<223.799 376.201>
VStem: 113 41<91.6898 229.534> 123 41<386.931 517.923> 436 41<386.8 517.791> 446 41<91.5485 231.036>
LayerCount: 2
Fore
SplineSet
375 313 m 1xec
 448 280 487 227 487 161 c 0
 487 64 403 -15 300 -15 c 0
 197 -15 113 64 113 161 c 0xf2
 113 227 152 279 225 313 c 1
 155 349 123 392 123 453 c 0
 123 543 204 618 300 618 c 0
 396 618 477 543 477 453 c 0
 477 392 446 349 375 313 c 1xec
300 577 m 0
 224 577 164 521 164 451 c 0
 164 385 224 333 300 333 c 0
 375 333 436 385 436 450 c 0xec
 436 521 376 577 300 577 c 0
300 293 m 0
 218 293 154 235 154 161 c 0
 154 86 219 26 300 26 c 0
 380 26 446 86 446 160 c 0xf2
 446 236 383 293 300 293 c 0
EndSplineSet
EndChar

StartChar: nine
Encoding: 57 57 25
Width: 600
Flags: W
HStem: -15 41<151.995 312.53> 239 41<238.362 371.896> 577 41<240.193 382.079>
VStem: 136 41<344.541 510.087> 471 39<197.525 407.328>
LayerCount: 2
Fore
SplineSet
158 40 m 0
 173 40 174 26 222 26 c 0
 298 26 377 73 426 148 c 0
 454 192 471 254 471 318 c 0
 471 327 470 342 469 361 c 1
 428 279 374 239 303 239 c 0
 212 239 136 323 136 425 c 0
 136 533 212 618 309 618 c 0
 427 618 510 496 510 321 c 0
 510 118 378 -15 218 -15 c 0
 175 -15 139 1 139 20 c 0
 139 31 147 40 158 40 c 0
463 415 m 1
 436 519 390 577 308 577 c 0
 234 577 177 511 177 425 c 0
 177 346 234 280 304 280 c 0
 394 280 444 380 463 415 c 1
EndSplineSet
EndChar

StartChar: colon
Encoding: 58 58 26
Width: 600
Flags: W
HStem: -15 131<243.612 356.388> 285 132<243.612 356.388>
VStem: 226 148<3.02535 98.4512 303.025 398.975>
LayerCount: 2
Fore
SplineSet
295 116 m 2
 305 116 l 2
 344 116 374 88 374 51 c 0
 374 13 344 -15 305 -15 c 2
 295 -15 l 2
 256 -15 226 14 226 51 c 0
 226 88 256 116 295 116 c 2
295 417 m 2
 305 417 l 2
 344 417 374 388 374 351 c 0
 374 314 344 285 305 285 c 2
 295 285 l 2
 256 285 226 314 226 351 c 0
 226 388 256 417 295 417 c 2
EndSplineSet
EndChar

StartChar: semicolon
Encoding: 59 59 27
Width: 600
Flags: W
HStem: 285 132<219.612 332.388>
VStem: 202 148<303.025 398.975>
LayerCount: 2
Fore
SplineSet
211 145 m 1
 344 145 l 1
 199 -120 l 2
 189 -139 181 -145 168 -145 c 0
 152 -145 139 -132 139 -116 c 0
 139 -112 140 -109 141 -105 c 2
 211 145 l 1
271 417 m 2
 281 417 l 2
 320 417 350 388 350 351 c 0
 350 314 320 285 281 285 c 2
 271 285 l 2
 232 285 202 314 202 351 c 0
 202 388 232 417 271 417 c 2
EndSplineSet
EndChar

StartChar: less
Encoding: 60 60 28
Width: 600
Flags: W
LayerCount: 2
Fore
SplineSet
522 67 m 0
 522 59 514 44 502 44 c 0
 499 44 494 46 489 49 c 2
 72 281 l 1
 490 513 l 2
 495 516 499 518 502 518 c 0
 512 518 522 506 522 496 c 0
 522 488 518 483 509 478 c 2
 154 281 l 1
 509 84 l 2
 518 79 522 73 522 67 c 0
EndSplineSet
EndChar

StartChar: equal
Encoding: 61 61 29
Width: 600
Flags: W
HStem: 190 41<51.0066 548.993> 334 41<51.0066 548.993>
LayerCount: 2
Fore
SplineSet
522 334 m 2
 78 334 l 2
 60 334 51 341 51 355 c 0
 51 368 60 375 78 375 c 2
 522 375 l 2
 540 375 549 368 549 355 c 0
 549 341 540 334 522 334 c 2
522 190 m 2
 78 190 l 2
 60 190 51 197 51 211 c 0
 51 224 60 231 78 231 c 2
 522 231 l 2
 540 231 549 224 549 211 c 0
 549 197 540 190 522 190 c 2
EndSplineSet
EndChar

StartChar: greater
Encoding: 62 62 30
Width: 600
Flags: W
LayerCount: 2
Fore
SplineSet
78 496 m 0
 78 501 85 518 98 518 c 0
 101 518 106 516 111 513 c 2
 528 281 l 1
 110 49 l 2
 105 46 101 44 98 44 c 0
 87 44 78 56 78 67 c 0
 78 74 82 79 91 84 c 2
 446 281 l 1
 91 478 l 2
 82 483 78 489 78 496 c 0
EndSplineSet
EndChar

StartChar: question
Encoding: 63 63 31
Width: 600
Flags: W
HStem: -15 100<238.354 361.93> 536 41<202.035 390.225>
VStem: 134 41<434.007 502> 230 141<-5.07214 75.7681> 281 41<179.007 247> 446 41<363.894 485.685>
LayerCount: 2
Fore
SplineSet
134 529 m 1xec
 177 543 220 577 309 577 c 0
 415 577 487 515 487 423 c 0
 487 349 447 306 322 247 c 1
 322 206 l 2
 322 188 315 179 302 179 c 0
 288 179 281 188 281 206 c 2
 281 274 l 1
 397 323 446 366 446 423 c 0
 446 489 387 536 304 536 c 0
 259 536 227 528 175 502 c 1
 175 461 l 2
 175 443 168 434 155 434 c 0
 141 434 134 443 134 461 c 2
 134 529 l 1xec
287 85 m 2
 314 85 l 2
 348 85 371 65 371 35 c 0
 371 6 348 -15 314 -15 c 2
 287 -15 l 2
 253 -15 230 5 230 35 c 0xf4
 230 65 253 85 287 85 c 2
EndSplineSet
EndChar

StartChar: at
Encoding: 64 64 32
Width: 600
Flags: W
HStem: -62 41<231.448 396.695> 147 41<314.191 379.993 378.469 381.518 381.518 418 418 418> 376 40<334.628 418> 583 41<231.138 370.262>
VStem: 105 41<85.1023 477.963> 242 41<217.307 329.705> 418 41<192 376 416 534.088>
LayerCount: 2
Fore
SplineSet
299 -62 m 0
 181 -62 105 54 105 198 c 2
 105 361 l 2
 105 513 187 624 300 624 c 0
 391 624 459 555 459 463 c 2
 459 186 l 1
 471 184 478 177 478 166 c 0
 478 152 469 145 451 145 c 2
 418 145 l 1
 418 150 l 1
 398 148 388 147 378 147 c 0
 300 147 242 201 242 272 c 0
 242 355 315 416 416 416 c 2
 418 416 l 1
 418 463 l 2
 418 533 369 583 301 583 c 0
 210 583 146 490 146 358 c 2
 146 198 l 2
 146 79 204 -21 305 -21 c 0
 400 -21 410 20 429 20 c 0
 440 20 449 11 449 1 c 0
 449 -30 373 -62 299 -62 c 0
418 192 m 1
 418 376 l 1
 340 376 283 333 283 273 c 0
 283 223 323 188 381 188 c 0
 392 188 406 189 418 192 c 1
EndSplineSet
EndChar

StartChar: A
Encoding: 65 65 33
Width: 600
Flags: W
HStem: 0 41<9.00659 67 108 213.993 381.007 484 527 590.993> 188 41<178 413> 522 41<99.0066 246 286 301>
AnchorPoint: "above" 260 563 basechar 0
LayerCount: 2
Fore
SplineSet
428 188 m 1
 162 188 l 1
 108 41 l 1
 187 41 l 2
 205 41 214 34 214 21 c 0
 214 7 205 0 187 0 c 2
 36 0 l 2
 18 0 9 7 9 21 c 0
 9 34 18 41 36 41 c 2
 67 41 l 1
 246 522 l 1
 126 522 l 2
 108 522 99 529 99 543 c 0
 99 556 108 563 126 563 c 2
 330 563 l 1
 527 41 l 1
 564 41 l 2
 582 41 591 34 591 21 c 0
 591 7 582 0 564 0 c 2
 408 0 l 2
 390 0 381 7 381 21 c 0
 381 34 390 41 408 41 c 2
 484 41 l 1
 428 188 l 1
413 229 m 1
 301 522 l 1
 286 522 l 1
 178 229 l 1
 413 229 l 1
EndSplineSet
EndChar

StartChar: B
Encoding: 66 66 34
Width: 600
Flags: W
HStem: 0 41<43.0066 124 165 446.893> 272 41<165 402.099> 522 41<43.0066 124 165 406.975>
VStem: 124 41<41 272 313 522> 458 41<360.295 476.164> 500 41<90.283 215.005>
LayerCount: 2
Fore
SplineSet
124 41 m 1
 124 522 l 1
 70 522 l 2
 52 522 43 529 43 543 c 0
 43 556 52 563 70 563 c 2
 328 563 l 2
 425 563 499 500 499 418 c 0
 499 367 473 330 414 298 c 1
 498 268 541 220 541 153 c 0
 541 69 467 0 376 0 c 2
 70 0 l 2
 52 0 43 7 43 21 c 0
 43 34 52 41 70 41 c 2
 124 41 l 1
165 313 m 1
 312 313 l 2
 397 313 458 357 458 419 c 0
 458 477 402 522 329 522 c 2
 165 522 l 1
 165 313 l 1
500 153 m 0
 500 202 465 272 314 272 c 2
 165 272 l 1
 165 41 l 1
 373 41 l 2
 444 41 500 91 500 153 c 0
EndSplineSet
EndChar

StartChar: C
Encoding: 67 67 35
Width: 600
Flags: W
HStem: -16 41<231.625 414.066> 535 41<220.121 401.266>
VStem: 63 41<156.291 417.125> 478 41<397.007 472.035 507 562.993>
AnchorPoint: "above" 305 574 basechar 0
LayerCount: 2
Fore
SplineSet
63 325 m 2
 63 378 105 576 305 576 c 0
 371 576 431 552 478 507 c 1
 478 536 l 2
 478 554 485 563 499 563 c 0
 512 563 519 554 519 536 c 2
 519 424 l 2
 519 406 512 397 498 397 c 0
 486 397 479 405 478 421 c 0
 474 482 394 535 305 535 c 0
 194 535 104 438 104 319 c 2
 104 248 l 2
 104 128 204 25 322 25 c 0
 391 25 442 51 496 115 c 0
 503 123 507 125 514 125 c 0
 526 125 534 117 534 106 c 0
 534 86 449 -16 322 -16 c 0
 186 -16 63 107 63 242 c 2
 63 325 l 2
EndSplineSet
EndChar

StartChar: D
Encoding: 68 68 36
Width: 600
Flags: W
HStem: 0 41<43.0066 104 145 369.873> 522 41<43.0066 104 145 372.703>
VStem: 104 41<41 522> 479 41<155.064 403.293>
LayerCount: 2
Fore
SplineSet
104 41 m 1
 104 522 l 1
 70 522 l 2
 52 522 43 529 43 543 c 0
 43 556 52 563 70 563 c 2
 290 563 l 2
 419 563 520 451 520 310 c 2
 520 254 l 2
 520 112 419 0 290 0 c 2
 70 0 l 2
 52 0 43 7 43 21 c 0
 43 34 52 41 70 41 c 2
 104 41 l 1
479 318 m 2
 479 359 441 522 288 522 c 2
 145 522 l 1
 145 41 l 1
 295 41 l 2
 391 41 479 139 479 245 c 2
 479 318 l 2
EndSplineSet
EndChar

StartChar: E
Encoding: 69 69 37
Width: 600
Flags: W
HStem: 0 41<43.0066 124 165 479> 272 41<165 310> 522 41<43.0066 124 165 458>
VStem: 124 41<41 272 313 522> 310 41<200.007 272 313 384.993> 458 41<397.007 522> 479 41<41 186.993>
LayerCount: 2
Fore
SplineSet
165 272 m 1xfc
 165 41 l 1
 479 41 l 1
 479 160 l 2
 479 178 486 187 500 187 c 0
 513 187 520 178 520 160 c 2
 520 0 l 1xfa
 70 0 l 2
 52 0 43 7 43 21 c 0
 43 34 52 41 70 41 c 2
 124 41 l 1
 124 522 l 1
 70 522 l 2
 52 522 43 529 43 543 c 0
 43 556 52 563 70 563 c 2
 499 563 l 1
 499 424 l 2
 499 406 492 397 478 397 c 0
 465 397 458 406 458 424 c 2
 458 522 l 1
 165 522 l 1
 165 313 l 1
 310 313 l 1
 310 358 l 2
 310 376 317 385 331 385 c 0
 344 385 351 376 351 358 c 2
 351 227 l 2
 351 209 344 200 331 200 c 0
 317 200 310 209 310 227 c 2
 310 272 l 1
 165 272 l 1xfc
EndSplineSet
EndChar

StartChar: F
Encoding: 70 70 38
Width: 600
Flags: W
HStem: 0 41<43.0066 124 165 330.993> 272 41<165 310> 522 41<43.0066 124 165 479>
VStem: 124 41<41 272 313 522> 310 41<200.007 272 313 384.993> 479 41<397.007 522>
LayerCount: 2
Fore
SplineSet
165 272 m 1
 165 41 l 1
 303 41 l 2
 322 41 331 34 331 21 c 0
 331 7 321 0 303 0 c 2
 70 0 l 2
 52 0 43 7 43 21 c 0
 43 34 52 41 70 41 c 2
 124 41 l 1
 124 522 l 1
 70 522 l 2
 52 522 43 529 43 543 c 0
 43 556 52 563 70 563 c 2
 520 563 l 1
 520 424 l 2
 520 406 513 397 499 397 c 0
 486 397 479 406 479 424 c 2
 479 522 l 1
 165 522 l 1
 165 313 l 1
 310 313 l 1
 310 358 l 2
 310 376 317 385 330 385 c 0
 344 385 351 376 351 358 c 2
 351 227 l 2
 351 209 344 200 330 200 c 0
 317 200 310 209 310 227 c 2
 310 272 l 1
 165 272 l 1
EndSplineSet
EndChar

StartChar: G
Encoding: 71 71 39
Width: 600
Flags: W
HStem: -16 41<222.509 450.358> 209 41<313.007 479 520 561.993> 418 21G<493.5 506.5> 535 41<220.247 418.459>
VStem: 63 41<142.727 244 244 405.752> 479 41<59 209 418.007 486.937 522 562.993>
LayerCount: 2
Fore
SplineSet
315 535 m 0
 138 535 104 362 104 317 c 2
 104 244 l 2
 104 108 192 25 336 25 c 0
 388 25 423 33 479 59 c 1
 479 209 l 1
 340 209 l 2
 322 209 313 216 313 230 c 0
 313 243 322 250 340 250 c 2
 534 250 l 2
 553 250 562 243 562 230 c 0
 562 216 553 209 534 209 c 2
 520 209 l 1
 520 36 l 1
 461 2 395 -16 333 -16 c 0
 169 -16 63 86 63 244 c 2
 63 318 l 2
 63 453 163 576 313 576 c 0
 379 576 434 558 479 522 c 1
 479 536 l 2
 479 554 486 563 500 563 c 0
 514 563 520 555 520 536 c 2
 520 445 l 2
 520 427 513 418 500 418 c 0
 487 418 481 426 480 443 c 0
 476 494 404 535 315 535 c 0
EndSplineSet
EndChar

StartChar: H
Encoding: 72 72 40
Width: 600
Flags: W
HStem: 0 41<53.0073 126 167 247.993 356.007 437 478 550.993> 272 41<167 437> 522 41<74.0066 126 167 247.993 356.007 437 478 529.993>
VStem: 126 41<41 272 313 522> 437 41<41 272 313 522>
LayerCount: 2
Fore
SplineSet
437 272 m 1
 167 272 l 1
 167 41 l 1
 221 41 l 2
 239 41 248 34 248 21 c 0
 248 7 239 0 221 0 c 2
 81 0 l 2
 63 0 53 7 53 21 c 0
 53 34 62 41 81 41 c 2
 126 41 l 1
 126 522 l 1
 101 522 l 2
 83 522 74 529 74 543 c 0
 74 556 83 563 101 563 c 2
 221 563 l 2
 239 563 248 556 248 543 c 0
 248 529 239 522 221 522 c 2
 167 522 l 1
 167 313 l 1
 437 313 l 1
 437 522 l 1
 383 522 l 2
 365 522 356 529 356 543 c 0
 356 556 365 563 383 563 c 2
 503 563 l 2
 521 563 530 556 530 543 c 0
 530 529 521 522 503 522 c 2
 478 522 l 1
 478 41 l 1
 524 41 l 2
 542 41 551 34 551 21 c 0
 551 7 541 0 524 0 c 2
 383 0 l 2
 365 0 356 7 356 21 c 0
 356 34 365 41 383 41 c 2
 437 41 l 1
 437 272 l 1
EndSplineSet
EndChar

StartChar: I
Encoding: 73 73 41
Width: 600
Flags: W
HStem: 0 41<113.007 279 320 486.993> 522 41<113.007 279 320 486.993>
VStem: 279 41<41 522>
LayerCount: 2
Fore
SplineSet
320 522 m 1
 320 41 l 1
 459 41 l 2
 478 41 487 34 487 21 c 0
 487 7 477 0 459 0 c 2
 140 0 l 2
 122 0 113 7 113 21 c 0
 113 34 122 41 140 41 c 2
 279 41 l 1
 279 522 l 1
 140 522 l 2
 122 522 113 529 113 543 c 0
 113 556 122 563 140 563 c 2
 459 563 l 2
 478 563 487 556 487 543 c 0
 487 529 478 522 459 522 c 2
 320 522 l 1
EndSplineSet
EndChar

StartChar: J
Encoding: 74 74 42
Width: 600
Flags: W
HStem: -16 41<189.821 350.434> 522 41<233.007 419 460 582.993>
VStem: 84 41<93 249.993> 419 41<92.1028 165 165 522>
LayerCount: 2
Fore
SplineSet
460 522 m 1
 460 165 l 2
 460 66 375 -16 272 -16 c 0
 208 -16 156 9 84 74 c 1
 84 223 l 2
 84 241 91 250 105 250 c 0
 118 250 125 241 125 223 c 2
 125 93 l 1
 176 47 223 25 273 25 c 0
 354 25 419 87 419 165 c 2
 419 522 l 1
 260 522 l 2
 242 522 233 529 233 543 c 0
 233 556 242 563 260 563 c 2
 556 563 l 2
 574 563 583 556 583 543 c 0
 583 529 574 522 556 522 c 2
 460 522 l 1
EndSplineSet
EndChar

StartChar: K
Encoding: 75 75 43
Width: 600
Flags: W
HStem: 0 41<43.0066 124 165 266.993 489 571.993> 522 41<43.0066 124 165 266.993 372.007 445 502 545.993>
VStem: 124 41<41 221 273 522>
LayerCount: 2
Fore
SplineSet
165 221 m 1
 165 41 l 1
 240 41 l 2
 258 41 267 34 267 21 c 0
 267 7 258 0 240 0 c 2
 70 0 l 2
 52 0 43 7 43 21 c 0
 43 34 52 41 70 41 c 2
 124 41 l 1
 124 522 l 1
 70 522 l 2
 52 522 43 529 43 543 c 0
 43 556 52 563 70 563 c 2
 240 563 l 2
 258 563 267 556 267 543 c 0
 267 529 258 522 240 522 c 2
 165 522 l 1
 165 273 l 1
 445 522 l 1
 400 522 l 2
 381 522 372 529 372 543 c 0
 372 556 381 563 400 563 c 2
 518 563 l 2
 537 563 546 556 546 543 c 0
 546 529 537 522 518 522 c 2
 502 522 l 1
 280 324 l 1
 377 284 414 233 489 41 c 1
 545 41 l 2
 563 41 572 34 572 21 c 0
 572 7 563 0 545 0 c 2
 458 0 l 1
 385 203 341 263 246 294 c 1
 165 221 l 1
EndSplineSet
EndChar

StartChar: L
Encoding: 76 76 44
Width: 600
Flags: W
HStem: 0 41<63.0066 186 227 500> 522 41<63.0066 186 227 349.993>
VStem: 186 41<41 522> 500 41<41 227.993>
LayerCount: 2
Fore
SplineSet
227 522 m 1
 227 41 l 1
 500 41 l 1
 500 201 l 2
 500 219 507 228 521 228 c 0
 534 228 541 219 541 201 c 2
 541 0 l 1
 90 0 l 2
 72 0 63 7 63 21 c 0
 63 34 72 41 90 41 c 2
 186 41 l 1
 186 522 l 1
 90 522 l 2
 72 522 63 529 63 543 c 0
 63 556 72 563 90 563 c 2
 323 563 l 2
 341 563 350 556 350 543 c 0
 350 529 341 522 323 522 c 2
 227 522 l 1
EndSplineSet
EndChar

StartChar: M
Encoding: 77 77 45
Width: 600
Flags: W
HStem: 0 41<11.0066 72 113 214.993 390.007 491 532 592.993> 522 41<20.0066 72 113 121 483 491 532 583.993>
VStem: 72 41<41 522> 491 41<41 522>
LayerCount: 2
Fore
SplineSet
326 169 m 1
 280 169 l 1
 121 522 l 1
 113 522 l 1
 113 41 l 1
 187 41 l 2
 206 41 215 34 215 21 c 0
 215 7 205 0 187 0 c 2
 38 0 l 2
 20 0 11 7 11 21 c 0
 11 34 20 41 38 41 c 2
 72 41 l 1
 72 522 l 1
 47 522 l 2
 29 522 20 529 20 543 c 0
 20 556 29 563 47 563 c 2
 146 563 l 1
 303 215 l 1
 457 563 l 1
 557 563 l 2
 575 563 584 556 584 543 c 0
 584 529 575 522 557 522 c 2
 532 522 l 1
 532 41 l 1
 566 41 l 2
 584 41 593 34 593 21 c 0
 593 7 584 0 566 0 c 2
 417 0 l 2
 399 0 390 7 390 21 c 0
 390 34 399 41 417 41 c 2
 491 41 l 1
 491 522 l 1
 483 522 l 1
 326 169 l 1
EndSplineSet
EndChar

StartChar: N
Encoding: 78 78 46
Width: 600
Flags: W
HStem: 0 41<42.0066 103 144 245.993> 522 41<22.0066 103 358.007 460 501 561.993>
VStem: 103 41<41 504> 460 41<59 522>
LayerCount: 2
Fore
SplineSet
501 0 m 1
 449 0 l 1
 144 504 l 1
 144 41 l 1
 219 41 l 2
 237 41 246 34 246 21 c 0
 246 7 236 0 219 0 c 2
 69 0 l 2
 51 0 42 7 42 21 c 0
 42 34 51 41 69 41 c 2
 103 41 l 1
 103 522 l 1
 49 522 l 2
 31 522 22 529 22 543 c 0
 22 556 31 563 49 563 c 2
 155 563 l 1
 460 59 l 1
 460 522 l 1
 386 522 l 2
 367 522 358 529 358 543 c 0
 358 556 367 563 386 563 c 2
 535 563 l 2
 553 563 562 556 562 543 c 0
 562 529 553 522 535 522 c 2
 501 522 l 1
 501 0 l 1
EndSplineSet
EndChar

StartChar: O
Encoding: 79 79 47
Width: 600
Flags: W
HStem: -16 41<219.486 379.916> 535 41<219.275 381.323>
VStem: 51 41<170.323 389.677> 508 41<168.868 388.646>
LayerCount: 2
Fore
SplineSet
300 576 m 0
 441 576 549 446 549 276 c 0
 549 115 437 -16 300 -16 c 0
 161 -16 51 115 51 280 c 0
 51 445 161 576 300 576 c 0
300 535 m 0
 185 535 92 420 92 280 c 0
 92 140 186 25 300 25 c 0
 413 25 508 140 508 277 c 0
 508 421 416 535 300 535 c 0
EndSplineSet
EndChar

StartChar: P
Encoding: 80 80 48
Width: 600
Flags: W
HStem: 0 41<43.0066 124 165 330.993> 231 41<165 384.831> 522 41<43.0066 124 165 392.645>
VStem: 124 41<41 231 272 522> 458 41<335.996 462.55>
LayerCount: 2
Fore
SplineSet
165 231 m 1
 165 41 l 1
 303 41 l 2
 322 41 331 34 331 21 c 0
 331 7 321 0 303 0 c 2
 70 0 l 2
 52 0 43 7 43 21 c 0
 43 34 52 41 70 41 c 2
 124 41 l 1
 124 522 l 1
 70 522 l 2
 52 522 43 529 43 543 c 0
 43 556 52 563 70 563 c 2
 310 563 l 2
 416 563 499 491 499 398 c 0
 499 305 410 231 296 231 c 2
 165 231 l 1
165 272 m 1
 299 272 l 2
 386 272 458 329 458 398 c 0
 458 466 393 522 314 522 c 2
 165 522 l 1
 165 272 l 1
EndSplineSet
EndChar

StartChar: Q
Encoding: 81 81 49
Width: 600
Flags: W
HStem: -115 41<364.776 505.738> -89 41<220.204 411.473> -16 41<305 378.762> 535 41<219.275 380.936>
VStem: 51 41<168.35 389.677> 508 41<170.225 389.338>
LayerCount: 2
Fore
SplineSet
318 -89 m 0x7c
 236 -89 195 -114 168 -114 c 0
 157 -114 148 -105 148 -93 c 0
 148 -86 152 -80 159 -75 c 2
 249 -10 l 1
 135 15 51 139 51 280 c 0
 51 445 161 576 300 576 c 0
 439 576 549 445 549 280 c 0
 549 116 443 -12 305 -16 c 1
 251 -56 l 1
 281 -50 297 -48 318 -48 c 0x7c
 393 -48 407 -74 445 -74 c 0
 486 -74 511 -43 526 -43 c 0
 537 -43 546 -52 546 -64 c 0
 546 -84 484 -115 442 -115 c 0xbc
 396 -115 381 -89 318 -89 c 0x7c
300 535 m 0
 185 535 92 420 92 280 c 0
 92 140 186 25 300 25 c 0
 413 25 508 140 508 277 c 0
 508 421 416 535 300 535 c 0
EndSplineSet
EndChar

StartChar: R
Encoding: 82 82 50
Width: 600
Flags: W
HStem: 0 41<43.0066 124 165 266.993 531 588.993> 251 41<165 297> 522 41<43.0066 124 165 394.986>
VStem: 124 41<41 251 292 522> 457 41<353.157 464.555>
LayerCount: 2
Fore
SplineSet
165 251 m 1
 165 41 l 1
 240 41 l 2
 258 41 267 34 267 21 c 0
 267 7 258 0 240 0 c 2
 70 0 l 2
 52 0 43 7 43 21 c 0
 43 34 52 41 70 41 c 2
 124 41 l 1
 124 522 l 1
 70 522 l 2
 52 522 43 529 43 543 c 0
 43 556 52 563 70 563 c 2
 318 563 l 2
 415 563 498 491 498 407 c 0
 498 342 452 294 359 262 c 1
 422 219 450 182 531 41 c 1
 562 41 l 2
 580 41 589 34 589 21 c 0
 589 7 580 0 562 0 c 2
 505 0 l 1
 417 162 373 216 297 251 c 1
 165 251 l 1
165 292 m 1
 279 292 l 2
 377 292 457 344 457 408 c 0
 457 468 390 522 318 522 c 2
 165 522 l 1
 165 292 l 1
EndSplineSet
EndChar

StartChar: S
Encoding: 83 83 51
Width: 600
Flags: W
HStem: -16 41<204.849 393.734> 535 41<217.829 387.935>
VStem: 92 41<0.0065918 56 85.6182 165.993> 115 44<363.135 482.714> 445 41<406.007 483.158 517 562.993> 464 44<87.8087 212.35>
LayerCount: 2
Fore
SplineSet
464 153 m 0xe4
 464 334 115 207 115 421 c 0
 115 509 194 576 299 576 c 0
 358 576 403 558 445 517 c 1
 445 536 l 2
 445 554 452 563 466 563 c 0
 479 563 486 554 486 536 c 2
 486 433 l 2
 486 415 479 406 466 406 c 0
 453 406 446 414 445 430 c 0
 441 490 380 535 302 535 c 0
 220 535 159 486 159 420 c 0xd8
 159 251 508 371 508 151 c 0
 508 54 422 -16 302 -16 c 0
 233 -16 174 9 133 56 c 1
 133 27 l 2
 133 9 126 0 112 0 c 0
 99 0 92 9 92 27 c 2
 92 139 l 2
 92 157 99 166 113 166 c 0
 126 166 132 158 133 142 c 0
 136 76 210 25 301 25 c 0
 394 25 464 79 464 153 c 0xe4
EndSplineSet
EndChar

StartChar: T
Encoding: 84 84 52
Width: 600
Flags: W
HStem: 0 41<148.007 280 321 452.993> 422 141<72.2499 112.749 487.315 527.84> 522 41<113 280 321 487>
VStem: 72 41<422.007 522> 280 41<41 522> 487 41<422.008 522>
LayerCount: 2
Fore
SplineSet
321 41 m 1xbc
 426 41 l 2
 444 41 453 34 453 21 c 0
 453 7 444 0 426 0 c 2
 175 0 l 2
 157 0 148 7 148 21 c 0
 148 34 157 41 175 41 c 2
 280 41 l 1
 280 522 l 1
 113 522 l 1xbc
 113 449 l 2
 113 431 106 422 92 422 c 0xdc
 79 422 72 431 72 449 c 2
 72 563 l 1
 528 563 l 1xbc
 528 449 l 2
 528 430 522 422 508 422 c 0xdc
 496 422 487 433 487 449 c 2
 487 522 l 1
 321 522 l 1
 321 41 l 1xbc
EndSplineSet
EndChar

StartChar: U
Encoding: 85 85 53
Width: 600
Flags: W
HStem: -16 41<220.908 378.659> 522 41<40.0066 101 142 242.993 357.007 458 499 559.993>
VStem: 101 41<105.5 522> 458 41<105.5 522>
LayerCount: 2
Fore
SplineSet
499 522 m 1
 499 185 l 2
 499 71 412 -16 300 -16 c 0
 187 -16 101 71 101 185 c 2
 101 522 l 1
 67 522 l 2
 49 522 40 529 40 543 c 0
 40 557 49 563 67 563 c 2
 216 563 l 2
 234 563 243 556 243 543 c 0
 243 529 234 522 216 522 c 2
 142 522 l 1
 142 185 l 2
 142 95 211 25 300 25 c 0
 388 25 458 95 458 185 c 2
 458 522 l 1
 384 522 l 2
 366 522 357 529 357 543 c 0
 357 557 365 563 384 563 c 2
 533 563 l 2
 552 563 560 557 560 543 c 0
 560 529 551 522 533 522 c 2
 499 522 l 1
EndSplineSet
EndChar

StartChar: V
Encoding: 86 86 54
Width: 600
Flags: W
HStem: 0 21G<259.337 332.008> 522 41<9.00659 67 110 213.993 387.007 492 533 590.993>
LayerCount: 2
Fore
SplineSet
267 0 m 1
 67 522 l 1
 36 522 l 2
 18 522 9 529 9 543 c 0
 9 557 18 563 36 563 c 2
 187 563 l 2
 205 563 214 557 214 543 c 0
 214 529 205 522 187 522 c 2
 110 522 l 1
 296 41 l 1
 299 41 l 1
 492 522 l 1
 414 522 l 2
 396 522 387 529 387 543 c 0
 387 556 395 563 414 563 c 2
 564 563 l 2
 582 563 591 557 591 543 c 0
 591 529 582 522 564 522 c 2
 533 522 l 1
 324 0 l 1
 267 0 l 1
EndSplineSet
EndChar

StartChar: W
Encoding: 87 87 55
Width: 600
Flags: W
HStem: 0 21G<119.701 190.75 406.4 478.375> 418 20G<265.286 338.561> 522 41<20.0066 62 103 223.993 376.007 499 538 579.993>
LayerCount: 2
Fore
SplineSet
122 0 m 1
 62 522 l 1
 47 522 l 2
 29 522 20 529 20 543 c 0
 20 556 29 563 47 563 c 2
 196 563 l 2
 215 563 224 556 224 543 c 0
 224 529 215 522 196 522 c 2
 103 522 l 1
 159 46 l 1
 271 438 l 1
 333 438 l 1
 442 46 l 1
 499 522 l 1
 403 522 l 2
 385 522 376 529 376 543 c 0
 376 556 385 563 403 563 c 2
 553 563 l 2
 571 563 580 556 580 543 c 0
 580 529 571 522 553 522 c 2
 538 522 l 1
 476 0 l 1
 412 0 l 1
 300 400 l 1
 185 0 l 1
 122 0 l 1
EndSplineSet
EndChar

StartChar: X
Encoding: 88 88 56
Width: 600
Flags: W
HStem: 0 41<40.0066 84 134 224.993 374.007 463 516 559.993> 522 41<51.0066 93 145 214.993 381.007 453 504 545.993>
LayerCount: 2
Fore
SplineSet
325 288 m 1
 516 41 l 1
 533 41 l 2
 551 41 560 34 560 21 c 0
 560 7 551 0 533 0 c 2
 401 0 l 2
 383 0 374 7 374 21 c 0
 374 34 383 41 401 41 c 2
 463 41 l 1
 298 255 l 1
 134 41 l 1
 198 41 l 2
 216 41 225 34 225 21 c 0
 225 7 216 0 198 0 c 2
 67 0 l 2
 49 0 40 7 40 21 c 0
 40 34 49 41 67 41 c 2
 84 41 l 1
 272 288 l 1
 93 522 l 1
 78 522 l 2
 60 522 51 529 51 543 c 0
 51 556 60 563 78 563 c 2
 188 563 l 2
 206 563 215 556 215 543 c 0
 215 529 206 522 188 522 c 2
 145 522 l 1
 300 321 l 1
 453 522 l 1
 408 522 l 2
 390 522 381 529 381 543 c 0
 381 556 390 563 408 563 c 2
 519 563 l 2
 537 563 546 557 546 543 c 0
 546 529 537 522 519 522 c 2
 504 522 l 1
 325 288 l 1
EndSplineSet
EndChar

StartChar: Y
Encoding: 89 89 57
Width: 600
Flags: W
HStem: 0 41<149.007 281 322 453.993> 522 41<51.0066 102 151 215.993 384.007 452 498 548.992>
VStem: 281 41<41 254>
LayerCount: 2
Fore
SplineSet
322 254 m 1
 322 41 l 1
 427 41 l 2
 445 41 454 34 454 21 c 0
 454 7 445 0 427 0 c 2
 176 0 l 2
 158 0 149 7 149 21 c 0
 149 34 158 41 176 41 c 2
 281 41 l 1
 281 254 l 1
 102 522 l 1
 78 522 l 2
 60 522 51 529 51 543 c 0
 51 556 60 563 78 563 c 2
 189 563 l 2
 207 563 216 556 216 543 c 0
 216 529 207 522 189 522 c 2
 151 522 l 1
 303 295 l 1
 452 522 l 1
 412 522 l 2
 393 522 384 529 384 543 c 0
 384 556 393 563 412 563 c 2
 522 563 l 2
 539 563 549 555 549 543 c 0
 549 530 538 522 522 522 c 2
 498 522 l 1
 322 254 l 1
EndSplineSet
EndChar

StartChar: Z
Encoding: 90 90 58
Width: 600
Flags: W
HStem: 0 41<142 456> 522 41<162 431>
VStem: 121 41<376.007 522> 456 41<41 208.993>
LayerCount: 2
Fore
SplineSet
497 0 m 1
 103 0 l 1
 103 59 l 1
 431 519 l 1
 431 522 l 1
 162 522 l 1
 162 404 l 2
 162 385 155 376 142 376 c 0
 128 376 121 385 121 404 c 2
 121 563 l 1
 470 563 l 1
 470 505 l 1
 142 45 l 1
 142 41 l 1
 456 41 l 1
 456 182 l 2
 456 200 462 209 476 209 c 0
 490 209 497 200 497 182 c 2
 497 0 l 1
EndSplineSet
EndChar

StartChar: bracketleft
Encoding: 91 91 59
Width: 600
Flags: W
HStem: -124 41<321 444.993> 563 41<321 444.993>
VStem: 280 41<-83 563>
LayerCount: 2
Fore
SplineSet
321 563 m 1
 321 -83 l 1
 418 -83 l 2
 436 -83 445 -90 445 -103 c 0
 445 -117 436 -124 418 -124 c 2
 280 -124 l 1
 280 604 l 1
 418 604 l 2
 436 604 445 597 445 584 c 0
 445 570 436 563 418 563 c 2
 321 563 l 1
EndSplineSet
EndChar

StartChar: backslash
Encoding: 92 92 60
Width: 600
Flags: W
LayerCount: 2
Fore
SplineSet
155 650 m 2
 482 -46 l 1
 486 -53 487 -58 487 -62 c 0
 487 -72 477 -81 467 -81 c 0
 457 -81 452 -77 445 -63 c 2
 118 633 l 2
 114 641 113 645 113 649 c 0
 113 659 123 668 134 668 c 0
 143 668 148 664 155 650 c 2
EndSplineSet
EndChar

StartChar: bracketright
Encoding: 93 93 61
Width: 600
Flags: W
HStem: -124 41<155.007 279> 563 41<155.007 279>
VStem: 279 41<-83 563>
LayerCount: 2
Fore
SplineSet
279 -83 m 1
 279 563 l 1
 182 563 l 2
 164 563 155 570 155 583 c 0
 155 597 164 604 182 604 c 2
 320 604 l 1
 320 -124 l 1
 182 -124 l 2
 164 -124 155 -117 155 -104 c 0
 155 -90 164 -83 182 -83 c 2
 279 -83 l 1
EndSplineSet
EndChar

StartChar: asciicircum
Encoding: 94 94 62
Width: 600
Flags: W
HStem: 354 261
LayerCount: 2
Fore
SplineSet
300 615 m 1
 478 392 l 2
 484 385 487 379 487 374 c 0
 487 363 478 354 467 354 c 0
 459 354 455 357 447 367 c 0
 300 552 l 1
 153 367 l 1
 146 357 141 354 133 354 c 0
 122 354 113 363 113 374 c 0
 113 380 115 384 122 392 c 2
 300 615 l 1
EndSplineSet
EndChar

StartChar: underscore
Encoding: 95 95 63
Width: 600
Flags: W
HStem: -125 50<-12 612>
LayerCount: 2
Fore
SplineSet
612 -75 m 1
 612 -125 l 1
 -12 -125 l 1
 -12 -75 l 1
 612 -75 l 1
EndSplineSet
EndChar

StartChar: grave
Encoding: 96 96 64
Width: 600
Flags: W
HStem: 490 149
VStem: 155 165
LayerCount: 2
Fore
SplineSet
194 630 m 2
 308 530 l 1
 315 522 l 2
 320 517 320 517 320 511 c 0
 320 499 311 490 299 490 c 0
 294 490 288 493 281 499 c 2
 167 599 l 2
 158 607 155 611 155 619 c 0
 155 630 164 639 175 639 c 0
 181 639 186 636 194 630 c 2
EndSplineSet
EndChar

StartChar: a
Encoding: 97 97 65
Width: 600
Flags: W
HStem: -16 41<147.63 327.128> 0 41<460 540.993> 217 41<178.262 416.779> 390 41<184.429 381.887>
VStem: 72 41<57.3261 165.246> 419 41<41 67 112 202 237 357.084>
AnchorPoint: "above" 295 431 basechar 0
LayerCount: 2
Fore
SplineSet
125 378 m 0xbc
 125 411 266 431 299 431 c 0
 392 431 460 379 460 308 c 2
 460 41 l 1
 514 41 l 2
 532 41 541 34 541 21 c 0
 541 7 532 0 514 0 c 2
 419 0 l 1x7c
 419 67 l 1
 358 10 298 -16 228 -16 c 0
 135 -16 72 36 72 112 c 0
 72 199 158 258 283 258 c 0
 329 258 360 253 419 237 c 1
 419 308 l 2
 419 357 369 390 296 390 c 0
 216 390 173 358 144 358 c 0
 134 358 125 367 125 378 c 0xbc
419 112 m 1
 419 202 l 1
 383 211 335 217 291 217 c 0
 185 217 113 174 113 111 c 0
 113 59 158 25 227 25 c 0xbc
 298 25 352 49 419 112 c 1
EndSplineSet
EndChar

StartChar: b
Encoding: 98 98 66
Width: 600
Flags: W
HStem: -16 41<239.605 403.046> 0 41<22.0066 103> 390 41<237.951 406.026> 563 41<22.0066 103>
VStem: 22 122<0.251221 40.7501 563.251 603.75> 103 41<41 88 120.802 294.967 328 563> 500 41<120.89 292.914>
LayerCount: 2
Fore
SplineSet
144 604 m 1x76
 144 328 l 1
 194 399 250 431 324 431 c 0
 446 431 541 334 541 210 c 0
 541 85 444 -16 324 -16 c 0xb6
 251 -16 191 18 144 88 c 1
 144 0 l 1x76
 49 0 l 2
 31 0 22 7 22 21 c 0x7a
 22 34 31 41 49 41 c 2
 103 41 l 1
 103 563 l 1x76
 49 563 l 2
 31 563 22 570 22 584 c 0x7a
 22 597 31 604 49 604 c 2
 144 604 l 1x76
322 390 m 0
 223 390 144 309 144 208 c 0
 144 107 223 25 322 25 c 0
 419 25 500 107 500 205 c 0
 500 309 422 390 322 390 c 0
EndSplineSet
EndChar

StartChar: c
Encoding: 99 99 67
Width: 600
Flags: W
HStem: -16 41<219.069 421.37> 390 41<220.324 409.244>
VStem: 84 41<116.175 295.903> 470 41<271.007 340.519 376 416.993>
AnchorPoint: "above" 314 431 basechar 0
LayerCount: 2
Fore
SplineSet
535 88 m 0
 535 67 445 -16 309 -16 c 0
 178 -16 84 76 84 204 c 0
 84 336 180 431 314 431 c 0
 375 431 429 412 470 376 c 1
 470 389 l 2
 470 408 477 417 491 417 c 0
 504 417 511 408 511 389 c 2
 511 298 l 2
 511 280 504 271 491 271 c 0
 478 271 472 278 470 295 c 0
 466 348 395 390 311 390 c 0
 201 390 125 315 125 205 c 0
 125 100 202 25 311 25 c 0
 384 25 446 49 498 97 c 0
 506 105 509 107 516 107 c 0
 526 107 535 98 535 88 c 0
EndSplineSet
EndChar

StartChar: d
Encoding: 100 100 68
Width: 600
Flags: W
HStem: -16 41<198.546 366.886> 0 41<502 582.993> 390 41<198.383 368.308> 563 41<380.007 461>
VStem: 63 41<120.734 294.85> 461 41<41 89 119.708 294.76 327 563>
LayerCount: 2
Fore
SplineSet
502 604 m 1xbc
 502 41 l 1
 556 41 l 2
 574 41 583 34 583 21 c 0
 583 7 574 0 556 0 c 2
 461 0 l 1x7c
 461 89 l 1
 414 19 354 -16 279 -16 c 0
 160 -16 63 85 63 208 c 0
 63 331 160 431 279 431 c 0
 354 431 412 398 461 327 c 1
 461 563 l 1
 407 563 l 2
 389 563 380 570 380 584 c 0
 380 597 389 604 407 604 c 2
 502 604 l 1xbc
282 390 m 0
 183 390 104 309 104 208 c 0
 104 106 183 25 283 25 c 0xbc
 381 25 461 106 461 206 c 0
 461 310 383 390 282 390 c 0
EndSplineSet
EndChar

StartChar: e
Encoding: 101 101 69
Width: 600
Flags: W
HStem: -16 41<210.154 420.958> 199 41<104 478> 390 41<196.865 383.966>
LayerCount: 2
Fore
SplineSet
520 199 m 1
 104 199 l 1
 118 94 198 25 306 25 c 0
 368 25 441 47 481 79 c 0
 488 84 492 86 497 86 c 0
 507 86 516 77 516 66 c 0
 516 31 396 -16 305 -16 c 0
 170 -16 63 87 63 217 c 0
 63 338 163 431 291 431 c 0
 424 431 520 340 520 199 c 1
104 240 m 1
 478 240 l 1
 462 331 388 390 291 390 c 0
 194 390 122 332 104 240 c 1
EndSplineSet
EndChar

StartChar: f
Encoding: 102 102 70
Width: 600
Flags: W
HStem: 0 41<105.007 230 271 475.993> 376 41<115.007 230 271 486.993> 551 40<385.804 540.993> 563 41<305.324 528.543>
VStem: 230 41<41 376 417 530.17>
LayerCount: 2
Fore
SplineSet
520 551 m 0xe8
 511 551 439 563 382 563 c 0
 316 563 271 528 271 478 c 2
 271 417 l 1
 460 417 l 2
 478 417 487 410 487 397 c 0
 487 383 478 376 460 376 c 2
 271 376 l 1
 271 41 l 1
 449 41 l 2
 467 41 476 34 476 21 c 0
 476 7 466 0 449 0 c 2
 132 0 l 2
 114 0 105 7 105 21 c 0
 105 34 114 41 132 41 c 6
 230 41 l 1
 230 376 l 1
 142 376 l 2
 124 376 115 383 115 397 c 0
 115 410 124 417 142 417 c 2
 230 417 l 1
 230 478 l 2
 230 551 294 604 384 604 c 0xd8
 422 604 491 597 523 591 c 0
 535 588 541 581 541 571 c 0
 541 559 532 551 520 551 c 0xe8
EndSplineSet
EndChar

StartChar: g
Encoding: 103 103 71
Width: 600
Flags: W
HStem: -186 41<175.007 386.33> 10 41<190.483 353.046> 376 41<481 561.993> 390 41<190.261 353.697>
VStem: 63 41<139.285 304.083> 440 41<-90.8008 -22 -22 107 138.825 305.254 334 376>
LayerCount: 2
Fore
SplineSet
440 334 m 1xdc
 440 417 l 1
 535 417 l 2
 553 417 562 410 562 397 c 0
 562 383 553 376 535 376 c 2
 481 376 l 1xec
 481 -28 l 2
 481 -69 468 -100 438 -132 c 0
 403 -169 366 -186 316 -186 c 2
 202 -186 l 2
 184 -186 175 -179 175 -165 c 0
 175 -152 184 -145 202 -145 c 2
 318 -145 l 2
 386 -145 440 -90 440 -22 c 2
 440 107 l 1
 395 41 341 10 269 10 c 0
 156 10 63 105 63 221 c 0
 63 337 156 431 269 431 c 0
 342 431 395 401 440 334 c 1xdc
272 390 m 0xdc
 178 390 104 315 104 221 c 0
 104 126 179 51 272 51 c 0
 365 51 440 126 440 219 c 0
 440 316 367 390 272 390 c 0xdc
EndSplineSet
EndChar

StartChar: h
Encoding: 104 104 72
Width: 600
Flags: W
HStem: 0 41<51.0073 124 165 237.993 365.007 437 478 550.993> 390 41<236.212 393.087> 563 41<43.0066 124>
VStem: 124 41<41 296 347 563> 437 41<41 347.047>
LayerCount: 2
Fore
SplineSet
437 288 m 2
 437 348 388 390 314 390 c 0
 258 390 230 373 176 309 c 2
 165 296 l 1
 165 41 l 1
 210 41 l 2
 229 41 238 34 238 21 c 0
 238 7 228 0 210 0 c 2
 78 0 l 2
 61 0 51 7 51 21 c 0
 51 34 60 41 78 41 c 2
 124 41 l 1
 124 563 l 1
 70 563 l 2
 52 563 43 570 43 584 c 0
 43 597 52 604 70 604 c 2
 165 604 l 1
 165 347 l 1
 216 408 258 431 319 431 c 0
 412 431 478 372 478 291 c 2
 478 41 l 1
 523 41 l 2
 542 41 551 34 551 21 c 0
 551 7 542 0 523 0 c 2
 392 0 l 2
 374 0 365 7 365 21 c 0
 365 34 374 41 392 41 c 2
 437 41 l 1
 437 288 l 2
EndSplineSet
EndChar

StartChar: i
Encoding: 105 105 73
Width: 600
Flags: W
HStem: 0 41<92.0066 279 320 507.993> 376 41<134.007 279> 520 104<259 318>
VStem: 259 59<520 624> 279 41<41 376>
LayerCount: 2
Fore
SplineSet
320 417 m 1xe8
 320 41 l 1
 480 41 l 2
 499 41 508 34 508 21 c 0
 508 7 498 0 480 0 c 2
 119 0 l 2
 101 0 92 7 92 21 c 0
 92 34 101 41 119 41 c 2
 279 41 l 1
 279 376 l 1
 161 376 l 2
 143 376 134 383 134 397 c 0
 134 410 143 417 161 417 c 2
 320 417 l 1xe8
318 624 m 1xf0
 318 520 l 1
 259 520 l 1
 259 624 l 1
 318 624 l 1xf0
EndSplineSet
EndChar

StartChar: j
Encoding: 106 106 74
Width: 600
Flags: W
HStem: -186 41<147.007 369.107> 376 41<149.007 417> 520 104<355 414>
VStem: 355 59<520 624> 417 41<-97.2019 376>
LayerCount: 2
Fore
SplineSet
417 376 m 1
 176 376 l 2
 158 376 149 383 149 397 c 0
 149 410 158 417 176 417 c 2
 458 417 l 1
 458 -28 l 2
 458 -121 394 -186 303 -186 c 2
 174 -186 l 2
 156 -186 147 -179 147 -165 c 0
 147 -152 156 -145 174 -145 c 2
 302 -145 l 2
 368 -145 417 -96 417 -28 c 2
 417 376 l 1
414 624 m 1
 414 520 l 1
 355 520 l 1
 355 624 l 1
 414 624 l 1
EndSplineSet
EndChar

StartChar: k
Encoding: 107 107 75
Width: 600
Flags: W
HStem: 0 41<63.0066 144 356.007 411 469 540.993> 376 41<309.007 358 419 492.993> 563 41<63.0066 144>
VStem: 63 122<0.251221 40.7501 563.251 603.75> 144 41<41 180 229 563>
LayerCount: 2
Fore
SplineSet
185 180 m 1xe8
 185 0 l 1xe8
 90 0 l 2
 72 0 63 7 63 21 c 0xf0
 63 34 72 41 90 41 c 2
 144 41 l 1
 144 563 l 1xe8
 90 563 l 2
 72 563 63 570 63 584 c 0xf0
 63 597 72 604 90 604 c 2
 185 604 l 1
 185 229 l 1
 358 376 l 1
 336 376 l 2
 318 376 309 383 309 397 c 0
 309 410 318 417 336 417 c 2
 466 417 l 2
 484 417 493 410 493 397 c 0
 493 383 484 376 466 376 c 2
 419 376 l 1
 262 245 l 1
 469 41 l 1
 514 41 l 2
 532 41 541 34 541 21 c 0
 541 7 532 0 514 0 c 2
 383 0 l 2
 365 0 356 7 356 21 c 0
 356 34 365 41 383 41 c 2
 411 41 l 1
 231 219 l 1
 185 180 l 1xe8
EndSplineSet
EndChar

StartChar: l
Encoding: 108 108 76
Width: 600
Flags: W
HStem: 0 41<92.0066 279 320 507.993> 563 41<135.007 279>
VStem: 279 41<41 563>
LayerCount: 2
Fore
SplineSet
320 604 m 1
 320 41 l 1
 480 41 l 2
 499 41 508 34 508 21 c 0
 508 7 498 0 480 0 c 2
 119 0 l 2
 101 0 92 7 92 21 c 0
 92 34 101 41 119 41 c 2
 279 41 l 1
 279 563 l 1
 162 563 l 2
 144 563 135 570 135 584 c 0
 135 597 144 604 162 604 c 2
 320 604 l 1
EndSplineSet
EndChar

StartChar: m
Encoding: 109 109 77
Width: 600
Flags: W
HStem: 0 41<11.0066 72 112 172.993 322 382.993 532 592.993> 376 41<11.0066 72> 390 41<163.546 260.95 371.534 472.326>
VStem: 11 101<376.251 416.75> 72 40<41 308 365 376> 282 101<0.251221 40.7501> 282 40<41 308> 492 101<0.251221 40.7501> 492 40<41 369.541>
LayerCount: 2
Fore
SplineSet
112 417 m 1xc8
 112 365 l 1
 146 413 175 431 217 431 c 0
 260 431 292 408 314 360 c 1
 353 410 386 431 427 431 c 0
 485 431 532 382 532 323 c 2
 532 41 l 1xa880
 566 41 l 2
 584 41 593 34 593 21 c 0xa1
 593 7 584 0 566 0 c 2
 492 0 l 1
 492 319 l 2
 492 357 461 390 426 390 c 0
 390 390 360 366 322 308 c 1
 322 41 l 1xa280
 356 41 l 2
 374 41 383 34 383 21 c 0xa4
 383 7 374 0 356 0 c 2
 282 0 l 1
 282 316 l 2
 282 355 251 390 217 390 c 0
 182 390 150 365 112 308 c 1
 112 41 l 1xaa
 146 41 l 2
 164 41 173 34 173 21 c 0
 173 7 163 0 146 0 c 2
 37 0 l 2
 20 0 11 7 11 21 c 0xb0
 11 34 20 41 38 41 c 2
 72 41 l 1
 72 376 l 1xc8
 38 376 l 2
 20 376 11 383 11 397 c 0xd0
 11 410 20 417 38 417 c 2
 112 417 l 1xc8
EndSplineSet
EndChar

StartChar: n
Encoding: 110 110 78
Width: 600
Flags: W
HStem: 0 41<53.0066 126 167 238.993 378.007 439 480 540.993> 376 41<65.0066 126> 390 41<240.775 396.13>
VStem: 65 102<376.251 416.75> 126 41<41 294 348 376> 439 41<41 348.734>
LayerCount: 2
Fore
SplineSet
319 390 m 0xac
 230 390 189 322 167 294 c 1
 167 41 l 1
 212 41 l 2
 230 41 239 34 239 21 c 0
 239 7 230 0 212 0 c 2
 81 0 l 2
 62 0 53 7 53 21 c 0
 53 34 62 41 81 41 c 2
 126 41 l 1
 126 376 l 1xcc
 92 376 l 2
 74 376 65 383 65 397 c 0xd4
 65 410 74 417 92 417 c 2
 167 417 l 1xcc
 167 348 l 1
 225 412 261 431 323 431 c 0
 412 431 480 372 480 295 c 2
 480 41 l 1
 514 41 l 2
 532 41 541 34 541 21 c 0
 541 7 532 0 514 0 c 2
 405 0 l 2
 387 0 378 7 378 21 c 0
 378 34 387 41 405 41 c 2
 439 41 l 1
 439 288 l 2
 439 344 394 390 319 390 c 0xac
EndSplineSet
EndChar

StartChar: o
Encoding: 111 111 79
Width: 600
Flags: W
HStem: -16 41<210.671 388.897> 390 41<210.671 389.762>
VStem: 72 41<124.806 290.386> 487 41<123.612 292.179>
LayerCount: 2
Fore
SplineSet
300 431 m 0
 428 431 528 332 528 205 c 0
 528 83 426 -16 300 -16 c 0
 173 -16 72 83 72 208 c 0
 72 331 173 431 300 431 c 0
300 390 m 0
 196 390 113 309 113 208 c 0
 113 106 196 25 300 25 c 0
 403 25 487 106 487 205 c 0
 487 310 405 390 300 390 c 0
EndSplineSet
EndChar

StartChar: p
Encoding: 112 112 80
Width: 600
Flags: W
HStem: -186 41<22.0066 103 144 268.993> 10 41<236.391 407.831> 376 41<22.0066 103> 390 41<236.299 408.707>
VStem: 103 41<-145 106 139.475 301.85 335 376> 500 41<140.72 300.445>
LayerCount: 2
Fore
SplineSet
144 417 m 1xec
 144 335 l 1
 197 404 247 431 323 431 c 0xdc
 447 431 541 340 541 221 c 0
 541 102 446 10 323 10 c 0
 246 10 190 40 144 106 c 1
 144 -145 l 1
 242 -145 l 2
 260 -145 269 -152 269 -165 c 0
 269 -179 260 -186 242 -186 c 2
 49 -186 l 2
 31 -186 22 -179 22 -165 c 0
 22 -152 31 -145 49 -145 c 2
 103 -145 l 1
 103 376 l 1
 49 376 l 2
 31 376 22 383 22 397 c 0
 22 410 31 417 49 417 c 2
 144 417 l 1xec
322 390 m 0
 223 390 144 315 144 221 c 0
 144 126 223 51 322 51 c 0
 420 51 500 126 500 219 c 0
 500 316 423 390 322 390 c 0
EndSplineSet
EndChar

StartChar: q
Encoding: 113 113 81
Width: 600
Flags: W
HStem: -186 41<336.007 461 502 582.993> 10 41<195.726 368.129> 376 41<502 582.993> 390 41<195.937 369.936>
VStem: 63 41<141.045 300.77> 461 41<-145 106 138.825 301.643 335 376>
LayerCount: 2
Fore
SplineSet
461 335 m 1xdc
 461 417 l 1
 556 417 l 2
 574 417 583 410 583 397 c 0
 583 383 574 376 556 376 c 2
 502 376 l 1xec
 502 -145 l 1
 556 -145 l 2
 574 -145 583 -152 583 -165 c 0
 583 -179 574 -186 556 -186 c 2
 363 -186 l 2
 345 -186 336 -179 336 -165 c 0
 336 -152 345 -145 363 -145 c 2
 461 -145 l 1
 461 106 l 1
 415 40 359 10 281 10 c 0
 158 10 63 102 63 221 c 0
 63 340 158 431 282 431 c 0
 359 431 414 401 461 335 c 1xdc
282 390 m 0xdc
 182 390 104 316 104 221 c 0
 104 126 182 51 282 51 c 0
 381 51 461 126 461 219 c 0
 461 316 383 390 282 390 c 0xdc
EndSplineSet
EndChar

StartChar: r
Encoding: 114 114 82
Width: 600
Flags: W
HStem: 0 41<84.0073 207 248 453.993> 376 41<105.007 207> 386 41<371.957 489.293>
VStem: 207 41<41 262 315 376>
LayerCount: 2
Fore
SplineSet
520 344 m 0xb0
 503 344 481 386 438 386 c 0xb0
 393 386 358 363 248 262 c 1
 248 41 l 1
 427 41 l 2
 444 41 454 33 454 20 c 0
 454 8 444 0 427 0 c 2
 111 0 l 2
 94 0 84 8 84 21 c 0
 84 33 94 41 111 41 c 2
 207 41 l 1
 207 376 l 1
 132 376 l 2
 115 376 105 384 105 397 c 0
 105 409 115 417 132 417 c 2
 248 417 l 1xd0
 248 315 l 1
 341 399 390 427 441 427 c 0
 501 427 541 378 541 365 c 0
 541 353 532 344 520 344 c 0xb0
EndSplineSet
EndChar

StartChar: s
Encoding: 115 115 83
Width: 600
Flags: W
HStem: -16 41<194.734 398.256> 390 41<207.276 394.257>
VStem: 103 41<0.0065918 38 66.6149 136.993> 124 45<277.439 357.759> 432 41<316 356.206 385 416.992> 452 45<68.8475 165.207>
LayerCount: 2
Fore
SplineSet
452 117 m 0xe4
 452 253 124 157 124 318 c 0
 124 383 197 431 295 431 c 0
 352 431 397 416 432 385 c 1
 432 389 l 2
 432 406 440 417 453 417 c 0
 466 417 473 408 473 389 c 2
 473 320 l 2
 473 302 466 293 453 293 c 0
 441 293 434 300 432 316 c 0
 427 361 375 390 299 390 c 0
 225 390 169 358 169 315 c 0xd8
 169 228 352 268 447 206 c 0
 478 185 497 151 497 116 c 0
 497 40 414 -16 301 -16 c 0
 236 -16 186 1 144 38 c 1
 144 27 l 2xe4
 144 9 137 0 124 0 c 0xd0
 110 0 103 9 103 27 c 2
 103 110 l 2xe0
 103 128 110 137 124 137 c 0xd0
 136 137 144 128 144 115 c 2
 144 108 l 2
 144 62 213 25 298 25 c 0
 386 25 452 64 452 117 c 0xe4
EndSplineSet
EndChar

StartChar: t
Encoding: 116 116 84
Width: 600
Flags: W
HStem: -16 41<218.542 421.07> 376 41<43.0066 145 186 432.993> 543 20G<159 173>
VStem: 145 41<56.1406 376 417 562.993>
LayerCount: 2
Fore
SplineSet
186 417 m 1
 406 417 l 2
 424 417 433 410 433 397 c 0
 433 383 424 376 406 376 c 2
 186 376 l 1
 186 109 l 2
 186 58 229 25 298 25 c 0
 354 25 425 42 464 65 c 0
 472 70 475 71 480 71 c 0
 490 71 499 61 499 51 c 0
 499 22 385 -16 300 -16 c 0
 206 -16 145 32 145 107 c 2
 145 376 l 1
 71 376 l 2
 52 376 43 383 43 397 c 0
 43 410 52 417 71 417 c 2
 145 417 l 1
 145 536 l 2
 145 554 152 563 166 563 c 0
 180 563 186 555 186 536 c 2
 186 417 l 1
EndSplineSet
EndChar

StartChar: u
Encoding: 117 117 85
Width: 600
Flags: W
HStem: -16 41<196.316 349.205> 0 41<480 540.993> 376 41<43.0066 124 337.007 439>
VStem: 124 41<58.2305 376> 439 41<41 66 115 376> 439 102<0.251221 40.7501>
LayerCount: 2
Fore
SplineSet
439 0 m 1x74
 439 66 l 1
 384 12 323 -16 257 -16 c 0
 177 -16 124 36 124 115 c 2
 124 376 l 1
 70 376 l 2
 52 376 43 383 43 397 c 0
 43 410 52 417 70 417 c 2
 165 417 l 1
 165 115 l 2
 165 65 205 25 256 25 c 0xb8
 323 25 384 55 439 115 c 1
 439 376 l 1
 365 376 l 2
 346 376 337 383 337 397 c 0
 337 410 346 417 365 417 c 2
 480 417 l 1
 480 41 l 1x78
 514 41 l 2
 532 41 541 34 541 21 c 0
 541 7 532 0 514 0 c 2
 439 0 l 1x74
EndSplineSet
EndChar

StartChar: v
Encoding: 118 118 86
Width: 600
Flags: W
HStem: 0 41<293 312> 376 41<30.0066 98 143 235.993 364.007 459 502 569.993>
LayerCount: 2
Fore
SplineSet
336 0 m 1
 266 0 l 1
 98 376 l 1
 57 376 l 2
 39 376 30 383 30 397 c 0
 30 410 39 417 57 417 c 2
 208 417 l 2
 227 417 236 410 236 397 c 0
 236 383 227 376 208 376 c 2
 143 376 l 1
 293 41 l 1
 312 41 l 1
 459 376 l 1
 391 376 l 2
 373 376 364 383 364 397 c 0
 364 410 373 417 391 417 c 2
 543 417 l 2
 561 417 570 410 570 397 c 0
 570 383 561 376 543 376 c 2
 502 376 l 1
 336 0 l 1
EndSplineSet
EndChar

StartChar: w
Encoding: 119 119 87
Width: 600
Flags: W
HStem: 0 21G<155.532 217.873 383.973 445.415> 376 41<30.0066 76 115 194.993 405.007 482 524 569.993>
LayerCount: 2
Fore
SplineSet
441 0 m 1
 391 0 l 1
 300 259 l 1
 211 0 l 1
 160 0 l 1
 76 376 l 1
 57 376 l 2
 39 376 30 383 30 397 c 0
 30 410 39 417 57 417 c 2
 168 417 l 2
 186 417 195 410 195 397 c 0
 195 383 186 376 168 376 c 2
 115 376 l 1
 187 56 l 1
 273 311 l 1
 324 311 l 1
 413 56 l 1
 482 376 l 1
 432 376 l 2
 414 376 405 383 405 397 c 0
 405 410 414 417 432 417 c 2
 543 417 l 2
 561 417 570 410 570 397 c 0
 570 383 561 376 543 376 c 2
 524 376 l 1
 441 0 l 1
EndSplineSet
EndChar

StartChar: x
Encoding: 120 120 88
Width: 600
Flags: W
HStem: 0 41<51.0066 87 143 237.993 363.007 455 513 548.993> 376 41<74.0066 108 166 238.993 362.007 437 492 525.993>
LayerCount: 2
Fore
SplineSet
329 219 m 1
 513 41 l 1
 522 41 l 2
 540 41 549 34 549 21 c 0
 549 7 540 0 522 0 c 2
 390 0 l 2
 372 0 363 7 363 21 c 0
 363 34 372 41 390 41 c 2
 455 41 l 1
 300 190 l 1
 143 41 l 1
 211 41 l 2
 229 41 238 34 238 21 c 0
 238 7 229 0 211 0 c 2
 78 0 l 2
 60 0 51 7 51 21 c 0
 51 34 60 41 78 41 c 2
 87 41 l 1
 271 219 l 1
 108 376 l 1
 101 376 l 2
 83 376 74 383 74 397 c 0
 74 410 83 417 101 417 c 2
 212 417 l 2
 230 417 239 411 239 397 c 0
 239 383 230 376 212 376 c 2
 166 376 l 1
 300 246 l 1
 437 376 l 1
 389 376 l 2
 371 376 362 383 362 397 c 0
 362 410 371 417 389 417 c 2
 499 417 l 2
 517 417 526 410 526 397 c 0
 526 383 517 376 499 376 c 2
 492 376 l 1
 329 219 l 1
EndSplineSet
EndChar

StartChar: y
Encoding: 121 121 89
Width: 600
Flags: W
HStem: -186 41<57.0066 211 252 343.993> 376 41<51.0066 94 141 219.993 385.007 466 508 548.993>
LayerCount: 2
Fore
SplineSet
282 0 m 1
 94 376 l 1
 78 376 l 2
 60 376 51 383 51 397 c 0
 51 410 60 417 78 417 c 2
 193 417 l 2
 211 417 220 410 220 397 c 0
 220 383 211 376 193 376 c 2
 141 376 l 1
 305 45 l 1
 466 376 l 1
 412 376 l 2
 394 376 385 383 385 397 c 0
 385 410 394 417 412 417 c 2
 522 417 l 2
 540 417 549 410 549 397 c 0
 549 383 540 376 522 376 c 2
 508 376 l 1
 252 -145 l 1
 317 -145 l 2
 335 -145 344 -152 344 -165 c 0
 344 -179 335 -186 317 -186 c 2
 84 -186 l 2
 66 -186 57 -179 57 -165 c 0
 57 -152 66 -145 84 -145 c 2
 211 -145 l 1
 282 0 l 1
EndSplineSet
EndChar

StartChar: z
Encoding: 122 122 90
Width: 600
Flags: W
HStem: 0 41<171 448> 376 41<165 416>
VStem: 124 41<294.007 376> 448 41<41 123.993>
LayerCount: 2
Fore
SplineSet
474 417 m 1
 474 381 l 1
 171 41 l 1
 448 41 l 1
 448 97 l 2
 448 115 455 124 469 124 c 0
 482 124 489 115 489 97 c 2
 489 0 l 1
 115 0 l 1
 115 36 l 1
 416 376 l 1
 165 376 l 1
 165 321 l 2
 165 303 158 294 145 294 c 0
 131 294 124 303 124 321 c 2
 124 417 l 5
 474 417 l 1
EndSplineSet
EndChar

StartChar: braceleft
Encoding: 123 123 91
Width: 600
Flags: W
HStem: 584 20G<351.5 386.5>
VStem: 281 41<-68.847 204.327 275.901 548.62>
LayerCount: 2
Fore
SplineSet
403 584 m 0
 403 550 322 579 322 499 c 2
 322 326 l 2
 322 285 311 264 278 240 c 1
 311 216 322 195 322 154 c 2
 322 -19 l 2
 322 -100 403 -69 403 -104 c 0
 403 -116 394 -124 379 -124 c 0
 324 -124 281 -78 281 -19 c 2
 281 154 l 2
 281 236 197 204 197 240 c 0
 197 275 281 245 281 326 c 2
 281 499 l 2
 281 558 324 604 379 604 c 0
 394 604 403 596 403 584 c 0
EndSplineSet
EndChar

StartChar: bar
Encoding: 124 124 92
Width: 600
Flags: W
HStem: 584 20G<293.5 306.5>
VStem: 280 40<-123.993 603.993>
LayerCount: 2
Fore
SplineSet
320 577 m 2
 320 -97 l 2
 320 -115 313 -124 300 -124 c 0
 287 -124 280 -115 280 -97 c 2
 280 577 l 2
 280 595 287 604 300 604 c 0
 313 604 320 595 320 577 c 2
EndSplineSet
EndChar

StartChar: braceright
Encoding: 125 125 93
Width: 600
Flags: W
HStem: 584 20G<213.5 248.5>
VStem: 278 41<-68.6196 204.099 275.673 548.847>
LayerCount: 2
Fore
SplineSet
197 -104 m 0
 197 -70 278 -99 278 -19 c 2
 278 154 l 2
 278 195 289 216 322 240 c 1
 289 264 278 285 278 326 c 2
 278 499 l 2
 278 580 197 549 197 584 c 0
 197 596 206 604 221 604 c 0
 276 604 319 558 319 499 c 2
 319 326 l 2
 319 244 403 276 403 240 c 0
 403 205 319 235 319 154 c 2
 319 -19 l 2
 319 -78 276 -124 221 -124 c 0
 206 -124 197 -116 197 -104 c 0
EndSplineSet
EndChar

StartChar: asciitilde
Encoding: 126 126 94
Width: 600
Flags: W
HStem: 212 41<342.999 431.323> 307 41<166.909 259.993>
LayerCount: 2
Fore
SplineSet
386 253 m 0
 438 253 466 330 488 330 c 0
 499 330 508 321 508 311 c 0
 508 292 444 212 389 212 c 0
 318 212 266 307 212 307 c 0
 155 307 143 230 111 230 c 0
 101 230 92 239 92 249 c 0
 92 261 144 348 212 348 c 0
 282 348 345 253 386 253 c 0
EndSplineSet
EndChar

StartChar: exclamdown
Encoding: 161 161 96
Width: 600
Flags: W
HStem: 317 100<249.176 351.141>
VStem: 240 120<326.82 407.18> 261 79<-211.819 -35> 280 41<38.2222 192.993>
LayerCount: 2
Fore
SplineSet
262 -161 m 0xa0
 280 165 l 1
 281 185 287 193 301 193 c 0
 314 193 320 184 321 165 c 2x90
 339 -161 l 1
 340 -168 340 -173 340 -177 c 0
 340 -199 323 -216 300 -216 c 0
 278 -216 261 -199 261 -177 c 0
 261 -175 262 -169 262 -161 c 0xa0
307 317 m 2
 294 317 l 2
 264 317 240 339 240 367 c 0
 240 395 264 417 294 417 c 2
 307 417 l 2
 337 417 360 395 360 367 c 0xc0
 360 339 337 317 307 317 c 2
EndSplineSet
EndChar

StartChar: cent
Encoding: 162 162 97
Width: 600
Flags: W
HStem: -13 21G<294 307.5> 127 38<226.109 280 321 400.035> 458 39<321 392.73>
VStem: 113 41<234.894 388.567> 280 41<-12.9934 127 497 629.993> 426 40<364.007 426.944>
LayerCount: 2
Fore
SplineSet
113 311 m 0
 113 348 132 464 280 496 c 1
 280 603 l 2
 280 621 287 630 301 630 c 0
 314 630 321 621 321 603 c 2
 321 497 l 1
 359 497 400 483 425 461 c 1
 428 472 435 478 445 478 c 0
 458 478 466 469 466 453 c 2
 466 392 l 2
 466 373 459 364 446 364 c 0
 434 364 428 371 426 387 c 0
 420 430 375 458 311 458 c 0
 220 458 154 397 154 311 c 0
 154 227 219 165 307 165 c 0
 407 165 423 215 450 215 c 0
 461 215 469 207 469 195 c 0
 469 168 388 130 321 127 c 1
 321 14 l 2
 321 -4 314 -13 301 -13 c 0
 287 -13 280 -4 280 14 c 2
 280 127 l 1
 183 138 113 216 113 311 c 0
EndSplineSet
EndChar

StartChar: sterling
Encoding: 163 163 98
Width: 600
Flags: W
HStem: 0 41<86.0066 147.781 182 468.531> 273 41<63.0066 184 234 350.993> 537 41<239.627 359.636>
VStem: 157 41<333.898 496.231> 198 41<109.273 218.822 216.844 220.801 220.801 273>
LayerCount: 2
Fore
SplineSet
198 435 m 0
 198 411 200 403 225 314 c 1
 324 314 l 2
 342 314 351 307 351 293 c 0
 351 280 342 273 324 273 c 2
 234 273 l 1
 237 252 239 234 239 216 c 0
 239 148 219 87 182 41 c 1
 434 41 l 2
 489 41 469 115 500 115 c 0
 512 115 520 106 520 93 c 0
 520 42 482 0 436 0 c 2
 113 0 l 2
 95 0 86 7 86 21 c 0
 86 32 94 40 108 40 c 0
 155 42 198 128 198 220 c 0
 198 237 196 260 194 273 c 1
 90 273 l 2
 72 273 63 280 63 294 c 0
 63 307 72 314 90 314 c 2
 184 314 l 1
 163 380 157 409 157 435 c 0
 157 514 220 578 298 578 c 0
 375 578 427 513 427 495 c 0
 427 486 416 476 407 476 c 0
 387 476 368 537 299 537 c 0
 245 537 198 490 198 435 c 0
EndSplineSet
EndChar

StartChar: currency
Encoding: 164 164 99
Width: 600
Flags: W
HStem: 127 41<231.099 369.001> 417 41<230.513 369.928>
VStem: 135 41<223.01 362.209> 424 42<222.891 361.868>
LayerCount: 2
Fore
SplineSet
199 162 m 1
 142 106 l 1
 134 97 130 95 124 95 c 0
 112 95 103 104 103 115 c 0
 103 122 106 127 114 135 c 2
 170 191 l 1
 146 223 135 256 135 292 c 0
 135 329 147 366 169 394 c 1
 114 450 l 1
 105 458 103 462 103 469 c 0
 103 480 112 489 123 489 c 0
 130 489 134 486 142 478 c 2
 198 423 l 1
 227 446 263 458 300 458 c 0
 337 458 374 445 402 423 c 1
 457 478 l 2
 466 487 470 489 477 489 c 0
 488 489 497 480 497 468 c 0
 497 461 496 459 487 450 c 2
 432 394 l 1
 455 362 466 329 466 293 c 0
 466 256 454 220 431 191 c 1
 486 135 l 2
 492 129 496 121 496 115 c 0
 496 104 487 95 476 95 c 0
 470 95 464 98 457 106 c 2
 401 162 l 1
 369 138 337 127 300 127 c 0
 263 127 229 139 199 162 c 1
300 417 m 0
 232 417 176 361 176 293 c 0
 176 224 232 168 300 168 c 0
 367 168 424 224 424 291 c 0
 424 361 369 417 300 417 c 0
EndSplineSet
EndChar

StartChar: yen
Encoding: 165 165 100
Width: 600
Flags: W
HStem: 0 41<167.007 280 321 433.993> 141 37<128.004 280 321 472.996> 238 37<128.004 266 334 472.996> 522 41<51.0066 102 149 214.993 385.007 451 498 548.993>
VStem: 280 41<41 141 178 238>
LayerCount: 2
Fore
SplineSet
321 238 m 1
 321 178 l 1
 452 178 l 2
 467 178 473 173 473 160 c 0
 473 146 467 141 452 141 c 2
 321 141 l 1
 321 41 l 1
 407 41 l 2
 425 41 434 34 434 21 c 0
 434 7 425 0 407 0 c 2
 194 0 l 2
 176 0 167 7 167 21 c 0
 167 34 176 41 194 41 c 2
 280 41 l 1
 280 141 l 1
 150 141 l 2
 134 141 128 146 128 160 c 0
 128 173 134 178 150 178 c 2
 280 178 l 1
 280 238 l 1
 150 238 l 2
 134 238 128 243 128 257 c 0
 128 270 133 275 150 275 c 2
 266 275 l 1
 102 522 l 1
 78 522 l 2
 60 522 51 529 51 543 c 0
 51 556 60 563 78 563 c 2
 188 563 l 2
 206 563 215 556 215 543 c 0
 215 529 206 522 188 522 c 2
 149 522 l 1
 300 295 l 1
 451 522 l 1
 412 522 l 2
 394 522 385 529 385 543 c 0
 385 556 394 563 412 563 c 2
 522 563 l 2
 540 563 549 556 549 543 c 0
 549 529 540 522 522 522 c 2
 498 522 l 1
 334 275 l 1
 452 275 l 2
 468 275 473 270 473 257 c 0
 473 243 468 238 452 238 c 2
 321 238 l 1
EndSplineSet
EndChar

StartChar: brokenbar
Encoding: 166 166 101
Width: 600
Flags: W
HStem: 584 20G<293.5 306.5>
VStem: 280 40<-123.993 196.993 283.007 603.993>
LayerCount: 2
Fore
SplineSet
320 577 m 2
 320 310 l 2
 320 292 313 283 300 283 c 0
 287 283 280 292 280 310 c 2
 280 577 l 2
 280 595 287 604 300 604 c 0
 313 604 320 595 320 577 c 2
320 170 m 2
 320 -97 l 2
 320 -115 313 -124 300 -124 c 0
 287 -124 280 -115 280 -97 c 2
 280 170 l 2
 280 188 287 197 300 197 c 0
 313 197 320 188 320 170 c 2
EndSplineSet
EndChar

StartChar: section
Encoding: 167 167 102
Width: 600
Flags: W
HStem: -62 40<146 376.524> 563 40<226.473 455>
VStem: 66 43<316.998 389.25> 105 41<-22 72.9934> 156 40<441.959 534.61> 404 41<4.63053 98.4231> 455 41<470.007 563> 491 43<155.051 226.676>
LayerCount: 2
Fore
SplineSet
534 185 m 0xcd
 534 138 498 109 432 101 c 1
 441 86 445 71 445 52 c 0
 445 -13 388 -62 312 -62 c 2
 105 -62 l 1
 105 49 l 2
 105 64 112 73 126 73 c 0
 139 73 146 64 146 49 c 2
 146 -22 l 1xdd
 311 -22 l 2
 364 -22 404 11 404 53 c 0
 404 88 369 121 273 175 c 2
 208 211 l 2
 110 266 66 312 66 358 c 0
 66 403 107 436 169 441 c 1
 160 456 156 469 156 487 c 0
 156 550 215 603 284 603 c 2
 496 603 l 1
 496 494 l 2
 496 479 489 470 476 470 c 0
 463 470 455 479 455 494 c 2
 455 563 l 1xee
 287 563 l 2
 238 563 196 528 196 487 c 0
 196 450 226 424 345 358 c 2
 401 327 l 2
 495 276 534 234 534 185 c 0xcd
400 139 m 1
 417 148 491 142 491 184 c 0
 491 213 449 255 384 290 c 2
 320 326 l 2
 256 361 228 379 201 403 c 1
 195 402 195 402 183 402 c 0
 141 402 109 383 109 357 c 0xed
 109 328 151 290 234 243 c 2
 296 208 l 2
 351 177 382 157 400 139 c 1
EndSplineSet
EndChar

StartChar: dieresis
Encoding: 168 168 103
Width: 600
Flags: W
HStem: 511 100<149.396 230.604 370.396 451.604>
VStem: 140 100<520.396 601.544> 361 100<520.396 601.544>
LayerCount: 2
Fore
SplineSet
190 611 m 0
 218 611 240 588 240 560 c 0
 240 534 217 511 190 511 c 0
 163 511 140 534 140 561 c 0
 140 588 163 611 190 611 c 0
411 611 m 0
 439 611 461 588 461 560 c 0
 461 534 438 511 411 511 c 0
 384 511 361 534 361 561 c 0
 361 588 384 611 411 611 c 0
EndSplineSet
EndChar

StartChar: copyright
Encoding: 169 169 104
Width: 600
Flags: W
HStem: -15 41<197.407 398.859> 111 36<237.8 365.979> 414 36<232.312 359.076> 537 41<199.204 400.245>
VStem: 3 41<181.816 382.456> 153 36<196.837 369.073> 381 36<357 391.988 421 442.994> 555 41<180.382 382.245>
LayerCount: 2
Fore
SplineSet
425 185 m 0
 425 170 376 111 302 111 c 0
 223 111 153 181 153 260 c 2
 153 305 l 2
 153 385 216 450 292 450 c 0
 324 450 346 443 381 421 c 1
 381 435 388 443 399 443 c 0
 410 443 417 435 417 423 c 2
 417 358 l 2
 417 346 410 338 399 338 c 0
 389 338 383 345 381 357 c 0
 378 388 338 414 293 414 c 0
 235 414 189 364 189 302 c 2
 189 263 l 2
 189 200 240 147 302 147 c 0
 374 147 385 202 408 202 c 0
 417 202 425 194 425 185 c 0
300 578 m 0
 463 578 596 445 596 282 c 0
 596 116 464 -15 296 -15 c 0
 136 -15 3 120 3 282 c 0
 3 445 136 578 300 578 c 0
300 537 m 0
 159 537 44 423 44 282 c 0
 44 142 159 26 296 26 c 0
 441 26 555 139 555 282 c 0
 555 422 440 537 300 537 c 0
EndSplineSet
EndChar

StartChar: ordfeminine
Encoding: 170 170 105
Width: 600
Flags: W
HStem: 279 37<198.185 339.498 398 446.993> 420 35<214.837 359.92> 537 37<212.359 351.698>
VStem: 155 37<325.173 397.3> 361 37<350 409 446 525.69>
LayerCount: 2
Fore
SplineSet
189 533 m 0
 189 561 280 574 298 574 c 0
 356 574 398 539 398 490 c 2
 398 319 l 1
 424 319 l 2
 439 319 447 312 447 300 c 0
 447 289 438 282 424 282 c 2
 361 282 l 1
 361 308 l 1
 320 286 293 279 254 279 c 0
 195 279 155 311 155 358 c 0
 155 415 211 455 288 455 c 0
 311 455 331 452 361 446 c 1
 361 490 l 2
 361 518 335 537 296 537 c 0
 260 537 216 514 206 514 c 0
 197 514 189 523 189 533 c 0
361 350 m 1
 361 409 l 1
 345 415 313 420 290 420 c 0
 233 420 192 393 192 356 c 0
 192 332 217 316 254 316 c 0
 292 316 326 327 361 350 c 1
EndSplineSet
EndChar

StartChar: guillemotleft
Encoding: 171 171 106
Width: 600
Flags: W
HStem: 0 21G<289 297.5 518 526.5> 397 20G<288.5 297.5 517.5 526.5>
LayerCount: 2
Fore
SplineSet
63 209 m 1
 271 406 l 2
 279 414 285 417 292 417 c 0
 303 417 312 408 312 397 c 0
 312 390 311 388 301 377 c 2
 158 209 l 1
 301 40 l 2
 311 29 312 27 312 20 c 0
 312 9 303 0 292 0 c 0
 286 0 279 4 271 11 c 2
 63 209 l 1
292 209 m 1
 500 406 l 2
 508 414 514 417 521 417 c 0
 532 417 541 408 541 397 c 0
 541 390 540 388 530 377 c 2
 387 209 l 1
 530 40 l 2
 540 29 541 27 541 20 c 0
 541 9 532 0 521 0 c 0
 515 0 508 4 500 11 c 2
 292 209 l 1
EndSplineSet
EndChar

StartChar: logicalnot
Encoding: 172 172 107
Width: 600
Flags: W
HStem: 397 41<72.0066 487>
VStem: 487 41<168.007 397>
LayerCount: 2
Fore
SplineSet
487 397 m 1
 99 397 l 2
 81 397 72 404 72 418 c 0
 72 431 81 438 99 438 c 2
 528 438 l 1
 528 195 l 2
 528 177 521 168 507 168 c 0
 494 168 487 177 487 195 c 2
 487 397 l 1
EndSplineSet
EndChar

StartChar: registered
Encoding: 174 174 109
Width: 600
Flags: W
HStem: -15 41<197.407 398.859> 120 36<152.006 197 233 288.994 431 465.994> 258 36<233 296> 407 36<152.006 197 233 366.781> 537 41<199.204 400.245>
VStem: 3 41<181.816 382.456> 197 36<156 258 294 407> 380 36<311.864 391.936> 555 41<180.382 382.245>
LayerCount: 2
Fore
SplineSet
233 258 m 1
 233 156 l 1
 269 156 l 2
 281 156 289 149 289 138 c 0
 289 127 281 120 269 120 c 2
 173 120 l 2
 160 120 152 127 152 138 c 0
 152 149 160 156 173 156 c 2
 197 156 l 1
 197 407 l 1
 173 407 l 2
 160 407 152 414 152 425 c 0
 152 436 160 443 173 443 c 2
 311 443 l 2
 372 443 416 404 416 350 c 0
 416 312 389 281 346 269 c 1
 379 243 390 228 431 156 c 1
 446 156 l 2
 458 156 466 149 466 138 c 0
 466 127 458 120 446 120 c 2
 407 120 l 1
 370 198 331 246 296 258 c 1
 233 258 l 1
233 294 m 1
 289 294 l 2
 345 294 380 316 380 352 c 0
 380 384 351 407 310 407 c 2
 233 407 l 1
 233 294 l 1
300 578 m 0
 463 578 596 445 596 282 c 0
 596 116 464 -15 296 -15 c 0
 136 -15 3 120 3 282 c 0
 3 445 136 578 300 578 c 0
300 537 m 0
 159 537 44 423 44 282 c 0
 44 142 159 26 296 26 c 0
 441 26 555 139 555 282 c 0
 555 422 440 537 300 537 c 0
EndSplineSet
EndChar

StartChar: macron
Encoding: 175 175 110
Width: 600
Flags: W
HStem: 536 40<155.007 444.993>
VStem: 155 290<536.25 575.75>
LayerCount: 2
Fore
SplineSet
418 536 m 2
 182 536 l 2
 164 536 155 543 155 556 c 0
 155 569 164 576 182 576 c 2
 418 576 l 2
 436 576 445 569 445 556 c 0
 445 543 436 536 418 536 c 2
EndSplineSet
EndChar

StartChar: degree
Encoding: 176 176 111
Width: 600
Flags: W
HStem: 346 41<237.135 362.432> 595 41<237.785 362.432>
VStem: 155 41<429.044 553.908> 404 41<428.568 553.432>
LayerCount: 2
Fore
SplineSet
300 636 m 0
 380 636 445 571 445 491 c 0
 445 411 380 346 300 346 c 0
 219 346 155 411 155 493 c 0
 155 571 221 636 300 636 c 0
300 595 m 0
 243 595 196 548 196 492 c 0
 196 434 242 387 300 387 c 0
 357 387 404 434 404 491 c 0
 404 548 357 595 300 595 c 0
EndSplineSet
EndChar

StartChar: plusminus
Encoding: 177 177 112
Width: 600
Flags: W
HStem: 0 40<72.0066 527.993> 301 40<72.0066 279 320 527.993>
VStem: 279 41<112.007 301 341 528.993>
LayerCount: 2
Fore
SplineSet
320 301 m 1
 320 139 l 2
 320 121 313 112 300 112 c 0
 286 112 279 121 279 139 c 2
 279 301 l 1
 99 301 l 2
 81 301 72 308 72 321 c 0
 72 334 81 341 99 341 c 2
 279 341 l 1
 279 502 l 2
 279 520 286 529 300 529 c 0
 313 529 320 520 320 502 c 2
 320 341 l 1
 500 341 l 2
 519 341 528 335 528 321 c 0
 528 308 519 301 500 301 c 2
 320 301 l 1
99 40 m 2
 501 40 l 2
 519 40 528 33 528 20 c 0
 528 7 519 0 501 0 c 2
 99 0 l 2
 81 0 72 7 72 20 c 0
 72 33 81 40 99 40 c 2
EndSplineSet
EndChar

StartChar: twosuperior
Encoding: 178 178 113
Width: 600
Flags: W
HStem: 259 59<369.005 405> 259 36<219 369> 576 36<240.161 347.852>
VStem: 186 35<508.006 556.66> 367 36<295 317.994 465.95 556.411>
LayerCount: 2
Fore
SplineSet
186 525 m 0x78
 186 555 230 612 295 612 c 0
 353 612 403 565 403 511 c 0
 403 468 386 448 219 295 c 1
 369 295 l 1x78
 369 298 l 2
 369 310 376 318 387 318 c 0
 398 318 405 310 405 298 c 2
 405 259 l 1xb8
 175 259 l 1
 175 302 l 1
 307 425 l 1
 357 475 367 489 367 511 c 0
 367 546 333 576 295 576 c 0
 261 576 230 555 221 524 c 0
 218 513 212 508 203 508 c 0
 194 508 186 516 186 525 c 0x78
EndSplineSet
EndChar

StartChar: threesuperior
Encoding: 179 179 114
Width: 600
Flags: W
HStem: 251 36<222.942 354.806> 431 36<267.007 353.875> 576 36<236.859 354.282>
VStem: 368 36<479.839 561.116> 380 36<311.84 405.222>
LayerCount: 2
Fore
SplineSet
300 576 m 0xf0
 237 576 233 539 215 539 c 0
 205 539 197 547 197 556 c 0
 197 581 254 612 300 612 c 0
 359 612 404 572 404 520 c 0xf0
 404 490 391 468 358 446 c 1
 397 422 416 394 416 358 c 0
 416 299 361 251 295 251 c 0
 245 251 181 281 181 304 c 0
 181 313 189 321 198 321 c 0
 215 321 234 287 295 287 c 0
 341 287 380 320 380 358 c 0xe8
 380 398 341 430 288 431 c 0
 275 432 267 438 267 449 c 0
 267 464 277 467 304 467 c 0
 341 467 368 490 368 520 c 0
 368 552 339 576 300 576 c 0xf0
EndSplineSet
EndChar

StartChar: acute
Encoding: 180 180 115
Width: 600
Flags: W
HStem: 490 149
VStem: 280 165
LayerCount: 2
Fore
SplineSet
433 599 m 2
 319 499 l 2
 310 492 306 490 300 490 c 0
 289 490 280 499 280 511 c 0
 280 518 282 521 292 530 c 2
 406 630 l 2
 415 637 419 639 425 639 c 0
 436 639 445 630 445 618 c 0
 445 611 442 607 433 599 c 2
EndSplineSet
EndChar

StartChar: mu
Encoding: 181 181 116
Width: 600
Flags: W
HStem: -16 40<194.548 350.011> 0 40<480 540.993> 377 40<43.0066 124 337.007 439>
VStem: 124 41<-199.993 16 53.9259 377> 439 102<0.249912 39.7821> 439 41<40 59 115 377>
LayerCount: 2
Fore
SplineSet
165 16 m 1xb4
 165 -173 l 2
 165 -191 158 -200 144 -200 c 0
 131 -200 124 -191 124 -173 c 2
 124 377 l 1
 70 377 l 2
 52 377 43 384 43 397 c 0
 43 411 52 417 70 417 c 2
 165 417 l 1
 165 115 l 2
 165 61 202 24 256 24 c 0xb4
 324 24 384 54 439 115 c 1
 439 377 l 1
 365 377 l 2
 346 377 337 384 337 397 c 0
 337 411 346 417 365 417 c 2
 480 417 l 1
 480 40 l 1x74
 514 40 l 2
 532 40 541 34 541 20 c 0x78
 541 7 532 0 514 0 c 2
 439 0 l 1x74
 439 59 l 1
 387 10 323 -16 258 -16 c 0
 217 -16 192 -8 165 16 c 1xb4
EndSplineSet
EndChar

StartChar: paragraph
Encoding: 182 182 117
Width: 600
Flags: W
HStem: -62 41<161.007 284 325 345.993 437 524.993> 260 47<194.808 284> 563 41<224.258 284 325 397 437 522.993>
VStem: 79 70<361.01 503.986> 284 41<-21 260 307 558> 397 40<-21 563>
LayerCount: 2
Fore
SplineSet
284 260 m 1
 162 268 79 325 79 406 c 2
 79 453 l 2
 79 543 168 604 298 604 c 2
 498 604 l 2
 514 604 523 596 523 584 c 0
 523 571 514 563 498 563 c 2
 437 563 l 1
 437 -21 l 1
 499 -21 l 2
 516 -21 525 -28 525 -41 c 0
 525 -55 516 -62 499 -62 c 2
 401 -62 l 2
 386 -62 376 -54 376 -41 c 0
 376 -30 384 -22 397 -21 c 1
 397 563 l 1
 325 563 l 1
 325 -21 l 1
 338 -22 346 -30 346 -41 c 0
 346 -55 337 -62 321 -62 c 2
 187 -62 l 2
 171 -62 161 -54 161 -41 c 0
 161 -28 170 -21 187 -21 c 2
 284 -21 l 1
 284 260 l 1
284 307 m 1
 284 558 l 1
 207 550 149 504 149 451 c 2
 149 414 l 2
 149 361 207 315 284 307 c 1
EndSplineSet
EndChar

StartChar: periodcentered
Encoding: 183 183 118
Width: 600
Flags: W
HStem: 217 131<243.612 356.388>
VStem: 226 148<235.025 330.451>
LayerCount: 2
Fore
SplineSet
295 348 m 2
 305 348 l 2
 344 348 374 320 374 283 c 0
 374 245 344 217 305 217 c 2
 295 217 l 2
 256 217 226 246 226 283 c 0
 226 320 256 348 295 348 c 2
EndSplineSet
EndChar

StartChar: cedilla
Encoding: 184 184 119
Width: 600
Flags: W
HStem: -173 38<226.381 338.77> -81 34<312 339.453> -81 81<274 310.919>
VStem: 274 38<-47 0> 340 37<-131.481 -83.6783>
LayerCount: 2
Fore
SplineSet
230 -114 m 0xd8
 242 -114 265 -135 296 -135 c 0
 322 -135 340 -123 340 -106 c 0
 340 -89 325 -81 294 -81 c 2
 274 -81 l 1
 274 0 l 1
 312 0 l 1xb8
 312 -47 l 1
 353 -48 377 -70 377 -108 c 0
 377 -147 345 -173 298 -173 c 0
 270 -173 210 -158 210 -133 c 0
 210 -122 219 -114 230 -114 c 0xd8
EndSplineSet
EndChar

StartChar: onesuperior
Encoding: 185 185 120
Width: 600
Flags: W
HStem: 259 36<191.007 283 319 409.994> 592 20G<255.5 319>
VStem: 283 36<295 563>
LayerCount: 2
Fore
SplineSet
319 612 m 1
 319 295 l 1
 390 295 l 2
 402 295 410 288 410 277 c 0
 410 266 402 259 390 259 c 2
 212 259 l 2
 199 259 191 266 191 277 c 0
 191 290 201 296 222 296 c 0
 230 296 261 296 283 295 c 1
 283 563 l 1
 218 542 l 2
 214 541 211 540 209 540 c 0
 201 540 192 549 192 558 c 0
 192 573 192 573 319 612 c 1
EndSplineSet
EndChar

StartChar: ordmasculine
Encoding: 186 186 121
Width: 600
Flags: W
HStem: 284 37<236.429 365.353> 540 37<236.214 366.218>
VStem: 154 37<367.282 495.076> 411 37<366.685 494.713>
LayerCount: 2
Fore
SplineSet
301 577 m 0
 383 577 448 512 448 429 c 0
 448 350 381 284 301 284 c 0
 220 284 154 350 154 431 c 0
 154 511 220 577 301 577 c 0
301 540 m 0
 240 540 191 491 191 431 c 0
 191 370 241 321 301 321 c 0
 361 321 411 370 411 429 c 0
 411 491 363 540 301 540 c 0
EndSplineSet
EndChar

StartChar: guillemotright
Encoding: 187 187 122
Width: 600
Flags: W
HStem: 0 21G<77.5 86.5 307.5 316.5> 397 20G<77.5 86 307.5 316>
LayerCount: 2
Fore
SplineSet
311 208 m 1
 104 11 l 2
 96 3 90 0 83 0 c 0
 72 0 63 9 63 20 c 0
 63 27 64 29 74 40 c 2
 216 208 l 1
 74 377 l 2
 64 388 63 390 63 397 c 0
 63 408 72 417 83 417 c 0
 89 417 96 413 104 406 c 2
 311 208 l 1
541 208 m 1
 334 11 l 2
 326 3 320 0 313 0 c 0
 302 0 293 9 293 20 c 0
 293 27 294 29 304 40 c 2
 446 208 l 1
 304 377 l 2
 294 388 293 390 293 397 c 0
 293 408 302 417 313 417 c 0
 319 417 326 413 334 406 c 2
 541 208 l 1
EndSplineSet
EndChar

StartChar: onequarter
Encoding: 188 188 123
Width: 600
Flags: W
HStem: 0 36<453.009 510 546 579.994> 93 36<401 510 546 579.993> 259 36<16.0073 108 144 235.993> 592 20G<80.5 144>
VStem: 108 36<295 563> 510 36<36 93 129 309>
LayerCount: 2
Fore
SplineSet
144 612 m 1
 144 295 l 1
 215 295 l 2
 228 295 236 288 236 277 c 0
 236 266 227 259 215 259 c 2
 37 259 l 2
 24 259 16 266 16 277 c 0
 16 290 26 296 47 296 c 0
 55 296 86 296 108 295 c 1
 108 563 l 1
 43 542 l 2
 39 541 36 540 34 540 c 0
 26 540 17 549 17 558 c 0
 17 573 17 573 144 612 c 1
492 477 m 0
 141 63 l 2
 133 53 129 51 123 51 c 0
 112 51 103 60 103 71 c 0
 103 75 106 81 112 88 c 2
 462 502 l 2
 471 512 474 514 480 514 c 0
 491 514 500 505 500 494 c 0
 500 490 497 483 492 477 c 0
453 18 m 0
 453 35 465 36 499 36 c 2
 510 36 l 1
 510 93 l 1
 361 93 l 1
 361 127 l 1
 489 345 l 1
 546 345 l 1
 546 129 l 1
 559 129 l 2
 572 129 580 122 580 111 c 0
 580 99 571 93 555 93 c 2
 546 93 l 1
 546 36 l 1
 559 36 l 2
 572 36 580 29 580 18 c 0
 580 7 572 0 559 0 c 2
 474 0 l 2
 461 0 453 7 453 18 c 0
510 129 m 1
 510 309 l 1
 508 309 l 1
 401 129 l 1
 510 129 l 1
EndSplineSet
EndChar

StartChar: onehalf
Encoding: 189 189 124
Width: 600
Flags: W
HStem: 0 59<537.005 573> 0 36<387 537> 259 36<23.0073 115 151 241.994> 317 36<408.161 515.852> 592 20G<87.5 151>
VStem: 115 36<295 563> 354 35<249.006 297.66> 535 36<36 58.9942 206.95 297.411>
LayerCount: 2
Fore
SplineSet
485 477 m 0x3f
 134 63 l 2
 126 53 122 51 116 51 c 0
 105 51 96 60 96 71 c 0
 96 75 99 81 105 88 c 2
 455 502 l 2
 464 512 467 514 473 514 c 0
 484 514 493 505 493 494 c 0
 493 490 490 483 485 477 c 0x3f
151 612 m 1
 151 295 l 1
 222 295 l 2
 234 295 242 288 242 277 c 0
 242 266 234 259 222 259 c 2
 44 259 l 2
 31 259 23 266 23 277 c 0
 23 290 33 296 54 296 c 0
 62 296 93 296 115 295 c 1
 115 563 l 1
 50 542 l 2
 46 541 43 540 41 540 c 0
 33 540 24 549 24 558 c 0
 24 573 24 573 151 612 c 1
354 266 m 0
 354 296 398 353 463 353 c 0
 521 353 571 306 571 252 c 0
 571 209 554 189 387 36 c 1
 537 36 l 1x7f
 537 39 l 2
 537 51 544 59 555 59 c 0
 566 59 573 51 573 39 c 2
 573 0 l 1xbf
 343 0 l 1x7f
 343 43 l 1
 475 166 l 1
 525 216 535 230 535 252 c 0
 535 287 501 317 463 317 c 0
 429 317 398 296 389 265 c 0
 386 254 380 249 371 249 c 0
 362 249 354 257 354 266 c 0
EndSplineSet
EndChar

StartChar: threequarters
Encoding: 190 190 125
Width: 600
Flags: W
HStem: 0 36<453.009 510 546 579.994> 93 36<401 510 546 579.993> 251 36<47.9418 179.806> 431 36<92.0074 178.875> 576 36<61.8593 179.282>
VStem: 193 36<479.839 561.116> 205 36<311.84 405.222> 510 36<36 93 129 309>
LayerCount: 2
Fore
SplineSet
125 576 m 0xfd
 62 576 58 539 40 539 c 0
 30 539 22 547 22 556 c 0
 22 581 79 612 125 612 c 0
 184 612 229 572 229 520 c 0xfd
 229 490 216 468 183 446 c 1
 222 422 241 394 241 358 c 0
 241 299 186 251 120 251 c 0
 70 251 6 281 6 304 c 0
 6 313 14 321 23 321 c 0
 40 321 59 287 120 287 c 0
 166 287 205 320 205 358 c 0xfb
 205 398 166 430 113 431 c 0
 100 432 92 438 92 449 c 0
 92 464 102 467 129 467 c 0
 166 467 193 490 193 520 c 0
 193 552 164 576 125 576 c 0xfd
491 477 m 0
 140 63 l 2
 132 53 128 51 122 51 c 0
 111 51 102 60 102 71 c 0
 102 76 104 80 111 88 c 2
 461 502 l 2
 470 512 473 514 479 514 c 0
 490 514 499 505 499 494 c 0
 499 490 496 483 491 477 c 0
453 18 m 0
 453 35 465 36 499 36 c 2
 510 36 l 1
 510 93 l 1
 361 93 l 1
 361 127 l 1
 489 345 l 1
 546 345 l 1
 546 129 l 1
 559 129 l 2
 572 129 580 122 580 111 c 0
 580 99 571 93 555 93 c 2
 546 93 l 1
 546 36 l 1
 559 36 l 2
 572 36 580 29 580 18 c 0
 580 7 572 0 559 0 c 2
 474 0 l 2
 461 0 453 7 453 18 c 0
510 129 m 1
 510 309 l 1
 508 309 l 1
 401 129 l 1
 510 129 l 1
EndSplineSet
EndChar

StartChar: questiondown
Encoding: 191 191 126
Width: 600
Flags: W
HStem: -175 41<209.775 397.882> 317 100<238.07 361.646>
VStem: 113 41<-83.6851 38.2383> 229 141<326.928 407.072> 278 41<155 222.993> 425 41<-100 -32.0066>
LayerCount: 2
Fore
SplineSet
466 -126 m 1xec
 369 -174 321 -175 291 -175 c 0
 185 -175 113 -113 113 -21 c 0
 113 53 153 96 278 155 c 1
 278 196 l 2
 278 214 285 223 298 223 c 0
 312 223 319 214 319 196 c 2
 319 128 l 1
 203 80 154 36 154 -21 c 0
 154 -87 213 -134 296 -134 c 0
 341 -134 372 -126 425 -100 c 1
 425 -59 l 2
 425 -41 432 -32 445 -32 c 0
 459 -32 466 -41 466 -59 c 2
 466 -126 l 1xec
313 317 m 2
 286 317 l 2
 252 317 229 338 229 367 c 0
 229 396 252 417 286 417 c 2
 313 417 l 2
 347 417 370 397 370 367 c 0xf4
 370 337 347 317 313 317 c 2
EndSplineSet
EndChar

StartChar: Agrave
Encoding: 192 192 127
Width: 600
Flags: W
HStem: 0 41<9.00659 67 108 213.993 381.007 484 527 590.993> 188 41<178 413> 522 41<99.0066 246 286 301> 637 149
VStem: 168 165
LayerCount: 2
Back
SplineSet
428 188 m 1
 162 188 l 1
 108 41 l 1
 187 41 l 2
 205 41 214 34 214 21 c 0
 214 7 205 0 187 0 c 2
 36 0 l 2
 18 0 9 7 9 21 c 0
 9 34 18 41 36 41 c 2
 67 41 l 1
 246 522 l 1
 126 522 l 2
 108 522 99 529 99 543 c 0
 99 556 108 563 126 563 c 2
 330 563 l 1
 527 41 l 1
 564 41 l 2
 582 41 591 34 591 21 c 0
 591 7 582 0 564 0 c 2
 408 0 l 2
 390 0 381 7 381 21 c 0
 381 34 390 41 408 41 c 2
 484 41 l 1
 428 188 l 1
413 229 m 1
 301 522 l 1
 286 522 l 1
 178 229 l 1
 413 229 l 1
204 780 m 2
 318 680 l 1
 325 672 l 2
 330 667 330 667 330 661 c 0
 330 649 321 640 309 640 c 0
 304 640 298 643 291 649 c 2
 177 749 l 2
 168 757 165 761 165 769 c 0
 165 780 174 789 185 789 c 0
 191 789 196 786 204 780 c 2
EndSplineSet
Fore
Refer: 583 715 N 1 0 0 1 13 147 0
Refer: 33 65 N 1 0 0 1 0 0 1
EndChar

StartChar: Aacute
Encoding: 193 193 128
Width: 600
Flags: W
HStem: 0 41<9.00659 67 108 213.993 381.007 484 527 590.993> 188 41<178 413> 522 41<99.0066 246 286 301> 636 149
VStem: 208 165
LayerCount: 2
Back
SplineSet
428 188 m 1
 162 188 l 1
 108 41 l 1
 187 41 l 2
 205 41 214 34 214 21 c 0
 214 7 205 0 187 0 c 2
 36 0 l 2
 18 0 9 7 9 21 c 0
 9 34 18 41 36 41 c 2
 67 41 l 1
 246 522 l 1
 126 522 l 2
 108 522 99 529 99 543 c 0
 99 556 108 563 126 563 c 2
 330 563 l 1
 527 41 l 1
 564 41 l 2
 582 41 591 34 591 21 c 0
 591 7 582 0 564 0 c 2
 408 0 l 2
 390 0 381 7 381 21 c 0
 381 34 390 41 408 41 c 2
 484 41 l 1
 428 188 l 1
413 229 m 1
 301 522 l 1
 286 522 l 1
 178 229 l 1
 413 229 l 1
371 749 m 2
 257 649 l 2
 248 642 244 640 238 640 c 0
 227 640 218 649 218 661 c 0
 218 668 220 671 230 680 c 2
 344 780 l 2
 353 787 357 789 363 789 c 0
 374 789 383 780 383 768 c 0
 383 761 380 757 371 749 c 2
EndSplineSet
Fore
Refer: 582 714 N 1 0 0 1 -72 146 0
Refer: 33 65 N 1 0 0 1 0 0 1
EndChar

StartChar: Acircumflex
Encoding: 194 194 129
Width: 600
Flags: W
HStem: 0 41<9.00659 67 108 213.993 381.007 484 527 590.993> 188 41<178 413> 522 41<99.0066 246 286 301> 636 149
VStem: 127 290
LayerCount: 2
Back
SplineSet
428 188 m 1
 162 188 l 1
 108 41 l 1
 187 41 l 2
 205 41 214 34 214 21 c 0
 214 7 205 0 187 0 c 2
 36 0 l 2
 18 0 9 7 9 21 c 0
 9 34 18 41 36 41 c 2
 67 41 l 1
 246 522 l 1
 126 522 l 2
 108 522 99 529 99 543 c 0
 99 556 108 563 126 563 c 2
 330 563 l 1
 527 41 l 1
 564 41 l 2
 582 41 591 34 591 21 c 0
 591 7 582 0 564 0 c 2
 408 0 l 2
 390 0 381 7 381 21 c 0
 381 34 390 41 408 41 c 2
 484 41 l 1
 428 188 l 1
413 229 m 1
 301 522 l 1
 286 522 l 1
 178 229 l 1
 413 229 l 1
273 789 m 1
 405 681 l 2
 416 672 418 668 418 660 c 0
 418 649 409 640 398 640 c 0
 393 640 387 643 380 648 c 2
 273 736 l 1
 166 648 l 2
 159 643 153 640 148 640 c 0
 137 640 128 649 128 660 c 0
 128 668 132 672 141 680 c 0
 273 789 l 1
EndSplineSet
Fore
Refer: 578 710 N 1 0 0 1 -28 146 0
Refer: 33 65 N 1 0 0 1 0 0 1
EndChar

StartChar: Atilde
Encoding: 195 195 130
Width: 600
Flags: W
HStem: 0 41<9.00659 67 108 213.993 381.007 484 527 590.993> 188 41<178 413> 522 41<99.0066 246 286 301> 636 41<281.731 375.1> 639 86<137 211 336 407> 684 41<169.27 263.255>
VStem: 117 310
LayerCount: 2
Back
SplineSet
428 188 m 1
 162 188 l 1
 108 41 l 1
 187 41 l 2
 205 41 214 34 214 21 c 0
 214 7 205 0 187 0 c 2
 36 0 l 2
 18 0 9 7 9 21 c 0
 9 34 18 41 36 41 c 2
 67 41 l 1
 246 522 l 1
 126 522 l 2
 108 522 99 529 99 543 c 0
 99 556 108 563 126 563 c 2
 330 563 l 1
 527 41 l 1
 564 41 l 2
 582 41 591 34 591 21 c 0
 591 7 582 0 564 0 c 2
 408 0 l 2
 390 0 381 7 381 21 c 0
 381 34 390 41 408 41 c 2
 484 41 l 1
 428 188 l 1
413 229 m 1
 301 522 l 1
 286 522 l 1
 178 229 l 1
 413 229 l 1
335 707 m 0
 368 707 391 753 408 753 c 0
 418 753 428 744 428 733 c 0
 428 715 377 666 337 666 c 0
 290 666 242 714 213 714 c 0
 168 714 166 669 138 669 c 0
 127 669 118 677 118 688 c 0
 118 711 172 755 212 755 c 0
 255 755 306 707 335 707 c 0
EndSplineSet
Fore
Refer: 596 732 N 1 0 0 1 -28 120 0
Refer: 33 65 N 1 0 0 1 0 0 1
EndChar

StartChar: Adieresis
Encoding: 196 196 131
Width: 600
Flags: W
HStem: 0 41<9.00659 67 108 213.993 381.007 484 527 590.993> 188 41<178 413> 522 41<99.0066 246 286 301> 636 100<121.396 202.604 342.396 423.604>
VStem: 112 100<645.396 726.544> 333 100<645.396 726.544>
LayerCount: 2
Back
SplineSet
428 188 m 1
 162 188 l 1
 108 41 l 1
 187 41 l 2
 205 41 214 34 214 21 c 0
 214 7 205 0 187 0 c 2
 36 0 l 2
 18 0 9 7 9 21 c 0
 9 34 18 41 36 41 c 2
 67 41 l 1
 246 522 l 1
 126 522 l 2
 108 522 99 529 99 543 c 0
 99 556 108 563 126 563 c 2
 330 563 l 1
 527 41 l 1
 564 41 l 2
 582 41 591 34 591 21 c 0
 591 7 582 0 564 0 c 2
 408 0 l 2
 390 0 381 7 381 21 c 0
 381 34 390 41 408 41 c 2
 484 41 l 1
 428 188 l 1
413 229 m 1
 301 522 l 1
 286 522 l 1
 178 229 l 1
 413 229 l 1
162 761 m 0
 190 761 212 738 212 710 c 0
 212 684 189 661 162 661 c 0
 135 661 112 684 112 711 c 0
 112 738 135 761 162 761 c 0
383 761 m 0
 411 761 433 738 433 710 c 0
 433 684 410 661 383 661 c 0
 356 661 333 684 333 711 c 0
 333 738 356 761 383 761 c 0
EndSplineSet
Fore
Refer: 103 168 N 1 0 0 1 -28 125 0
Refer: 33 65 N 1 0 0 1 0 0 1
EndChar

StartChar: Aring
Encoding: 197 197 132
Width: 600
Flags: W
HStem: 0 41<9.00659 67 108 213.993 381.007 484 527 590.993> 188 41<178 413> 522 41<99.0066 246 286 301> 630 33<230.808 323.192> 778 33<230.808 323.415>
VStem: 184 33<676.997 764.208> 337 33<676.63 764.062>
LayerCount: 2
Back
SplineSet
428 188 m 1
 162 188 l 1
 108 41 l 1
 187 41 l 2
 205 41 214 34 214 21 c 0
 214 7 205 0 187 0 c 2
 36 0 l 2
 18 0 9 7 9 21 c 0
 9 34 18 41 36 41 c 2
 67 41 l 1
 246 522 l 1
 126 522 l 2
 108 522 99 529 99 543 c 0
 99 556 108 563 126 563 c 2
 330 563 l 1
 527 41 l 1
 564 41 l 2
 582 41 591 34 591 21 c 0
 591 7 582 0 564 0 c 2
 408 0 l 2
 390 0 381 7 381 21 c 0
 381 34 390 41 408 41 c 2
 484 41 l 1
 428 188 l 1
413 229 m 1
 301 522 l 1
 286 522 l 1
 178 229 l 1
 413 229 l 1
277 811 m 0
 329 811 370 771 370 719 c 0
 370 671 328 630 277 630 c 0
 226 630 184 671 184 721 c 0
 184 770 226 811 277 811 c 0
277 778 m 0
 244 778 217 752 217 721 c 0
 217 689 244 663 277 663 c 0
 310 663 337 689 337 720 c 0
 337 752 310 778 277 778 c 0
EndSplineSet
Fore
Refer: 594 730 N 1 0 0 1 -23 150 0
Refer: 33 65 N 1 0 0 1 0 0 1
EndChar

StartChar: AE
Encoding: 198 198 133
Width: 600
Flags: W
HStem: 0 41<10.0066 74 115 167.993 218.007 297 338 549> 189 41<167 297> 273 41<338 416> 522 41<117.007 207 247 297 338 529>
VStem: 297 41<41 189 230 273 314 522> 416 40<219.007 273 314 368.993> 529 41<384.007 522> 549 41<41 159.992>
LayerCount: 2
Fore
SplineSet
297 189 m 1xfd
 156 189 l 1
 115 41 l 1
 141 41 l 2
 159 41 168 34 168 21 c 0
 168 7 159 0 141 0 c 2
 37 0 l 2
 19 0 10 7 10 21 c 0
 10 34 19 41 37 41 c 2
 74 41 l 1
 207 522 l 1
 144 522 l 2
 126 522 117 529 117 543 c 0
 117 556 126 563 144 563 c 2
 570 563 l 1
 570 411 l 2xfe
 570 393 563 384 549 384 c 0xfd
 536 384 529 393 529 411 c 2
 529 522 l 1xfe
 338 522 l 1
 338 314 l 1
 416 314 l 1
 416 342 l 2
 416 360 423 369 436 369 c 0
 450 369 456 360 456 342 c 2
 456 246 l 2
 456 228 449 219 436 219 c 0
 423 219 416 229 416 246 c 2
 416 273 l 1
 338 273 l 1
 338 41 l 1
 549 41 l 1
 549 134 l 2
 549 153 555 160 569 160 c 0
 582 160 590 149 590 134 c 2
 590 0 l 1
 245 0 l 2
 227 0 218 7 218 21 c 0
 218 34 227 41 245 41 c 2
 297 41 l 1
 297 189 l 1xfd
297 230 m 1
 297 522 l 1
 247 522 l 1
 167 230 l 1
 297 230 l 1
EndSplineSet
EndChar

StartChar: Ccedilla
Encoding: 199 199 134
Width: 600
Flags: W
HStem: -173 38<231.381 343.77> -81 34<317 344.453> -16 41<317 414.625> 535 41<220.121 401.266>
VStem: 63 41<157.077 417.125> 279 38<-47 -16> 345 37<-131.481 -83.6783> 478 41<397.007 472.035 507 562.993>
LayerCount: 2
Fore
SplineSet
63 325 m 2
 63 378 105 576 305 576 c 0
 371 576 431 552 478 507 c 1
 478 536 l 2
 478 554 485 563 499 563 c 0
 512 563 519 554 519 536 c 2
 519 424 l 2
 519 406 512 397 498 397 c 0
 486 397 479 405 478 421 c 0
 474 482 394 535 305 535 c 0
 194 535 104 438 104 319 c 2
 104 248 l 2
 104 128 204 25 322 25 c 0
 391 25 442 51 496 115 c 0
 503 123 507 125 514 125 c 0
 526 125 534 117 534 106 c 0
 534 96 522 79 496 55 c 0
 450 12 385 -16 330 -16 c 2
 317 -16 l 1
 317 -47 l 1
 358 -48 382 -70 382 -108 c 0
 382 -147 350 -173 303 -173 c 0
 275 -173 215 -158 215 -133 c 0
 215 -122 224 -114 235 -114 c 0
 247 -114 270 -135 301 -135 c 0
 327 -135 345 -123 345 -106 c 0
 345 -89 330 -81 299 -81 c 2
 279 -81 l 1
 279 -12 l 1
 121 27 63 155 63 242 c 2
 63 325 l 2
EndSplineSet
EndChar

StartChar: Egrave
Encoding: 200 200 135
Width: 600
Flags: W
HStem: 0 41<43.0066 124 165 479> 272 41<165 310> 522 41<43.0066 124 165 458> 636 149
VStem: 124 41<41 272 313 522> 179 165 310 41<200.007 272 313 384.993> 458 41<397.007 522> 479 41<41 186.993>
LayerCount: 2
Back
SplineSet
165 272 m 1xfc
 165 41 l 1
 479 41 l 1
 479 160 l 2
 479 178 486 187 500 187 c 0
 513 187 520 178 520 160 c 2
 520 0 l 1xfa
 70 0 l 2
 52 0 43 7 43 21 c 0
 43 34 52 41 70 41 c 2
 124 41 l 1
 124 522 l 1
 70 522 l 2
 52 522 43 529 43 543 c 0
 43 556 52 563 70 563 c 2
 499 563 l 1
 499 424 l 2
 499 406 492 397 478 397 c 0
 465 397 458 406 458 424 c 2
 458 522 l 1
 165 522 l 1
 165 313 l 1
 310 313 l 1
 310 358 l 2
 310 376 317 385 331 385 c 0
 344 385 351 376 351 358 c 2
 351 227 l 2
 351 209 344 200 331 200 c 0
 317 200 310 209 310 227 c 2
 310 272 l 1
 165 272 l 1xfc
215 780 m 2
 329 680 l 1
 336 672 l 2
 341 667 341 667 341 661 c 0
 341 649 332 640 320 640 c 0
 315 640 309 643 302 649 c 2
 188 749 l 2
 179 757 176 761 176 769 c 0
 176 780 185 789 196 789 c 0
 202 789 207 786 215 780 c 2
EndSplineSet
Fore
Refer: 583 715 N 1 0 0 1 24 146 0
Refer: 37 69 N 1 0 0 1 0 0 1
EndChar

StartChar: Eacute
Encoding: 201 201 136
Width: 600
Flags: W
HStem: 0 41<43.0066 124 165 479> 272 41<165 310> 522 41<43.0066 124 165 458> 636 149
VStem: 124 41<41 272 313 522> 234 165 310 41<200.007 272 313 384.993> 458 41<397.007 522> 479 41<41 186.993>
LayerCount: 2
Back
SplineSet
165 272 m 1xfc
 165 41 l 1
 479 41 l 1
 479 160 l 2
 479 178 486 187 500 187 c 0
 513 187 520 178 520 160 c 2
 520 0 l 1xfa
 70 0 l 2
 52 0 43 7 43 21 c 0
 43 34 52 41 70 41 c 2
 124 41 l 1
 124 522 l 1
 70 522 l 2
 52 522 43 529 43 543 c 0
 43 556 52 563 70 563 c 2
 499 563 l 1
 499 424 l 2
 499 406 492 397 478 397 c 0
 465 397 458 406 458 424 c 2
 458 522 l 1
 165 522 l 1
 165 313 l 1
 310 313 l 1
 310 358 l 2
 310 376 317 385 331 385 c 0
 344 385 351 376 351 358 c 2
 351 227 l 2
 351 209 344 200 331 200 c 0
 317 200 310 209 310 227 c 2
 310 272 l 1
 165 272 l 1xfc
389 749 m 2
 275 649 l 2
 266 642 262 640 256 640 c 0
 245 640 236 649 236 661 c 0
 236 668 238 671 248 680 c 2
 362 780 l 2
 371 787 375 789 381 789 c 0
 392 789 401 780 401 768 c 0
 401 761 398 757 389 749 c 2
EndSplineSet
Fore
Refer: 582 714 S 1 0 0 1 -46 146 0
Refer: 37 69 N 1 0 0 1 0 0 1
EndChar

StartChar: Ecircumflex
Encoding: 202 202 137
Width: 600
Flags: W
HStem: 0 41<43.0066 124 165 479> 272 41<165 310> 522 41<43.0066 124 165 458> 636 149
VStem: 124 41<41 272 313 522> 143 290 310 41<200.007 272 313 384.993> 458 41<397.007 522> 479 41<41 186.993>
LayerCount: 2
Back
SplineSet
165 272 m 1xfc
 165 41 l 1
 479 41 l 1
 479 160 l 2
 479 178 486 187 500 187 c 0
 513 187 520 178 520 160 c 2
 520 0 l 1xfa
 70 0 l 2
 52 0 43 7 43 21 c 0
 43 34 52 41 70 41 c 2
 124 41 l 1
 124 522 l 1
 70 522 l 2
 52 522 43 529 43 543 c 0
 43 556 52 563 70 563 c 2
 499 563 l 1
 499 424 l 2
 499 406 492 397 478 397 c 0
 465 397 458 406 458 424 c 2
 458 522 l 1
 165 522 l 1
 165 313 l 1
 310 313 l 1
 310 358 l 2
 310 376 317 385 331 385 c 0
 344 385 351 376 351 358 c 2
 351 227 l 2
 351 209 344 200 331 200 c 0
 317 200 310 209 310 227 c 2
 310 272 l 1
 165 272 l 1xfc
291 789 m 1
 423 681 l 2
 434 672 436 668 436 660 c 0
 436 649 427 640 416 640 c 0
 411 640 405 643 398 648 c 2
 291 736 l 1
 184 648 l 2
 177 643 171 640 166 640 c 0
 155 640 146 649 146 660 c 0
 146 668 150 672 159 680 c 0
 291 789 l 1
EndSplineSet
Fore
Refer: 578 710 N 1 0 0 1 -12 146 0
Refer: 37 69 N 1 0 0 1 0 0 1
EndChar

StartChar: Edieresis
Encoding: 203 203 138
Width: 600
Flags: W
HStem: 0 41<43.0066 124 165 479> 272 41<165 310> 522 41<43.0066 124 165 458> 636 100<139.396 220.604 360.396 441.604>
VStem: 124 41<41 272 313 522> 130 100<645.396 726.544> 310 41<200.007 272 313 384.993> 351 100<645.396 726.544> 458 41<397.007 522> 479 41<41 186.993>
LayerCount: 2
Back
SplineSet
165 272 m 1xfb80
 165 41 l 1
 479 41 l 1
 479 160 l 2
 479 178 486 187 500 187 c 0
 513 187 520 178 520 160 c 2
 520 0 l 1xfb40
 70 0 l 2
 52 0 43 7 43 21 c 0
 43 34 52 41 70 41 c 2
 124 41 l 1
 124 522 l 1
 70 522 l 2
 52 522 43 529 43 543 c 0
 43 556 52 563 70 563 c 2
 499 563 l 1
 499 424 l 2
 499 406 492 397 478 397 c 0
 465 397 458 406 458 424 c 2
 458 522 l 1
 165 522 l 1
 165 313 l 1
 310 313 l 1
 310 358 l 2
 310 376 317 385 331 385 c 0
 344 385 351 376 351 358 c 2
 351 227 l 2
 351 209 344 200 331 200 c 0
 317 200 310 209 310 227 c 2
 310 272 l 1
 165 272 l 1xfb80
181 761 m 0
 209 761 231 738 231 710 c 0
 231 684 208 661 181 661 c 0
 154 661 131 684 131 711 c 0xf7
 131 738 154 761 181 761 c 0
402 761 m 0
 430 761 452 738 452 710 c 0
 452 684 429 661 402 661 c 0
 375 661 352 684 352 711 c 0
 352 738 375 761 402 761 c 0
EndSplineSet
Fore
Refer: 103 168 N 1 0 0 1 -10 125 0
Refer: 37 69 N 1 0 0 1 0 0 1
EndChar

StartChar: Igrave
Encoding: 204 204 139
Width: 600
Flags: W
HStem: 0 41<113.007 279 320 486.993> 522 41<113.007 279 320 486.993> 636 149
VStem: 195 165 279 41<41 522>
LayerCount: 2
Back
SplineSet
320 522 m 1
 320 41 l 1
 459 41 l 2
 478 41 487 34 487 21 c 0
 487 7 477 0 459 0 c 2
 140 0 l 2
 122 0 113 7 113 21 c 0
 113 34 122 41 140 41 c 2
 279 41 l 1
 279 522 l 1
 140 522 l 2
 122 522 113 529 113 543 c 0
 113 556 122 563 140 563 c 2
 459 563 l 2
 478 563 487 556 487 543 c 0
 487 529 478 522 459 522 c 2
 320 522 l 1
230 780 m 2
 344 680 l 1
 351 672 l 2
 356 667 356 667 356 661 c 0
 356 649 347 640 335 640 c 0
 330 640 324 643 317 649 c 2
 203 749 l 2
 194 757 191 761 191 769 c 0
 191 780 200 789 211 789 c 0
 217 789 222 786 230 780 c 2
EndSplineSet
Fore
Refer: 583 715 S 1 0 0 1 40 146 0
Refer: 41 73 N 1 0 0 1 0 0 1
EndChar

StartChar: Iacute
Encoding: 205 205 140
Width: 600
Flags: W
HStem: 0 41<113.007 279 320 486.993> 522 41<113.007 279 320 486.993> 636 149
VStem: 279 41<41 522> 280 165
LayerCount: 2
Back
SplineSet
320 522 m 1
 320 41 l 1
 459 41 l 2
 478 41 487 34 487 21 c 0
 487 7 477 0 459 0 c 2
 140 0 l 2
 122 0 113 7 113 21 c 0
 113 34 122 41 140 41 c 2
 279 41 l 1
 279 522 l 1
 140 522 l 2
 122 522 113 529 113 543 c 0
 113 556 122 563 140 563 c 2
 459 563 l 2
 478 563 487 556 487 543 c 0
 487 529 478 522 459 522 c 2
 320 522 l 1
433 749 m 2
 319 649 l 2
 310 642 306 640 300 640 c 0
 289 640 280 649 280 661 c 0
 280 668 282 671 292 680 c 2
 406 780 l 2
 415 787 419 789 425 789 c 0
 436 789 445 780 445 768 c 0
 445 761 442 757 433 749 c 2
EndSplineSet
Fore
Refer: 582 714 N 1 0 0 1 0 146 0
Refer: 41 73 N 1 0 0 1 0 0 1
EndChar

StartChar: Icircumflex
Encoding: 206 206 141
Width: 600
Flags: W
HStem: 0 41<113.007 279 320 486.993> 522 41<113.007 279 320 486.993> 636 149
VStem: 155 290 279 41<41 522>
LayerCount: 2
Back
SplineSet
320 522 m 1
 320 41 l 1
 459 41 l 2
 478 41 487 34 487 21 c 0
 487 7 477 0 459 0 c 2
 140 0 l 2
 122 0 113 7 113 21 c 0
 113 34 122 41 140 41 c 2
 279 41 l 1
 279 522 l 1
 140 522 l 2
 122 522 113 529 113 543 c 0
 113 556 122 563 140 563 c 2
 459 563 l 2
 478 563 487 556 487 543 c 0
 487 529 478 522 459 522 c 2
 320 522 l 1
300 789 m 1
 432 681 l 2
 443 672 445 668 445 660 c 0
 445 649 436 640 425 640 c 0
 420 640 414 643 407 648 c 2
 300 736 l 1
 193 648 l 2
 186 643 180 640 175 640 c 0
 164 640 155 649 155 660 c 0
 155 668 159 672 168 680 c 0
 300 789 l 1
EndSplineSet
Fore
Refer: 578 710 N 1 0 0 1 0 146 0
Refer: 41 73 N 1 0 0 1 0 0 1
EndChar

StartChar: Idieresis
Encoding: 207 207 142
Width: 600
Flags: W
HStem: 0 41<113.007 279 320 486.993> 522 41<113.007 279 320 486.993> 636 100<148.396 229.604 369.396 450.604>
VStem: 139 100<645.396 726.544> 279 41<41 522> 360 100<645.396 726.544>
CounterMasks: 1 1c
LayerCount: 2
Back
SplineSet
320 522 m 1
 320 41 l 1
 459 41 l 2
 478 41 487 34 487 21 c 0
 487 7 477 0 459 0 c 2
 140 0 l 2
 122 0 113 7 113 21 c 0
 113 34 122 41 140 41 c 2
 279 41 l 1
 279 522 l 1
 140 522 l 2
 122 522 113 529 113 543 c 0
 113 556 122 563 140 563 c 2
 459 563 l 2
 478 563 487 556 487 543 c 0
 487 529 478 522 459 522 c 2
 320 522 l 1
189 761 m 0
 217 761 239 738 239 710 c 0
 239 684 216 661 189 661 c 0
 162 661 139 684 139 711 c 0
 139 738 162 761 189 761 c 0
411 761 m 0
 439 761 461 738 461 710 c 0
 461 684 438 661 411 661 c 0
 384 661 361 684 361 711 c 0
 361 738 384 761 411 761 c 0
EndSplineSet
Fore
Refer: 103 168 N 1 0 0 1 -1 125 0
Refer: 41 73 N 1 0 0 1 0 0 1
EndChar

StartChar: Eth
Encoding: 208 208 143
Width: 600
Flags: W
HStem: 0 41<43.0066 104 145 368.671> 272 41<0.0065918 104 145 333.993> 522 41<43.0066 104 145 372.703>
VStem: 104 41<41 272 313 522> 479 41<155.672 402.057>
LayerCount: 2
Fore
SplineSet
104 272 m 1
 27 272 l 2
 9 272 0 279 0 293 c 0
 0 306 9 313 27 313 c 2
 104 313 l 1
 104 522 l 1
 70 522 l 2
 52 522 43 529 43 543 c 0
 43 556 52 563 70 563 c 2
 290 563 l 2
 416 563 520 448 520 310 c 2
 520 254 l 2
 520 115 416 0 290 0 c 2
 70 0 l 2
 52 0 43 7 43 21 c 0
 43 34 52 41 70 41 c 2
 104 41 l 1
 104 272 l 1
479 319 m 2
 479 360 441 522 288 522 c 2
 145 522 l 1
 145 313 l 1
 307 313 l 2
 325 313 334 306 334 293 c 0
 334 279 325 272 307 272 c 2
 145 272 l 1
 145 41 l 1
 295 41 l 2
 389 41 479 140 479 245 c 2
 479 319 l 2
EndSplineSet
EndChar

StartChar: Ntilde
Encoding: 209 209 144
Width: 600
Flags: W
HStem: 0 41<42.0066 103 144 245.993> 522 41<22.0066 103 358.007 460 501 561.993> 636 41<301.731 395.1> 639 86<157 231 356 427> 684 41<189.27 283.255>
VStem: 103 41<41 504> 137 310 460 41<59 522>
LayerCount: 2
Back
SplineSet
501 0 m 1
 449 0 l 1
 144 504 l 1
 144 41 l 1
 219 41 l 2
 237 41 246 34 246 21 c 0
 246 7 236 0 219 0 c 2
 69 0 l 2
 51 0 42 7 42 21 c 0
 42 34 51 41 69 41 c 2
 103 41 l 1
 103 522 l 1
 49 522 l 2
 31 522 22 529 22 543 c 0
 22 556 31 563 49 563 c 2
 155 563 l 1
 460 59 l 1
 460 522 l 1
 386 522 l 2
 367 522 358 529 358 543 c 0
 358 556 367 563 386 563 c 2
 535 563 l 2
 553 563 562 556 562 543 c 0
 562 529 553 522 535 522 c 2
 501 522 l 1
 501 0 l 1
360 707 m 0
 393 707 416 753 433 753 c 0
 443 753 453 744 453 733 c 0
 453 715 402 666 362 666 c 0
 315 666 267 714 238 714 c 0
 193 714 191 669 163 669 c 0
 152 669 143 677 143 688 c 0
 143 711 197 755 237 755 c 0
 280 755 331 707 360 707 c 0
EndSplineSet
Fore
Refer: 596 732 N 1 0 0 1 -8 120 0
Refer: 46 78 N 1 0 0 1 0 0 1
EndChar

StartChar: Ograve
Encoding: 210 210 145
Width: 600
Flags: W
HStem: -16 41<219.486 379.916> 535 41<219.275 381.323> 636 149
VStem: 51 41<170.323 389.677> 186 165 508 41<168.868 388.646>
LayerCount: 2
Back
SplineSet
300 576 m 0
 441 576 549 446 549 276 c 0
 549 115 437 -16 300 -16 c 0
 161 -16 51 115 51 280 c 0
 51 445 161 576 300 576 c 0
300 535 m 0
 185 535 92 420 92 280 c 0
 92 140 186 25 300 25 c 0
 413 25 508 140 508 277 c 0
 508 421 416 535 300 535 c 0
224 780 m 2
 338 680 l 1
 345 672 l 2
 350 667 350 667 350 661 c 0
 350 649 341 640 329 640 c 0
 324 640 318 643 311 649 c 2
 197 749 l 2
 188 757 185 761 185 769 c 0
 185 780 194 789 205 789 c 0
 211 789 216 786 224 780 c 2
EndSplineSet
Fore
Refer: 583 715 S 1 0 0 1 31 146 0
Refer: 47 79 N 1 0 0 1 0 0 1
EndChar

StartChar: Oacute
Encoding: 211 211 146
Width: 600
Flags: W
HStem: -16 41<219.486 379.916> 535 41<219.275 381.323> 636 149
VStem: 51 41<170.323 389.677> 250 165 508 41<168.868 388.646>
LayerCount: 2
Back
SplineSet
300 576 m 0
 441 576 549 446 549 276 c 0
 549 115 437 -16 300 -16 c 0
 161 -16 51 115 51 280 c 0
 51 445 161 576 300 576 c 0
300 535 m 0
 185 535 92 420 92 280 c 0
 92 140 186 25 300 25 c 0
 413 25 508 140 508 277 c 0
 508 421 416 535 300 535 c 0
404 749 m 2
 290 649 l 2
 281 642 277 640 271 640 c 0
 260 640 251 649 251 661 c 0
 251 668 253 671 263 680 c 2
 377 780 l 2
 386 787 390 789 396 789 c 0
 407 789 416 780 416 768 c 0
 416 761 413 757 404 749 c 2
EndSplineSet
Fore
Refer: 582 714 S 1 0 0 1 -30 146 0
Refer: 47 79 N 1 0 0 1 0 0 1
EndChar

StartChar: Ocircumflex
Encoding: 212 212 147
Width: 600
Flags: W
HStem: -16 41<219.486 379.916> 535 41<219.275 381.323> 636 149
VStem: 51 41<170.323 389.677> 155 290 508 41<168.868 388.646>
CounterMasks: 1 1c
LayerCount: 2
Back
SplineSet
300 576 m 0
 441 576 549 446 549 276 c 0
 549 115 437 -16 300 -16 c 0
 161 -16 51 115 51 280 c 0
 51 445 161 576 300 576 c 0
300 535 m 0
 185 535 92 420 92 280 c 0
 92 140 186 25 300 25 c 0
 413 25 508 140 508 277 c 0
 508 421 416 535 300 535 c 0
300 789 m 1
 432 681 l 2
 443 672 445 668 445 660 c 0
 445 649 436 640 425 640 c 0
 420 640 414 643 407 648 c 2
 300 736 l 1
 193 648 l 2
 186 643 180 640 175 640 c 0
 164 640 155 649 155 660 c 0
 155 668 159 672 168 680 c 0
 300 789 l 1
EndSplineSet
Fore
Refer: 578 710 N 1 0 0 1 0 146 0
Refer: 47 79 N 1 0 0 1 0 0 1
EndChar

StartChar: Otilde
Encoding: 213 213 148
Width: 600
Flags: W
HStem: -16 41<219.486 379.916> 535 41<219.275 381.323> 636 41<309.731 403.1> 639 86<165 239 364 435> 684 41<197.27 291.255>
VStem: 51 41<170.323 389.677> 145 310 508 41<168.868 388.646>
CounterMasks: 1 07
LayerCount: 2
Back
SplineSet
300 576 m 0
 441 576 549 446 549 276 c 0
 549 115 437 -16 300 -16 c 0
 161 -16 51 115 51 280 c 0
 51 445 161 576 300 576 c 0
300 535 m 0
 185 535 92 420 92 280 c 0
 92 140 186 25 300 25 c 0
 413 25 508 140 508 277 c 0
 508 421 416 535 300 535 c 0
368 707 m 0
 401 707 424 753 441 753 c 0
 451 753 461 744 461 733 c 0
 461 715 410 666 370 666 c 0
 323 666 275 714 246 714 c 0
 201 714 199 669 171 669 c 0
 160 669 151 677 151 688 c 0
 151 711 205 755 245 755 c 0
 288 755 339 707 368 707 c 0
EndSplineSet
Fore
Refer: 596 732 N 1 0 0 1 0 120 0
Refer: 47 79 N 1 0 0 1 0 0 1
EndChar

StartChar: Odieresis
Encoding: 214 214 149
Width: 600
Flags: W
HStem: -16 41<219.486 379.916> 535 41<219.275 381.323> 636 100<149.396 230.604 370.396 451.604>
VStem: 51 41<170.323 389.677> 140 100<645.396 726.544> 361 100<645.396 726.544> 508 41<168.868 388.646>
LayerCount: 2
Back
SplineSet
300 576 m 0
 441 576 549 446 549 276 c 0
 549 115 437 -16 300 -16 c 0
 161 -16 51 115 51 280 c 0
 51 445 161 576 300 576 c 0
300 535 m 0
 185 535 92 420 92 280 c 0
 92 140 186 25 300 25 c 0
 413 25 508 140 508 277 c 0
 508 421 416 535 300 535 c 0
189 761 m 0
 217 761 239 738 239 710 c 0
 239 684 216 661 189 661 c 0
 162 661 139 684 139 711 c 0
 139 738 162 761 189 761 c 0
410 761 m 0
 438 761 460 738 460 710 c 0
 460 684 437 661 410 661 c 0
 383 661 360 684 360 711 c 0
 360 738 383 761 410 761 c 0
EndSplineSet
Fore
Refer: 103 168 N 1 0 0 1 0 125 0
Refer: 47 79 N 1 0 0 1 0 0 1
EndChar

StartChar: multiply
Encoding: 215 215 150
Width: 600
Flags: W
LayerCount: 2
Fore
SplineSet
300 311 m 1
 442 453 l 2
 451 462 455 464 461 464 c 0
 472 464 482 455 482 443 c 0
 482 437 479 432 471 424 c 2
 329 282 l 1
 471 139 l 1
 480 131 482 127 482 120 c 0
 482 109 473 100 461 100 c 0
 455 100 450 102 442 110 c 2
 300 253 l 1
 158 110 l 1
 150 103 145 100 139 100 c 0
 127 100 118 109 118 120 c 0
 118 127 121 132 128 139 c 2
 271 282 l 1
 128 424 l 1
 121 432 118 437 118 443 c 0
 118 455 127 464 139 464 c 0
 145 464 149 461 157 453 c 2
 300 311 l 1
EndSplineSet
EndChar

StartChar: Oslash
Encoding: 216 216 151
Width: 600
Flags: W
HStem: -16 41<217.372 380.514> 535 41<219.275 383.349> 585 20G<538.5 547>
VStem: 51 41<169.491 389.883> 508 41<170.323 393.264>
LayerCount: 2
Fore
SplineSet
141 51 m 1
 76 -31 l 2
 69 -40 64 -43 58 -43 c 0
 48 -43 40 -35 40 -25 c 0
 40 -21 41 -18 48 -9 c 2
 117 78 l 1
 72 138 51 204 51 280 c 0
 51 446 161 576 300 576 c 0
 360 576 409 555 458 510 c 1
 524 593 l 2
 531 602 535 605 542 605 c 0
 552 605 560 597 560 587 c 0
 560 582 558 579 552 571 c 2
 482 483 l 1
 525 430 549 356 549 280 c 0
 549 115 439 -16 300 -16 c 0
 240 -16 186 7 141 51 c 1
144 112 m 1
 432 476 l 1
 392 516 349 535 300 535 c 0
 185 535 92 420 92 280 c 0
 92 218 109 164 144 112 c 1
456 449 m 1
 167 84 l 1
 206 45 251 25 300 25 c 0
 414 25 508 140 508 280 c 0
 508 343 490 400 456 449 c 1
EndSplineSet
EndChar

StartChar: Ugrave
Encoding: 217 217 152
Width: 600
Flags: W
HStem: -16 41<220.908 378.659> 522 41<40.0066 101 142 242.993 357.007 458 499 559.993> 636 149
VStem: 101 41<105.5 522> 186 165 458 41<105.5 522>
LayerCount: 2
Back
SplineSet
499 522 m 1
 499 185 l 2
 499 71 412 -16 300 -16 c 0
 187 -16 101 71 101 185 c 2
 101 522 l 1
 67 522 l 2
 49 522 40 529 40 543 c 0
 40 557 49 563 67 563 c 2
 216 563 l 2
 234 563 243 556 243 543 c 0
 243 529 234 522 216 522 c 2
 142 522 l 1
 142 185 l 2
 142 95 211 25 300 25 c 0
 388 25 458 95 458 185 c 2
 458 522 l 1
 384 522 l 2
 366 522 357 529 357 543 c 0
 357 557 365 563 384 563 c 2
 533 563 l 2
 552 563 560 557 560 543 c 0
 560 529 551 522 533 522 c 2
 499 522 l 1
227 780 m 2
 341 680 l 1
 348 672 l 2
 353 667 353 667 353 661 c 0
 353 649 344 640 332 640 c 0
 327 640 321 643 314 649 c 2
 200 749 l 2
 191 757 188 761 188 769 c 0
 188 780 197 789 208 789 c 0
 214 789 219 786 227 780 c 2
EndSplineSet
Fore
Refer: 583 715 S 1 0 0 1 31 146 0
Refer: 53 85 N 1 0 0 1 0 0 1
EndChar

StartChar: Uacute
Encoding: 218 218 153
Width: 600
Flags: W
HStem: -16 41<220.908 378.659> 522 41<40.0066 101 142 242.993 357.007 458 499 559.993> 636 149
VStem: 101 41<105.5 522> 250 165 458 41<105.5 522>
LayerCount: 2
Back
SplineSet
499 522 m 1
 499 185 l 2
 499 71 412 -16 300 -16 c 0
 187 -16 101 71 101 185 c 2
 101 522 l 1
 67 522 l 2
 49 522 40 529 40 543 c 0
 40 557 49 563 67 563 c 2
 216 563 l 2
 234 563 243 556 243 543 c 0
 243 529 234 522 216 522 c 2
 142 522 l 1
 142 185 l 2
 142 95 211 25 300 25 c 0
 388 25 458 95 458 185 c 2
 458 522 l 1
 384 522 l 2
 366 522 357 529 357 543 c 0
 357 557 365 563 384 563 c 2
 533 563 l 2
 552 563 560 557 560 543 c 0
 560 529 551 522 533 522 c 2
 499 522 l 1
401 749 m 2
 287 649 l 2
 278 642 274 640 268 640 c 0
 257 640 248 649 248 661 c 0
 248 668 250 671 260 680 c 2
 374 780 l 2
 383 787 387 789 393 789 c 0
 404 789 413 780 413 768 c 0
 413 761 410 757 401 749 c 2
EndSplineSet
Fore
Refer: 582 714 N 1 0 0 1 -30 146 0
Refer: 53 85 N 1 0 0 1 0 0 1
EndChar

StartChar: Ucircumflex
Encoding: 219 219 154
Width: 600
Flags: W
HStem: -16 41<220.908 378.659> 522 41<40.0066 101 142 242.993 357.007 458 499 559.993> 636 149
VStem: 101 41<105.5 522> 155 290 458 41<105.5 522>
CounterMasks: 1 1c
LayerCount: 2
Back
SplineSet
499 522 m 1
 499 185 l 2
 499 71 412 -16 300 -16 c 0
 187 -16 101 71 101 185 c 2
 101 522 l 1
 67 522 l 2
 49 522 40 529 40 543 c 0
 40 557 49 563 67 563 c 2
 216 563 l 2
 234 563 243 556 243 543 c 0
 243 529 234 522 216 522 c 2
 142 522 l 1
 142 185 l 2
 142 95 211 25 300 25 c 0
 388 25 458 95 458 185 c 2
 458 522 l 1
 384 522 l 2
 366 522 357 529 357 543 c 0
 357 557 365 563 384 563 c 2
 533 563 l 2
 552 563 560 557 560 543 c 0
 560 529 551 522 533 522 c 2
 499 522 l 1
300 789 m 1
 432 681 l 2
 443 672 445 668 445 660 c 0
 445 649 436 640 425 640 c 0
 420 640 414 643 407 648 c 2
 300 736 l 1
 193 648 l 2
 186 643 180 640 175 640 c 0
 164 640 155 649 155 660 c 0
 155 668 159 672 168 680 c 0
 300 789 l 1
EndSplineSet
Fore
Refer: 578 710 N 1 0 0 1 0 146 0
Refer: 53 85 N 1 0 0 1 0 0 1
EndChar

StartChar: Udieresis
Encoding: 220 220 155
Width: 600
Flags: W
HStem: -16 41<220.908 378.659> 522 41<40.0066 101 142 242.993 357.007 458 499 559.993> 636 100<149.396 230.604 370.396 451.604>
VStem: 101 41<105.5 522> 140 100<645.396 726.544> 361 100<645.396 726.544> 458 41<105.5 522>
LayerCount: 2
Back
SplineSet
499 522 m 1xf2
 499 185 l 2
 499 71 412 -16 300 -16 c 0
 187 -16 101 71 101 185 c 2
 101 522 l 1
 67 522 l 2
 49 522 40 529 40 543 c 0
 40 557 49 563 67 563 c 2
 216 563 l 2
 234 563 243 556 243 543 c 0
 243 529 234 522 216 522 c 2
 142 522 l 1
 142 185 l 2
 142 95 211 25 300 25 c 0
 388 25 458 95 458 185 c 2
 458 522 l 1
 384 522 l 2
 366 522 357 529 357 543 c 0
 357 557 365 563 384 563 c 2
 533 563 l 2
 552 563 560 557 560 543 c 0
 560 529 551 522 533 522 c 2
 499 522 l 1xf2
189 761 m 0
 217 761 239 738 239 710 c 0
 239 684 216 661 189 661 c 0
 162 661 139 684 139 711 c 0xe8
 139 738 162 761 189 761 c 0
410 761 m 0
 438 761 460 738 460 710 c 0
 460 684 437 661 410 661 c 0
 383 661 360 684 360 711 c 0xe4
 360 738 383 761 410 761 c 0
EndSplineSet
Fore
Refer: 103 168 N 1 0 0 1 0 125 0
Refer: 53 85 N 1 0 0 1 0 0 1
EndChar

StartChar: Yacute
Encoding: 221 221 156
Width: 600
Flags: W
HStem: 0 41<149.007 281 322 453.993> 522 41<51.0066 102 151 215.993 384.007 452 498 548.992> 636 149
VStem: 250 165 281 41<41 254>
LayerCount: 2
Back
SplineSet
322 254 m 1
 322 41 l 1
 427 41 l 2
 445 41 454 34 454 21 c 0
 454 7 445 0 427 0 c 2
 176 0 l 2
 158 0 149 7 149 21 c 0
 149 34 158 41 176 41 c 2
 281 41 l 1
 281 254 l 1
 102 522 l 1
 78 522 l 2
 60 522 51 529 51 543 c 0
 51 556 60 563 78 563 c 2
 189 563 l 2
 207 563 216 556 216 543 c 0
 216 529 207 522 189 522 c 2
 151 522 l 1
 303 295 l 1
 452 522 l 1
 412 522 l 2
 393 522 384 529 384 543 c 0
 384 556 393 563 412 563 c 2
 522 563 l 2
 539 563 549 555 549 543 c 0
 549 530 538 522 522 522 c 2
 498 522 l 1
 322 254 l 1
401 749 m 2
 287 649 l 2
 278 642 274 640 268 640 c 0
 257 640 248 649 248 661 c 0
 248 668 250 671 260 680 c 2
 374 780 l 2
 383 787 387 789 393 789 c 0
 404 789 413 780 413 768 c 0
 413 761 410 757 401 749 c 2
EndSplineSet
Fore
Refer: 582 714 N 1 0 0 1 -30 146 0
Refer: 57 89 N 1 0 0 1 0 0 1
EndChar

StartChar: Thorn
Encoding: 222 222 157
Width: 600
Flags: W
HStem: 0 41<43.0066 124 165 330.993> 131 41<165 384.831> 422 41<165 392.645> 522 41<43.0066 124 165 330.993>
VStem: 124 41<41 131 172 422 463 522> 458 41<235.996 362.55>
LayerCount: 2
Fore
SplineSet
165 131 m 1
 165 41 l 1
 303 41 l 2
 322 41 331 34 331 21 c 0
 331 7 321 0 303 0 c 2
 70 0 l 2
 52 0 43 7 43 21 c 0
 43 34 52 41 70 41 c 2
 124 41 l 1
 124 522 l 1
 70 522 l 2
 52 522 43 529 43 543 c 0
 43 556 52 563 70 563 c 2
 303 563 l 2
 322 563 331 556 331 543 c 0
 331 529 322 522 303 522 c 2
 165 522 l 1
 165 463 l 1
 310 463 l 2
 416 463 499 391 499 298 c 0
 499 205 410 131 296 131 c 2
 165 131 l 1
165 172 m 1
 299 172 l 2
 386 172 458 229 458 298 c 0
 458 366 393 422 314 422 c 2
 165 422 l 1
 165 172 l 1
EndSplineSet
EndChar

StartChar: germandbls
Encoding: 223 223 158
Width: 600
Flags: W
HStem: -16 41<318.226 415.182> 0 41<43.0066 124 165 206.993> 334 41<247.007 335.014> 563 41<199.158 329.142>
VStem: 124 41<41 528.809> 371 41<408.009 521.247> 458 41<74.7466 242.882>
LayerCount: 2
Fore
SplineSet
458 162 m 0xbe
 458 299 320 334 279 334 c 2
 274 334 l 2
 256 334 247 341 247 355 c 0
 247 367 256 375 270 375 c 2
 275 375 l 2
 326 375 371 415 371 459 c 0
 371 516 324 563 266 563 c 0
 210 563 165 525 165 476 c 2
 165 41 l 1
 180 41 l 2
 198 41 207 34 207 21 c 0
 207 7 198 0 180 0 c 2
 70 0 l 2
 52 0 43 7 43 21 c 0
 43 34 52 41 70 41 c 2
 124 41 l 1x7e
 124 476 l 2
 124 547 188 604 266 604 c 0
 347 604 412 539 412 458 c 0
 412 417 394 386 354 359 c 1
 450 320 499 253 499 161 c 0
 499 60 441 -16 365 -16 c 0
 305 -16 259 35 259 101 c 0
 259 115 267 124 279 124 c 0
 314 124 285 25 365 25 c 0
 417 25 458 85 458 162 c 0xbe
EndSplineSet
EndChar

StartChar: agrave
Encoding: 224 224 159
Width: 600
Flags: W
HStem: -16 41<147.63 327.128> 0 41<460 540.993> 217 41<178.262 416.779> 390 41<184.429 381.887> 491 149
VStem: 72 41<57.3261 165.246> 175 165 419 41<41 67 112 202 237 357.084>
LayerCount: 2
Back
SplineSet
125 378 m 0xbc
 125 411 266 431 299 431 c 0
 392 431 460 379 460 308 c 2
 460 41 l 1
 514 41 l 2
 532 41 541 34 541 21 c 0
 541 7 532 0 514 0 c 2
 419 0 l 1x7c
 419 67 l 1
 358 10 298 -16 228 -16 c 0
 135 -16 72 36 72 112 c 0
 72 199 158 258 283 258 c 0
 329 258 360 253 419 237 c 1
 419 308 l 2
 419 357 369 390 296 390 c 0
 216 390 173 358 144 358 c 0
 134 358 125 367 125 378 c 0xbc
419 112 m 1
 419 202 l 1
 383 211 335 217 291 217 c 0
 185 217 113 174 113 111 c 0
 113 59 158 25 227 25 c 0xbc
 298 25 352 49 419 112 c 1
213 630 m 2
 327 530 l 1
 334 522 l 2
 339 517 339 517 339 511 c 0
 339 499 330 490 318 490 c 0
 313 490 307 493 300 499 c 2
 186 599 l 2
 177 607 174 611 174 619 c 0
 174 630 183 639 194 639 c 0
 200 639 205 636 213 630 c 2
EndSplineSet
Fore
Refer: 583 715 S 1 0 0 1 20 1 0
Refer: 65 97 N 1 0 0 1 0 0 1
EndChar

StartChar: aacute
Encoding: 225 225 160
Width: 600
Flags: W
HStem: -16 41<147.63 327.128> 0 41<460 540.993> 217 41<178.262 416.779> 390 41<184.429 381.887> 491 149
VStem: 72 41<57.3261 165.246> 239 165 419 41<41 67 112 202 237 357.084>
LayerCount: 2
Back
SplineSet
125 378 m 0xbc
 125 411 266 431 299 431 c 0
 392 431 460 379 460 308 c 2
 460 41 l 1
 514 41 l 2
 532 41 541 34 541 21 c 0
 541 7 532 0 514 0 c 2
 419 0 l 1x7c
 419 67 l 1
 358 10 298 -16 228 -16 c 0
 135 -16 72 36 72 112 c 0
 72 199 158 258 283 258 c 0
 329 258 360 253 419 237 c 1
 419 308 l 2
 419 357 369 390 296 390 c 0
 216 390 173 358 144 358 c 0
 134 358 125 367 125 378 c 0xbc
419 112 m 1
 419 202 l 1
 383 211 335 217 291 217 c 0
 185 217 113 174 113 111 c 0
 113 59 158 25 227 25 c 0xbc
 298 25 352 49 419 112 c 1
387 599 m 2
 273 499 l 2
 264 492 260 490 254 490 c 0
 243 490 234 499 234 511 c 0
 234 518 236 521 246 530 c 2
 360 630 l 2
 369 637 373 639 379 639 c 0
 390 639 399 630 399 618 c 0
 399 611 396 607 387 599 c 2
EndSplineSet
Fore
Refer: 582 714 S 1 0 0 1 -41 1 0
Refer: 65 97 N 1 0 0 1 0 0 1
EndChar

StartChar: acircumflex
Encoding: 226 226 161
Width: 600
Flags: W
HStem: -16 41<147.63 327.128> 0 41<460 540.993> 217 41<178.262 416.779> 390 41<184.429 381.887> 491 149
VStem: 72 41<57.3261 165.246> 144 290 419 41<41 67 112 202 237 357.084>
LayerCount: 2
Back
SplineSet
125 378 m 0xbc
 125 411 266 431 299 431 c 0
 392 431 460 379 460 308 c 2
 460 41 l 1
 514 41 l 2
 532 41 541 34 541 21 c 0
 541 7 532 0 514 0 c 2
 419 0 l 1x7c
 419 67 l 1
 358 10 298 -16 228 -16 c 0
 135 -16 72 36 72 112 c 0
 72 199 158 258 283 258 c 0
 329 258 360 253 419 237 c 1
 419 308 l 2
 419 357 369 390 296 390 c 0
 216 390 173 358 144 358 c 0
 134 358 125 367 125 378 c 0xbc
419 112 m 1
 419 202 l 1
 383 211 335 217 291 217 c 0
 185 217 113 174 113 111 c 0
 113 59 158 25 227 25 c 0xbc
 298 25 352 49 419 112 c 1
290 639 m 1
 422 531 l 2
 433 522 435 518 435 510 c 0
 435 499 426 490 415 490 c 0
 410 490 404 493 397 498 c 2
 290 586 l 1
 183 498 l 2
 176 493 170 490 165 490 c 0
 154 490 145 499 145 510 c 0
 145 518 149 522 158 530 c 0
 290 639 l 1
EndSplineSet
Fore
Refer: 578 710 N 1 0 0 1 -11 1 0
Refer: 65 97 N 1 0 0 1 0 0 1
EndChar

StartChar: atilde
Encoding: 227 227 162
Width: 600
Flags: W
HStem: -16 41<147.63 327.128> 0 41<460 540.993> 217 41<178.262 416.779> 390 41<184.429 381.887> 491 41<308.731 402.1> 494 86<164 238 363 434> 539 41<196.27 290.255>
VStem: 72 41<57.3261 165.246> 144 310 419 41<41 67 112 202 237 357.084>
LayerCount: 2
Back
SplineSet
125 378 m 0xbf
 125 411 266 431 299 431 c 0
 392 431 460 379 460 308 c 2
 460 41 l 1
 514 41 l 2
 532 41 541 34 541 21 c 0
 541 7 532 0 514 0 c 2
 419 0 l 1x7f
 419 67 l 1
 358 10 298 -16 228 -16 c 0
 135 -16 72 36 72 112 c 0
 72 199 158 258 283 258 c 0
 329 258 360 253 419 237 c 1
 419 308 l 2
 419 357 369 390 296 390 c 0
 216 390 173 358 144 358 c 0
 134 358 125 367 125 378 c 0xbf
419 112 m 1
 419 202 l 1
 383 211 335 217 291 217 c 0
 185 217 113 174 113 111 c 0
 113 59 158 25 227 25 c 0xbf
 298 25 352 49 419 112 c 1
352 557 m 0
 385 557 408 603 425 603 c 0
 435 603 445 594 445 583 c 0
 445 565 394 516 354 516 c 0
 307 516 259 564 230 564 c 0
 185 564 183 519 155 519 c 0
 144 519 135 527 135 538 c 0
 135 561 189 605 229 605 c 0
 272 605 323 557 352 557 c 0
EndSplineSet
Fore
Refer: 596 732 N 1 0 0 1 -1 -25 0
Refer: 65 97 N 1 0 0 1 0 0 1
EndChar

StartChar: adieresis
Encoding: 228 228 163
Width: 600
Flags: W
HStem: -16 41<147.63 327.128> 0 41<460 540.993> 217 41<178.262 416.779> 390 41<184.429 381.887> 491 100<137.396 218.604 358.396 439.604>
VStem: 72 41<57.3261 165.246> 128 100<500.396 581.544> 349 100<500.396 581.544> 419 41<41 67 112 202 237 357.084>
LayerCount: 2
Back
SplineSet
125 378 m 0xbe80
 125 411 266 431 299 431 c 0
 392 431 460 379 460 308 c 2
 460 41 l 1
 514 41 l 2
 532 41 541 34 541 21 c 0
 541 7 532 0 514 0 c 2
 419 0 l 1x7e80
 419 67 l 1
 358 10 298 -16 228 -16 c 0
 135 -16 72 36 72 112 c 0
 72 199 158 258 283 258 c 0
 329 258 360 253 419 237 c 1
 419 308 l 2
 419 357 369 390 296 390 c 0
 216 390 173 358 144 358 c 0
 134 358 125 367 125 378 c 0xbe80
419 112 m 1
 419 202 l 1
 383 211 335 217 291 217 c 0
 185 217 113 174 113 111 c 0
 113 59 158 25 227 25 c 0xbe80
 298 25 352 49 419 112 c 1
179 611 m 0
 207 611 229 588 229 560 c 0
 229 534 206 511 179 511 c 0
 152 511 129 534 129 561 c 0
 129 588 152 611 179 611 c 0
400 611 m 0
 428 611 450 588 450 560 c 0
 450 534 427 511 400 511 c 0
 373 511 350 534 350 561 c 0x3f
 350 588 373 611 400 611 c 0
EndSplineSet
Fore
Refer: 103 168 N 1 0 0 1 -12 -20 0
Refer: 65 97 N 1 0 0 1 0 0 1
EndChar

StartChar: aring
Encoding: 229 229 164
Width: 600
Flags: W
HStem: -16 41<147.63 327.128> 0 41<460 540.993> 217 41<178.262 416.779> 390 41<184.429 381.887> 491 33<252.808 345.192> 639 33<252.808 345.415>
VStem: 72 41<57.3261 165.246> 206 33<537.997 625.208> 359 33<537.63 625.062> 419 41<41 67 112 202 237 357.084>
LayerCount: 2
Back
SplineSet
125 378 m 0xbfc0
 125 411 266 431 299 431 c 0
 392 431 460 379 460 308 c 2
 460 41 l 1
 514 41 l 2
 532 41 541 34 541 21 c 0
 541 7 532 0 514 0 c 2
 419 0 l 1x7fc0
 419 67 l 1
 358 10 298 -16 228 -16 c 0
 135 -16 72 36 72 112 c 0
 72 199 158 258 283 258 c 0
 329 258 360 253 419 237 c 1
 419 308 l 2
 419 357 369 390 296 390 c 0
 216 390 173 358 144 358 c 0
 134 358 125 367 125 378 c 0xbfc0
419 112 m 1
 419 202 l 1
 383 211 335 217 291 217 c 0
 185 217 113 174 113 111 c 0
 113 59 158 25 227 25 c 0xbfc0
 298 25 352 49 419 112 c 1
290 661 m 0
 342 661 383 621 383 569 c 0
 383 521 341 480 290 480 c 0
 239 480 197 521 197 571 c 0
 197 620 239 661 290 661 c 0
290 628 m 0
 257 628 230 602 230 571 c 0
 230 539 257 513 290 513 c 0
 323 513 350 539 350 570 c 0
 350 602 323 628 290 628 c 0
EndSplineSet
Fore
Refer: 594 730 N 1 0 0 1 -1 11 0
Refer: 65 97 N 1 0 0 1 0 0 1
EndChar

StartChar: ae
Encoding: 230 230 165
Width: 600
Flags: W
HStem: -16 41<94.1871 218.611 386.266 502.126> 199 41<202.082 280 320 535> 216 41<107.93 278.687> 390 41<115.398 249.504 371.696 486.449>
VStem: 12 45<60.2395 176.281> 280 40<0.0065918 52 245 325.4>
LayerCount: 2
Fore
SplineSet
71 378 m 0xbc
 71 410 170 431 199 431 c 0
 248 431 293 398 312 347 c 1
 336 399 382 431 430 431 c 0
 533 431 574 332 577 199 c 1
 319 199 l 1xdc
 326 97 379 25 446 25 c 0
 503 25 536 87 558 87 c 0
 569 87 578 77 578 67 c 0
 578 48 504 -16 444 -16 c 0
 398 -16 352 12 320 61 c 1
 320 27 l 2
 320 9 313 0 300 0 c 0
 287 0 280 9 280 27 c 2
 280 52 l 1
 241 5 204 -16 160 -16 c 0
 75 -16 12 47 12 132 c 0
 12 205 95 257 195 257 c 0
 223 257 251 253 280 245 c 1
 280 305 l 2
 280 352 241 390 192 390 c 0
 131 390 109 358 90 358 c 0
 81 358 71 369 71 378 c 0xbc
280 110 m 1
 280 203 l 1
 253 211 224 216 201 216 c 0xbc
 158 216 100 197 78 176 c 0
 64 162 57 145 57 121 c 0
 57 65 101 25 162 25 c 0
 199 25 233 50 280 110 c 1
535 240 m 1xdc
 528 296 514 390 429 390 c 0
 369 390 333 340 320 240 c 1
 535 240 l 1xdc
EndSplineSet
EndChar

StartChar: ccedilla
Encoding: 231 231 166
Width: 600
Flags: W
HStem: -173 38<229.233 341.77> -81 34<315 342.453> -14 39<219.561 277 315 417.785> 390 41<220.324 409.244>
VStem: 84 41<116.938 295.903> 277 38<-47 -16> 343 37<-131.481 -83.6783> 470 41<271.007 338.484 376 416.993>
LayerCount: 2
Fore
SplineSet
535 88 m 0
 535 67 465 -8 315 -16 c 1
 315 -47 l 1
 356 -48 380 -70 380 -108 c 0
 380 -147 348 -173 301 -173 c 0
 271 -173 213 -156 213 -134 c 0
 213 -123 222 -114 233 -114 c 0
 246 -114 268 -135 299 -135 c 0
 325 -135 343 -123 343 -106 c 0
 343 -89 328 -81 298 -81 c 2
 277 -81 l 1
 277 -14 l 1
 101 11 84 158 84 204 c 0
 84 336 180 431 314 431 c 0
 376 431 429 412 470 376 c 1
 470 389 l 2
 470 408 477 417 491 417 c 0
 504 417 511 408 511 389 c 2
 511 298 l 2
 511 280 504 271 491 271 c 0
 478 271 471 278 470 295 c 0
 465 348 395 390 311 390 c 0
 201 390 125 315 125 205 c 0
 125 100 202 25 311 25 c 0
 384 25 446 49 498 97 c 0
 506 105 509 107 516 107 c 0
 526 107 535 98 535 88 c 0
EndSplineSet
EndChar

StartChar: egrave
Encoding: 232 232 167
Width: 600
Flags: W
HStem: -16 41<210.154 420.958> 199 41<104 478> 390 41<196.865 383.966> 491 149
VStem: 187 165
LayerCount: 2
Back
SplineSet
520 199 m 1
 104 199 l 1
 118 94 198 25 306 25 c 0
 368 25 441 47 481 79 c 0
 488 84 492 86 497 86 c 0
 507 86 516 77 516 66 c 0
 516 31 396 -16 305 -16 c 0
 170 -16 63 87 63 217 c 0
 63 338 163 431 291 431 c 0
 424 431 520 340 520 199 c 1
104 240 m 1
 478 240 l 1
 462 331 388 390 291 390 c 0
 194 390 122 332 104 240 c 1
228 630 m 2
 342 530 l 1
 349 522 l 2
 354 517 354 517 354 511 c 0
 354 499 345 490 333 490 c 0
 328 490 322 493 315 499 c 2
 201 599 l 2
 192 607 189 611 189 619 c 0
 189 630 198 639 209 639 c 0
 215 639 220 636 228 630 c 2
EndSplineSet
Fore
Refer: 583 715 N 1 0 0 1 32 1 0
Refer: 69 101 N 1 0 0 1 0 0 1
EndChar

StartChar: eacute
Encoding: 233 233 168
Width: 600
Flags: W
HStem: -16 41<210.154 420.958> 199 41<104 478> 390 41<196.865 383.966> 491 149
VStem: 251 165
LayerCount: 2
Back
SplineSet
520 199 m 1
 104 199 l 1
 118 94 198 25 306 25 c 0
 368 25 441 47 481 79 c 0
 488 84 492 86 497 86 c 0
 507 86 516 77 516 66 c 0
 516 31 396 -16 305 -16 c 0
 170 -16 63 87 63 217 c 0
 63 338 163 431 291 431 c 0
 424 431 520 340 520 199 c 1
104 240 m 1
 478 240 l 1
 462 331 388 390 291 390 c 0
 194 390 122 332 104 240 c 1
402 599 m 2
 288 499 l 2
 279 492 275 490 269 490 c 0
 258 490 249 499 249 511 c 0
 249 518 251 521 261 530 c 2
 375 630 l 2
 384 637 388 639 394 639 c 0
 405 639 414 630 414 618 c 0
 414 611 411 607 402 599 c 2
EndSplineSet
Fore
Refer: 582 714 N 1 0 0 1 -29 1 0
Refer: 69 101 N 1 0 0 1 0 0 1
EndChar

StartChar: ecircumflex
Encoding: 234 234 169
Width: 600
Flags: W
HStem: -16 41<210.154 420.958> 199 41<104 478> 390 41<196.865 383.966> 491 149
VStem: 158 290
LayerCount: 2
Back
SplineSet
520 199 m 1
 104 199 l 1
 118 94 198 25 306 25 c 0
 368 25 441 47 481 79 c 0
 488 84 492 86 497 86 c 0
 507 86 516 77 516 66 c 0
 516 31 396 -16 305 -16 c 0
 170 -16 63 87 63 217 c 0
 63 338 163 431 291 431 c 0
 424 431 520 340 520 199 c 1
104 240 m 1
 478 240 l 1
 462 331 388 390 291 390 c 0
 194 390 122 332 104 240 c 1
305 639 m 1
 437 531 l 2
 448 522 450 518 450 510 c 0
 450 499 441 490 430 490 c 0
 425 490 419 493 412 498 c 2
 305 586 l 1
 198 498 l 2
 191 493 185 490 180 490 c 0
 169 490 160 499 160 510 c 0
 160 518 164 522 173 530 c 0
 305 639 l 1
EndSplineSet
Fore
Refer: 578 710 N 1 0 0 1 3 1 0
Refer: 69 101 N 1 0 0 1 0 0 1
EndChar

StartChar: edieresis
Encoding: 235 235 170
Width: 600
Flags: W
HStem: -16 41<210.154 420.958> 199 41<104 478> 390 41<196.865 383.966> 491 100<153.396 234.604 374.396 455.604>
VStem: 144 100<500.396 581.544> 365 100<500.396 581.544>
LayerCount: 2
Back
SplineSet
520 199 m 1
 104 199 l 1
 118 94 198 25 306 25 c 0
 368 25 441 47 481 79 c 0
 488 84 492 86 497 86 c 0
 507 86 516 77 516 66 c 0
 516 31 396 -16 305 -16 c 0
 170 -16 63 87 63 217 c 0
 63 338 163 431 291 431 c 0
 424 431 520 340 520 199 c 1
104 240 m 1
 478 240 l 1
 462 331 388 390 291 390 c 0
 194 390 122 332 104 240 c 1
194 611 m 0
 222 611 244 588 244 560 c 0
 244 534 221 511 194 511 c 0
 167 511 144 534 144 561 c 0
 144 588 167 611 194 611 c 0
415 611 m 0
 443 611 465 588 465 560 c 0
 465 534 442 511 415 511 c 0
 388 511 365 534 365 561 c 0
 365 588 388 611 415 611 c 0
EndSplineSet
Fore
Refer: 103 168 N 1 0 0 1 4 -20 0
Refer: 69 101 N 1 0 0 1 0 0 1
EndChar

StartChar: igrave
Encoding: 236 236 171
Width: 600
Flags: W
HStem: 0 41<92.0066 279 320 507.993> 376 41<134.007 279> 491 149
VStem: 176 165 279 41<41 376>
LayerCount: 2
Back
SplineSet
320 417 m 1
 320 41 l 1
 480 41 l 2
 499 41 508 34 508 21 c 0
 508 7 498 0 480 0 c 2
 119 0 l 2
 101 0 92 7 92 21 c 0
 92 34 101 41 119 41 c 2
 279 41 l 1
 279 376 l 1
 161 376 l 2
 143 376 134 383 134 397 c 0
 134 410 143 417 161 417 c 2
 320 417 l 1
217 630 m 2
 331 530 l 1
 338 522 l 2
 343 517 343 517 343 511 c 0
 343 499 334 490 322 490 c 0
 317 490 311 493 304 499 c 2
 190 599 l 2
 181 607 178 611 178 619 c 0
 178 630 187 639 198 639 c 0
 204 639 209 636 217 630 c 2
EndSplineSet
Fore
Refer: 583 715 N 1 0 0 1 21 1 0
Refer: 240 305 N 1 0 0 1 0 0 1
EndChar

StartChar: iacute
Encoding: 237 237 172
Width: 600
Flags: W
HStem: 0 41<92.0066 279 320 507.993> 376 41<134.007 279> 491 149
VStem: 239 165 279 41<41 376>
LayerCount: 2
Back
SplineSet
320 417 m 1
 320 41 l 1
 480 41 l 2
 499 41 508 34 508 21 c 0
 508 7 498 0 480 0 c 2
 119 0 l 2
 101 0 92 7 92 21 c 0
 92 34 101 41 119 41 c 2
 279 41 l 1
 279 376 l 1
 161 376 l 2
 143 376 134 383 134 397 c 0
 134 410 143 417 161 417 c 2
 320 417 l 1
391 599 m 2
 277 499 l 2
 268 492 264 490 258 490 c 0
 247 490 238 499 238 511 c 0
 238 518 240 521 250 530 c 2
 364 630 l 2
 373 637 377 639 383 639 c 0
 394 639 403 630 403 618 c 0
 403 611 400 607 391 599 c 2
EndSplineSet
Fore
Refer: 582 714 N 1 0 0 1 -41 1 0
Refer: 240 305 N 1 0 0 1 0 0 1
EndChar

StartChar: icircumflex
Encoding: 238 238 173
Width: 600
Flags: W
HStem: 0 41<92.0066 279 320 507.993> 376 41<134.007 279> 491 149
VStem: 136 290 279 41<41 376>
LayerCount: 2
Back
SplineSet
320 417 m 1
 320 41 l 1
 480 41 l 2
 499 41 508 34 508 21 c 0
 508 7 498 0 480 0 c 2
 119 0 l 2
 101 0 92 7 92 21 c 0
 92 34 101 41 119 41 c 2
 279 41 l 1
 279 376 l 1
 161 376 l 2
 143 376 134 383 134 397 c 0
 134 410 143 417 161 417 c 2
 320 417 l 1
283 639 m 1
 415 531 l 2
 426 522 428 518 428 510 c 0
 428 499 419 490 408 490 c 0
 403 490 397 493 390 498 c 2
 283 586 l 1
 176 498 l 2
 169 493 163 490 158 490 c 0
 147 490 138 499 138 510 c 0
 138 518 142 522 151 530 c 0
 283 639 l 1
EndSplineSet
Fore
Refer: 578 710 N 1 0 0 1 -19 1 0
Refer: 240 305 N 1 0 0 1 0 0 1
EndChar

StartChar: idieresis
Encoding: 239 239 174
Width: 600
Flags: W
HStem: 0 41<92.0066 279 320 507.993> 376 41<134.007 279> 491 100<135.396 216.604 356.396 437.604>
VStem: 126 100<500.396 581.544> 279 41<41 376> 347 100<500.396 581.544>
LayerCount: 2
Back
SplineSet
320 417 m 1
 320 41 l 1
 480 41 l 2
 499 41 508 34 508 21 c 0
 508 7 498 0 480 0 c 2
 119 0 l 2
 101 0 92 7 92 21 c 0
 92 34 101 41 119 41 c 2
 279 41 l 1
 279 376 l 1
 161 376 l 2
 143 376 134 383 134 397 c 0
 134 410 143 417 161 417 c 2
 320 417 l 1
176 611 m 0
 204 611 226 588 226 560 c 0
 226 534 203 511 176 511 c 0
 149 511 126 534 126 561 c 0
 126 588 149 611 176 611 c 0
398 611 m 0
 426 611 448 588 448 560 c 0
 448 534 425 511 398 511 c 0
 371 511 348 534 348 561 c 0
 348 588 371 611 398 611 c 0
EndSplineSet
Fore
Refer: 103 168 N 1 0 0 1 -14 -20 0
Refer: 240 305 N 1 0 0 1 0 0 1
EndChar

StartChar: eth
Encoding: 240 240 175
Width: 600
Flags: W
HStem: -17 42<213.749 388.975> 390 40<213.3 390.821> 577 38<422.929 434.525>
VStem: 72 42<124.306 292.402> 488 40<122.094 290.004>
LayerCount: 2
Fore
SplineSet
277 549 m 1
 183 589 159 575 159 598 c 0
 159 611 168 620 180 620 c 0
 207 620 269 600 328 572 c 1
 423 614 l 1
 430 615 l 2
 440 615 449 606 449 594 c 0
 449 586 445 579 440 577 c 2
 365 543 l 1
 465 457 528 331 528 221 c 0
 528 72 424 -17 300 -17 c 0
 173 -17 72 82 72 207 c 0
 72 330 173 430 298 430 c 0
 353 430 390 416 444 377 c 1
 410 441 365 495 323 525 c 1
 232 483 l 2
 230 482 228 482 225 482 c 0
 215 482 205 493 205 505 c 0
 205 512 208 519 214 521 c 2
 277 549 l 1
301 390 m 0
 197 390 114 309 114 208 c 0
 114 106 197 25 301 25 c 0
 404 25 488 106 488 205 c 0
 488 310 406 390 301 390 c 0
EndSplineSet
EndChar

StartChar: ntilde
Encoding: 241 241 176
Width: 600
Flags: W
HStem: 0 41<53.0066 126 167 238.993 378.007 439 480 540.993> 376 41<65.0066 126> 390 41<240.775 396.13> 491 41<299.731 393.1> 494 86<155 229 354 425> 539 41<187.27 281.255>
VStem: 65 102<376.251 416.75> 126 41<41 294 348 376> 135 310 439 41<41 348.734>
LayerCount: 2
Back
SplineSet
319 390 m 0xbe
 230 390 189 322 167 294 c 1
 167 41 l 1
 212 41 l 2
 230 41 239 34 239 21 c 0
 239 7 230 0 212 0 c 2
 81 0 l 2
 62 0 53 7 53 21 c 0
 53 34 62 41 81 41 c 2
 126 41 l 1
 126 376 l 1
 92 376 l 2
 74 376 65 383 65 397 c 0
 65 410 74 417 92 417 c 2
 167 417 l 1xde
 167 348 l 1
 225 412 261 431 323 431 c 0
 412 431 480 372 480 295 c 2
 480 41 l 1
 514 41 l 2
 532 41 541 34 541 21 c 0
 541 7 532 0 514 0 c 2
 405 0 l 2
 387 0 378 7 378 21 c 0
 378 34 387 41 405 41 c 2
 439 41 l 1
 439 288 l 2
 439 344 394 390 319 390 c 0xbe
352 557 m 0
 385 557 408 603 425 603 c 0
 435 603 445 594 445 583 c 0
 445 565 394 516 354 516 c 0
 307 516 259 564 230 564 c 0
 185 564 183 519 155 519 c 0
 144 519 135 527 135 538 c 0
 135 561 189 605 229 605 c 0
 272 605 323 557 352 557 c 0
EndSplineSet
Fore
Refer: 596 732 S 1 0 0 1 -10 -25 0
Refer: 78 110 N 1 0 0 1 0 0 1
EndChar

StartChar: ograve
Encoding: 242 242 177
Width: 600
Flags: W
HStem: -16 41<210.671 388.897> 390 41<210.671 389.762> 491 149
VStem: 72 41<124.806 290.386> 189 165 487 41<123.612 292.179>
LayerCount: 2
Back
SplineSet
300 431 m 0
 428 431 528 332 528 205 c 0
 528 83 426 -16 300 -16 c 0
 173 -16 72 83 72 208 c 0
 72 331 173 431 300 431 c 0
300 390 m 0
 196 390 113 309 113 208 c 0
 113 106 196 25 300 25 c 0
 403 25 487 106 487 205 c 0
 487 310 405 390 300 390 c 0
230 630 m 2
 344 530 l 1
 351 522 l 2
 356 517 356 517 356 511 c 0
 356 499 347 490 335 490 c 0
 330 490 324 493 317 499 c 2
 203 599 l 2
 194 607 191 611 191 619 c 0
 191 630 200 639 211 639 c 0
 217 639 222 636 230 630 c 2
EndSplineSet
Fore
Refer: 583 715 N 1 0 0 1 34 1 0
Refer: 79 111 N 1 0 0 1 0 0 1
EndChar

StartChar: oacute
Encoding: 243 243 178
Width: 600
Flags: W
HStem: -16 41<210.671 388.897> 390 41<210.671 389.762> 491 149
VStem: 72 41<124.806 290.386> 245 165 487 41<123.612 292.179>
LayerCount: 2
Back
SplineSet
300 431 m 0
 428 431 528 332 528 205 c 0
 528 83 426 -16 300 -16 c 0
 173 -16 72 83 72 208 c 0
 72 331 173 431 300 431 c 0
300 390 m 0
 196 390 113 309 113 208 c 0
 113 106 196 25 300 25 c 0
 403 25 487 106 487 205 c 0
 487 310 405 390 300 390 c 0
398 599 m 2
 284 499 l 2
 275 492 271 490 265 490 c 0
 254 490 245 499 245 511 c 0
 245 518 247 521 257 530 c 2
 371 630 l 2
 380 637 384 639 390 639 c 0
 401 639 410 630 410 618 c 0
 410 611 407 607 398 599 c 2
EndSplineSet
Fore
Refer: 582 714 N 1 0 0 1 -35 1 0
Refer: 79 111 N 1 0 0 1 0 0 1
EndChar

StartChar: ocircumflex
Encoding: 244 244 179
Width: 600
Flags: W
HStem: -16 41<210.671 388.897> 390 41<210.671 389.762> 491 149
VStem: 72 41<124.806 290.386> 155 290 487 41<123.612 292.179>
CounterMasks: 1 1c
LayerCount: 2
Back
SplineSet
300 431 m 0
 428 431 528 332 528 205 c 0
 528 83 426 -16 300 -16 c 0
 173 -16 72 83 72 208 c 0
 72 331 173 431 300 431 c 0
300 390 m 0
 196 390 113 309 113 208 c 0
 113 106 196 25 300 25 c 0
 403 25 487 106 487 205 c 0
 487 310 405 390 300 390 c 0
300 639 m 1
 432 531 l 2
 443 522 445 518 445 510 c 0
 445 499 436 490 425 490 c 0
 420 490 414 493 407 498 c 2
 300 586 l 1
 193 498 l 2
 186 493 180 490 175 490 c 0
 164 490 155 499 155 510 c 0
 155 518 159 522 168 530 c 0
 300 639 l 1
EndSplineSet
Fore
Refer: 578 710 N 1 0 0 1 0 1 0
Refer: 79 111 N 1 0 0 1 0 0 1
EndChar

StartChar: otilde
Encoding: 245 245 180
Width: 600
Flags: W
HStem: -16 41<210.671 388.897> 390 41<210.671 389.762> 491 41<309.731 403.1> 494 86<165 239 364 435> 539 41<197.27 291.255>
VStem: 72 41<124.806 290.386> 145 310 487 41<123.612 292.179>
CounterMasks: 1 07
LayerCount: 2
Back
SplineSet
300 431 m 0
 428 431 528 332 528 205 c 0
 528 83 426 -16 300 -16 c 0
 173 -16 72 83 72 208 c 0
 72 331 173 431 300 431 c 0
300 390 m 0
 196 390 113 309 113 208 c 0
 113 106 196 25 300 25 c 0
 403 25 487 106 487 205 c 0
 487 310 405 390 300 390 c 0
368 557 m 0
 401 557 424 603 441 603 c 0
 451 603 461 594 461 583 c 0
 461 565 410 516 370 516 c 0
 323 516 275 564 246 564 c 0
 201 564 199 519 171 519 c 0
 160 519 151 527 151 538 c 0
 151 561 205 605 245 605 c 0
 288 605 339 557 368 557 c 0
EndSplineSet
Fore
Refer: 596 732 N 1 0 0 1 0 -25 0
Refer: 79 111 N 1 0 0 1 0 0 1
EndChar

StartChar: odieresis
Encoding: 246 246 181
Width: 600
Flags: W
HStem: -16 41<210.671 388.897> 390 41<210.671 389.762> 491 100<149.396 230.604 370.396 451.604>
VStem: 72 41<124.806 290.386> 140 100<500.396 581.544> 361 100<500.396 581.544> 487 41<123.612 292.179>
LayerCount: 2
Back
SplineSet
300 431 m 0
 428 431 528 332 528 205 c 0
 528 83 426 -16 300 -16 c 0
 173 -16 72 83 72 208 c 0
 72 331 173 431 300 431 c 0
300 390 m 0
 196 390 113 309 113 208 c 0
 113 106 196 25 300 25 c 0
 403 25 487 106 487 205 c 0
 487 310 405 390 300 390 c 0
189 611 m 0
 217 611 239 588 239 560 c 0
 239 534 216 511 189 511 c 0
 162 511 139 534 139 561 c 0
 139 588 162 611 189 611 c 0
410 611 m 0
 438 611 460 588 460 560 c 0
 460 534 437 511 410 511 c 0
 383 511 360 534 360 561 c 0
 360 588 383 611 410 611 c 0
EndSplineSet
Fore
Refer: 103 168 N 1 0 0 1 0 -20 0
Refer: 79 111 N 1 0 0 1 0 0 1
EndChar

StartChar: divide
Encoding: 247 247 182
Width: 600
Flags: W
HStem: 25 99<260.058 340.883> 262 40<72.0066 527.993> 441 99<260.058 340.883>
VStem: 251 99<34.1171 115.352 450.117 531.352>
LayerCount: 2
Fore
SplineSet
501 262 m 2
 99 262 l 2
 81 262 72 269 72 282 c 0
 72 295 81 302 99 302 c 2
 501 302 l 2
 519 302 528 295 528 282 c 0
 528 269 519 262 501 262 c 2
300 124 m 0
 328 124 350 102 350 74 c 0
 350 47 327 25 300 25 c 0
 273 25 251 47 251 75 c 0
 251 101 273 124 300 124 c 0
300 540 m 0
 328 540 350 518 350 490 c 0
 350 463 327 441 300 441 c 0
 273 441 251 463 251 491 c 0
 251 517 273 540 300 540 c 0
EndSplineSet
EndChar

StartChar: oslash
Encoding: 248 248 183
Width: 600
Flags: W
HStem: -16 41<211.194 389.329> 390 41<210.671 389.499>
VStem: 72 41<122.185 290.592> 487 41<124.408 292.554>
LayerCount: 2
Fore
SplineSet
154 35 m 1
 88 -33 l 2
 80 -41 76 -43 71 -43 c 0
 61 -43 53 -35 53 -25 c 0
 53 -20 55 -16 63 -8 c 2
 129 59 l 1
 92 102 72 153 72 208 c 0
 72 332 173 431 300 431 c 0
 354 431 402 415 444 382 c 1
 508 448 l 1
 517 456 520 458 526 458 c 0
 535 458 543 450 543 440 c 0
 543 435 541 431 533 423 c 2
 469 358 l 1
 508 315 528 264 528 207 c 0
 528 83 427 -16 300 -16 c 0
 245 -16 198 1 154 35 c 1
441 329 m 1
 183 65 l 1
 216 39 256 25 300 25 c 0
 404 25 487 106 487 207 c 0
 487 253 471 294 441 329 c 1
158 89 m 1
 415 352 l 1
 382 377 343 390 300 390 c 0
 196 390 113 309 113 208 c 0
 113 164 129 122 158 89 c 1
EndSplineSet
EndChar

StartChar: ugrave
Encoding: 249 249 184
Width: 600
Flags: W
HStem: -16 41<196.316 349.205> 0 41<480 540.993> 376 41<43.0066 124 337.007 439> 491 149
VStem: 124 41<58.2305 376> 181 165 439 41<41 66 115 376> 439 102<0.251221 40.7501>
LayerCount: 2
Back
SplineSet
439 0 m 1x78
 439 66 l 1
 384 12 323 -16 257 -16 c 0
 177 -16 124 36 124 115 c 2
 124 376 l 1
 70 376 l 2
 52 376 43 383 43 397 c 0
 43 410 52 417 70 417 c 2
 165 417 l 1
 165 115 l 2
 165 65 205 25 256 25 c 0xb8
 323 25 384 55 439 115 c 1
 439 376 l 1
 365 376 l 2
 346 376 337 383 337 397 c 0
 337 410 346 417 365 417 c 2
 480 417 l 1
 480 41 l 1
 514 41 l 2
 532 41 541 34 541 21 c 0
 541 7 532 0 514 0 c 2
 439 0 l 1x78
222 630 m 2
 336 530 l 1
 343 522 l 2
 348 517 348 517 348 511 c 0
 348 499 339 490 327 490 c 0
 322 490 316 493 309 499 c 2
 195 599 l 2
 186 607 183 611 183 619 c 0
 183 630 192 639 203 639 c 0
 209 639 214 636 222 630 c 2
EndSplineSet
Fore
Refer: 583 715 N 1 0 0 1 26 1 0
Refer: 85 117 N 1 0 0 1 0 0 1
EndChar

StartChar: uacute
Encoding: 250 250 185
Width: 600
Flags: W
HStem: -16 41<196.316 349.205> 0 41<480 540.993> 376 41<43.0066 124 337.007 439> 491 149
VStem: 124 41<58.2305 376> 230 165 439 41<41 66 115 376> 439 102<0.251221 40.7501>
LayerCount: 2
Back
SplineSet
439 0 m 1x78
 439 66 l 1
 384 12 323 -16 257 -16 c 0
 177 -16 124 36 124 115 c 2
 124 376 l 1
 70 376 l 2
 52 376 43 383 43 397 c 0
 43 410 52 417 70 417 c 2
 165 417 l 1
 165 115 l 2
 165 65 205 25 256 25 c 0xb8
 323 25 384 55 439 115 c 1
 439 376 l 1
 365 376 l 2
 346 376 337 383 337 397 c 0
 337 410 346 417 365 417 c 2
 480 417 l 1
 480 41 l 1
 514 41 l 2
 532 41 541 34 541 21 c 0
 541 7 532 0 514 0 c 2
 439 0 l 1x78
383 599 m 2
 269 499 l 2
 260 492 256 490 250 490 c 0
 239 490 230 499 230 511 c 0
 230 518 232 521 242 530 c 2
 356 630 l 2
 365 637 369 639 375 639 c 0
 386 639 395 630 395 618 c 0
 395 611 392 607 383 599 c 2
EndSplineSet
Fore
Refer: 582 714 N 1 0 0 1 -50 1 0
Refer: 85 117 N 1 0 0 1 0 0 1
EndChar

StartChar: ucircumflex
Encoding: 251 251 186
Width: 600
Flags: W
HStem: -16 41<196.316 349.205> 0 41<480 540.993> 376 41<43.0066 124 337.007 439> 491 149
VStem: 124 41<58.2305 376> 149 290 439 41<41 66 115 376> 439 102<0.251221 40.7501>
LayerCount: 2
Back
SplineSet
439 0 m 1x78
 439 66 l 1
 384 12 323 -16 257 -16 c 0
 177 -16 124 36 124 115 c 2
 124 376 l 1
 70 376 l 2
 52 376 43 383 43 397 c 0
 43 410 52 417 70 417 c 2
 165 417 l 1
 165 115 l 2
 165 65 205 25 256 25 c 0xb8
 323 25 384 55 439 115 c 1
 439 376 l 1
 365 376 l 2
 346 376 337 383 337 397 c 0
 337 410 346 417 365 417 c 2
 480 417 l 1
 480 41 l 1
 514 41 l 2
 532 41 541 34 541 21 c 0
 541 7 532 0 514 0 c 2
 439 0 l 1x78
292 639 m 1
 424 531 l 2
 435 522 437 518 437 510 c 0
 437 499 428 490 417 490 c 0
 412 490 406 493 399 498 c 2
 292 586 l 1
 185 498 l 2
 178 493 172 490 167 490 c 0
 156 490 147 499 147 510 c 0
 147 518 151 522 160 530 c 0
 292 639 l 1
EndSplineSet
Fore
Refer: 578 710 N 1 0 0 1 -6 1 0
Refer: 85 117 N 1 0 0 1 0 0 1
EndChar

StartChar: udieresis
Encoding: 252 252 187
Width: 600
Flags: W
HStem: -16 41<196.316 349.205> 0 41<480 540.993> 376 41<43.0066 124 337.007 439> 491 100<141.396 222.604 362.396 443.604>
VStem: 124 41<58.2305 376> 132 100<500.396 581.544> 353 100<500.396 581.544> 439 41<41 66 115 376> 439 102<0.251221 40.7501>
LayerCount: 2
Back
SplineSet
439 0 m 1x79
 439 66 l 1
 384 12 323 -16 257 -16 c 0
 177 -16 124 36 124 115 c 2
 124 376 l 1
 70 376 l 2
 52 376 43 383 43 397 c 0
 43 410 52 417 70 417 c 2
 165 417 l 1
 165 115 l 2
 165 65 205 25 256 25 c 0xb9
 323 25 384 55 439 115 c 1
 439 376 l 1
 365 376 l 2
 346 376 337 383 337 397 c 0
 337 410 346 417 365 417 c 2
 480 417 l 1
 480 41 l 1
 514 41 l 2
 532 41 541 34 541 21 c 0
 541 7 532 0 514 0 c 2
 439 0 l 1x79
181 611 m 0
 209 611 231 588 231 560 c 0
 231 534 208 511 181 511 c 0
 154 511 131 534 131 561 c 0x34
 131 588 154 611 181 611 c 0
402 611 m 0
 430 611 452 588 452 560 c 0
 452 534 429 511 402 511 c 0
 375 511 352 534 352 561 c 0x32
 352 588 375 611 402 611 c 0
EndSplineSet
Fore
Refer: 103 168 N 1 0 0 1 -8 -20 0
Refer: 85 117 N 1 0 0 1 0 0 1
EndChar

StartChar: yacute
Encoding: 253 253 188
Width: 600
Flags: W
HStem: -186 41<57.0066 211 252 343.993> 376 41<51.0066 94 141 219.993 385.007 466 508 548.993> 491 149
VStem: 280 165
LayerCount: 2
Back
SplineSet
282 0 m 1
 94 376 l 1
 78 376 l 2
 60 376 51 383 51 397 c 0
 51 410 60 417 78 417 c 2
 193 417 l 2
 211 417 220 410 220 397 c 0
 220 383 211 376 193 376 c 2
 141 376 l 1
 305 45 l 1
 466 376 l 1
 412 376 l 2
 394 376 385 383 385 397 c 0
 385 410 394 417 412 417 c 2
 522 417 l 2
 540 417 549 410 549 397 c 0
 549 383 540 376 522 376 c 2
 508 376 l 1
 252 -145 l 1
 317 -145 l 2
 335 -145 344 -152 344 -165 c 0
 344 -179 335 -186 317 -186 c 2
 84 -186 l 2
 66 -186 57 -179 57 -165 c 0
 57 -152 66 -145 84 -145 c 2
 211 -145 l 1
 282 0 l 1
433 599 m 2
 319 499 l 2
 310 492 306 490 300 490 c 0
 289 490 280 499 280 511 c 0
 280 518 282 521 292 530 c 2
 406 630 l 2
 415 637 419 639 425 639 c 0
 436 639 445 630 445 618 c 0
 445 611 442 607 433 599 c 2
EndSplineSet
Fore
Refer: 582 714 N 1 0 0 1 0 1 0
Refer: 89 121 N 1 0 0 1 0 0 1
EndChar

StartChar: thorn
Encoding: 254 254 189
Width: 600
Flags: W
HStem: -186 41<22.0066 103 144 268.993> 10 41<236.391 407.831> 390 41<236.299 408.707> 549 41<22.0066 103>
VStem: 103 41<-145 106 139.475 301.85 335 549> 500 41<140.72 300.445>
LayerCount: 2
Fore
SplineSet
144 590 m 1
 144 335 l 1
 197 404 247 431 323 431 c 0
 447 431 541 340 541 221 c 0
 541 102 446 10 323 10 c 0
 246 10 190 40 144 106 c 1
 144 -145 l 1
 242 -145 l 2
 260 -145 269 -152 269 -165 c 0
 269 -179 260 -186 242 -186 c 2
 49 -186 l 2
 31 -186 22 -179 22 -165 c 0
 22 -152 31 -145 49 -145 c 2
 103 -145 l 1
 103 549 l 1
 49 549 l 2
 31 549 22 556 22 570 c 0
 22 583 31 590 49 590 c 2
 144 590 l 1
322 390 m 0
 223 390 144 315 144 221 c 0
 144 126 223 51 322 51 c 0
 420 51 500 126 500 219 c 0
 500 316 423 390 322 390 c 0
EndSplineSet
EndChar

StartChar: ydieresis
Encoding: 255 255 190
Width: 600
Flags: W
HStem: -186 41<57.0066 211 252 343.993> 376 41<51.0066 94 141 219.993 385.007 466 508 548.993> 491 100<149.396 230.604 370.396 451.604>
VStem: 140 100<500.396 581.544> 361 100<500.396 581.544>
LayerCount: 2
Back
SplineSet
282 0 m 1
 94 376 l 1
 78 376 l 2
 60 376 51 383 51 397 c 0
 51 410 60 417 78 417 c 2
 193 417 l 2
 211 417 220 410 220 397 c 0
 220 383 211 376 193 376 c 2
 141 376 l 1
 305 45 l 1
 466 376 l 1
 412 376 l 2
 394 376 385 383 385 397 c 0
 385 410 394 417 412 417 c 2
 522 417 l 2
 540 417 549 410 549 397 c 0
 549 383 540 376 522 376 c 2
 508 376 l 1
 252 -145 l 1
 317 -145 l 2
 335 -145 344 -152 344 -165 c 0
 344 -179 335 -186 317 -186 c 2
 84 -186 l 2
 66 -186 57 -179 57 -165 c 0
 57 -152 66 -145 84 -145 c 2
 211 -145 l 1
 282 0 l 1
189 611 m 0
 217 611 239 588 239 560 c 0
 239 534 216 511 189 511 c 0
 162 511 139 534 139 561 c 0
 139 588 162 611 189 611 c 0
410 611 m 0
 438 611 460 588 460 560 c 0
 460 534 437 511 410 511 c 0
 383 511 360 534 360 561 c 0
 360 588 383 611 410 611 c 0
EndSplineSet
Fore
Refer: 103 168 N 1 0 0 1 0 -20 0
Refer: 89 121 N 1 0 0 1 0 0 1
EndChar

StartChar: Amacron
Encoding: 256 256 191
Width: 600
Flags: W
HStem: 0 41<9.00659 67 108 213.993 381.007 484 527 590.993> 188 41<178 413> 522 41<99.0066 246 286 301> 636 40<83.0066 372.993>
VStem: 83 290<636.25 675.75>
LayerCount: 2
Back
SplineSet
428 188 m 1
 162 188 l 1
 108 41 l 1
 187 41 l 2
 205 41 214 34 214 21 c 0
 214 7 205 0 187 0 c 2
 36 0 l 2
 18 0 9 7 9 21 c 0
 9 34 18 41 36 41 c 2
 67 41 l 1
 246 522 l 1
 126 522 l 2
 108 522 99 529 99 543 c 0
 99 556 108 563 126 563 c 2
 330 563 l 1
 527 41 l 1
 564 41 l 2
 582 41 591 34 591 21 c 0
 591 7 582 0 564 0 c 2
 408 0 l 2
 390 0 381 7 381 21 c 0
 381 34 390 41 408 41 c 2
 484 41 l 1
 428 188 l 1
413 229 m 1
 301 522 l 1
 286 522 l 1
 178 229 l 1
 413 229 l 1
418 686 m 2
 182 686 l 2
 164 686 155 693 155 706 c 0
 155 719 164 726 182 726 c 2
 418 726 l 2
 436 726 445 719 445 706 c 0
 445 693 436 686 418 686 c 2
EndSplineSet
Fore
Refer: 581 713 N 1 0 0 1 -72 100 0
Refer: 33 65 N 1 0 0 1 0 0 1
EndChar

StartChar: amacron
Encoding: 257 257 192
Width: 600
Flags: W
HStem: -16 41<147.63 327.128> 0 41<460 540.993> 217 41<178.262 416.779> 390 41<184.429 381.887> 491 40<154.007 443.993>
VStem: 72 41<57.3261 165.246> 154 290<491.25 530.75> 419 41<41 67 112 202 237 357.084>
LayerCount: 2
Back
SplineSet
125 378 m 0xbe
 125 411 266 431 299 431 c 0
 392 431 460 379 460 308 c 2
 460 41 l 1
 514 41 l 2
 532 41 541 34 541 21 c 0
 541 7 532 0 514 0 c 2
 419 0 l 1x7e
 419 67 l 1
 358 10 298 -16 228 -16 c 0
 135 -16 72 36 72 112 c 0
 72 199 158 258 283 258 c 0
 329 258 360 253 419 237 c 1
 419 308 l 2
 419 357 369 390 296 390 c 0
 216 390 173 358 144 358 c 0
 134 358 125 367 125 378 c 0xbe
419 112 m 1
 419 202 l 1
 383 211 335 217 291 217 c 0
 185 217 113 174 113 111 c 0
 113 59 158 25 227 25 c 0xbe
 298 25 352 49 419 112 c 1
418 536 m 2
 182 536 l 2
 164 536 155 543 155 556 c 0
 155 569 164 576 182 576 c 2
 418 576 l 2
 436 576 445 569 445 556 c 0
 445 543 436 536 418 536 c 2
EndSplineSet
Fore
Refer: 581 713 N 1 0 0 1 -1 -45 0
Refer: 65 97 N 1 0 0 1 0 0 1
EndChar

StartChar: Abreve
Encoding: 258 258 193
Width: 600
Flags: W
HStem: 0 41<9.00659 67 108 213.993 381.007 484 527 590.993> 188 41<178 413> 522 41<99.0066 246 286 301> 636 41<223.842 371.96> 746 20<167.5 180 416.5 428.5>
VStem: 153 41<705.847 744> 402 41<705.847 765.993>
LayerCount: 2
Back
SplineSet
428 188 m 1
 162 188 l 1
 108 41 l 1
 187 41 l 2
 205 41 214 34 214 21 c 0
 214 7 205 0 187 0 c 2
 36 0 l 2
 18 0 9 7 9 21 c 0
 9 34 18 41 36 41 c 2
 67 41 l 1
 246 522 l 1
 126 522 l 2
 108 522 99 529 99 543 c 0
 99 556 108 563 126 563 c 2
 330 563 l 1
 527 41 l 1
 564 41 l 2
 582 41 591 34 591 21 c 0
 591 7 582 0 564 0 c 2
 408 0 l 2
 390 0 381 7 381 21 c 0
 381 34 390 41 408 41 c 2
 484 41 l 1
 428 188 l 1
413 229 m 1
 301 522 l 1
 286 522 l 1
 178 229 l 1
 413 229 l 1
176 770 m 0
 188 770 194 763 196 748 c 0
 199 710 244 681 300 681 c 0
 356 681 400 710 404 748 c 0
 406 763 412 770 425 770 c 0
 436 770 445 761 445 747 c 0
 445 687 382 640 300 640 c 0
 218 640 155 687 155 747 c 0
 155 761 163 770 176 770 c 0
EndSplineSet
Fore
Refer: 592 728 N 1 0 0 1 -2 146 0
Refer: 33 65 N 1 0 0 1 0 0 1
EndChar

StartChar: abreve
Encoding: 259 259 194
Width: 600
Flags: W
HStem: -16 41<147.63 327.128> 0 41<460 540.993> 217 41<178.262 416.779> 390 41<184.429 381.887> 491 41<224.842 372.96> 601 20<168.5 181 417.5 429.5>
VStem: 72 41<57.3261 165.246> 154 41<560.847 599> 403 41<560.847 620.993> 419 41<41 67 112 202 237 357.084>
LayerCount: 2
Back
SplineSet
125 378 m 0xbf
 125 411 266 431 299 431 c 0
 392 431 460 379 460 308 c 2
 460 41 l 1
 514 41 l 2
 532 41 541 34 541 21 c 0
 541 7 532 0 514 0 c 2
 419 0 l 1x7f
 419 67 l 1
 358 10 298 -16 228 -16 c 0
 135 -16 72 36 72 112 c 0
 72 199 158 258 283 258 c 0
 329 258 360 253 419 237 c 1
 419 308 l 2
 419 357 369 390 296 390 c 0
 216 390 173 358 144 358 c 0
 134 358 125 367 125 378 c 0xbf
419 112 m 1
 419 202 l 1
 383 211 335 217 291 217 c 0
 185 217 113 174 113 111 c 0
 113 59 158 25 227 25 c 0xbf
 298 25 352 49 419 112 c 1
176 620 m 0
 188 620 194 613 196 598 c 0
 199 560 244 531 300 531 c 0
 356 531 400 560 404 598 c 0
 406 613 412 620 425 620 c 0
 436 620 445 611 445 597 c 0
 445 537 382 490 300 490 c 0
 218 490 155 537 155 597 c 0
 155 611 163 620 176 620 c 0
EndSplineSet
Fore
Refer: 592 728 N 1 0 0 1 -1 1 0
Refer: 65 97 N 1 0 0 1 0 0 1
EndChar

StartChar: Aogonek
Encoding: 260 260 195
Width: 600
Flags: W
HStem: -155 32<489.437 589.538> -20 20<497.5 572> 0 41<9.00659 67 108 213.993 381.007 484 527 590.993> 188 41<178 413> 522 41<99.0066 246 286 301>
VStem: 448 39<-119.814 -42.7998>
LayerCount: 2
Back
SplineSet
529 -123 m 0
 566 -123 574 -104 586 -104 c 0
 593 -104 600 -111 600 -119 c 0
 600 -136 561 -155 523 -155 c 0
 475 -155 447 -132 447 -94 c 0
 447 -52 468 -27 524 0 c 1
 408 0 l 2
 390 0 381 7 381 21 c 0
 381 34 390 41 408 41 c 2
 484 41 l 1
 428 188 l 1
 162 188 l 1
 108 41 l 1
 187 41 l 2
 205 41 214 34 214 21 c 0
 214 7 205 0 187 0 c 2
 36 0 l 2
 18 0 9 7 9 21 c 0
 9 34 18 41 36 41 c 2
 67 41 l 1
 246 522 l 1
 126 522 l 2
 108 522 99 529 99 543 c 0
 99 556 108 563 126 563 c 2
 330 563 l 1
 527 41 l 1
 564 41 l 2
 582 41 591 34 591 21 c 0
 591 9 588 6 567 -3 c 0
 519 -24 486 -58 486 -89 c 0
 486 -112 500 -123 529 -123 c 0
413 229 m 1
 301 522 l 1
 286 522 l 1
 178 229 l 1
 413 229 l 1
EndSplineSet
Fore
Refer: 595 731 N 1 0 0 1 168 0 0
Refer: 33 65 N 1 0 0 1 0 0 1
EndChar

StartChar: aogonek
Encoding: 261 261 196
Width: 600
Flags: W
HStem: -155 32<444.487 544.538> -16 41<147.63 327.128> 0 41<460 480> 217 41<178.262 416.779> 390 41<184.429 381.887>
VStem: 72 41<57.3261 165.246> 403 39<-119.814 -43.0836> 419 41<41 67 112 202 237 357.084>
LayerCount: 2
Fore
SplineSet
125 378 m 0xdd
 125 411 266 431 299 431 c 0
 392 431 460 379 460 308 c 2
 460 41 l 1xbd
 514 41 l 2
 532 41 541 34 541 21 c 0
 541 -6 442 -27 442 -89 c 0
 442 -112 457 -123 485 -123 c 0
 522 -123 530 -104 542 -104 c 0
 549 -104 556 -111 556 -119 c 0
 556 -136 517 -155 479 -155 c 0
 431 -155 403 -132 403 -94 c 0xbe
 403 -52 424 -27 480 0 c 1
 419 0 l 1xbd
 419 67 l 1
 358 10 298 -16 228 -16 c 0
 135 -16 72 36 72 112 c 0
 72 199 158 258 283 258 c 0
 329 258 360 253 419 237 c 1
 419 308 l 2
 419 357 369 390 296 390 c 0
 216 390 173 358 144 358 c 0
 134 358 125 367 125 378 c 0xdd
419 112 m 1
 419 202 l 1
 383 211 335 217 291 217 c 0
 185 217 113 174 113 111 c 0
 113 59 158 25 227 25 c 0xdd
 298 25 352 49 419 112 c 1
EndSplineSet
EndChar

StartChar: Cacute
Encoding: 262 262 197
Width: 600
Flags: W
HStem: -16 41<231.625 414.066> 535 41<220.121 401.266> 636 149
VStem: 63 41<156.291 417.125> 276 165 478 41<397.007 472.035 507 562.993>
LayerCount: 2
Back
SplineSet
63 325 m 2
 63 378 105 576 305 576 c 0
 371 576 431 552 478 507 c 1
 478 536 l 2
 478 554 485 563 499 563 c 0
 512 563 519 554 519 536 c 2
 519 424 l 2
 519 406 512 397 498 397 c 0
 486 397 479 405 478 421 c 0
 474 482 394 535 305 535 c 0
 194 535 104 438 104 319 c 2
 104 248 l 2
 104 128 204 25 322 25 c 0
 391 25 442 51 496 115 c 0
 503 123 507 125 514 125 c 0
 526 125 534 117 534 106 c 0
 534 86 449 -16 322 -16 c 0
 186 -16 63 107 63 242 c 2
 63 325 l 2
433 749 m 2
 319 649 l 2
 310 642 306 640 300 640 c 0
 289 640 280 649 280 661 c 0
 280 668 282 671 292 680 c 2
 406 780 l 2
 415 787 419 789 425 789 c 0
 436 789 445 780 445 768 c 0
 445 761 442 757 433 749 c 2
EndSplineSet
Fore
Refer: 582 714 N 1 0 0 1 -4 146 0
Refer: 35 67 N 1 0 0 1 0 0 1
EndChar

StartChar: cacute
Encoding: 263 263 198
Width: 600
Flags: W
HStem: -16 41<219.069 421.37> 390 41<220.324 409.244> 491 149
VStem: 84 41<116.175 295.903> 280 165 470 41<271.007 340.519 376 416.993>
LayerCount: 2
Back
SplineSet
535 88 m 0
 535 67 445 -16 309 -16 c 0
 178 -16 84 76 84 204 c 0
 84 336 180 431 314 431 c 0
 375 431 429 412 470 376 c 1
 470 389 l 2
 470 408 477 417 491 417 c 0
 504 417 511 408 511 389 c 2
 511 298 l 2
 511 280 504 271 491 271 c 0
 478 271 472 278 470 295 c 0
 466 348 395 390 311 390 c 0
 201 390 125 315 125 205 c 0
 125 100 202 25 311 25 c 0
 384 25 446 49 498 97 c 0
 506 105 509 107 516 107 c 0
 526 107 535 98 535 88 c 0
433 599 m 2
 319 499 l 2
 310 492 306 490 300 490 c 0
 289 490 280 499 280 511 c 0
 280 518 282 521 292 530 c 2
 406 630 l 2
 415 637 419 639 425 639 c 0
 436 639 445 630 445 618 c 0
 445 611 442 607 433 599 c 2
EndSplineSet
Fore
Refer: 582 714 N 1 0 0 1 0 1 0
Refer: 67 99 N 1 0 0 1 0 0 1
EndChar

StartChar: Ccaron
Encoding: 268 268 203
Width: 600
Flags: W
HStem: -16 41<231.625 414.066> 535 41<220.121 401.266> 636 149
VStem: 63 41<156.291 417.125> 160 290 478 41<397.007 472.035 507 562.993>
LayerCount: 2
Back
SplineSet
63 325 m 2
 63 378 105 576 305 576 c 0
 371 576 431 552 478 507 c 1
 478 536 l 2
 478 554 485 563 499 563 c 0
 512 563 519 554 519 536 c 2
 519 424 l 2
 519 406 512 397 498 397 c 0
 486 397 479 405 478 421 c 0
 474 482 394 535 305 535 c 0
 194 535 104 438 104 319 c 2
 104 248 l 2
 104 128 204 25 322 25 c 0
 391 25 442 51 496 115 c 0
 503 123 507 125 514 125 c 0
 526 125 534 117 534 106 c 0
 534 86 449 -16 322 -16 c 0
 186 -16 63 107 63 242 c 2
 63 325 l 2
300 640 m 1
 168 749 l 1
 158 756 155 760 155 769 c 0
 155 780 164 789 175 789 c 0
 180 789 186 786 193 781 c 2
 300 693 l 1
 407 781 l 2
 414 786 420 789 425 789 c 0
 435 789 445 779 445 769 c 0
 445 761 443 757 432 748 c 2
 300 640 l 1
EndSplineSet
Fore
Refer: 579 711 N 1 0 0 1 5 146 0
Refer: 35 67 N 1 0 0 1 0 0 1
EndChar

StartChar: ccaron
Encoding: 269 269 204
Width: 600
Flags: W
HStem: -16 41<219.069 421.37> 390 41<220.324 409.244> 491 149
VStem: 84 41<116.175 295.903> 185 290 470 41<271.007 340.519 376 416.993>
LayerCount: 2
Back
SplineSet
535 88 m 0
 535 67 445 -16 309 -16 c 0
 178 -16 84 76 84 204 c 0
 84 336 180 431 314 431 c 0
 375 431 429 412 470 376 c 1
 470 389 l 2
 470 408 477 417 491 417 c 0
 504 417 511 408 511 389 c 2
 511 298 l 2
 511 280 504 271 491 271 c 0
 478 271 472 278 470 295 c 0
 466 348 395 390 311 390 c 0
 201 390 125 315 125 205 c 0
 125 100 202 25 311 25 c 0
 384 25 446 49 498 97 c 0
 506 105 509 107 516 107 c 0
 526 107 535 98 535 88 c 0
330 490 m 1
 198 599 l 1
 188 606 185 610 185 619 c 0
 185 630 194 639 205 639 c 0
 210 639 216 636 223 631 c 2
 330 543 l 1
 437 631 l 2
 444 636 450 639 455 639 c 0
 465 639 475 629 475 619 c 0
 475 611 473 607 462 598 c 2
 330 490 l 1
EndSplineSet
Fore
Refer: 579 711 N 1 0 0 1 30 1 0
Refer: 67 99 N 1 0 0 1 0 0 1
EndChar

StartChar: Dcaron
Encoding: 270 270 205
Width: 600
Flags: W
HStem: 0 41<43.0066 104 145 369.873> 522 41<43.0066 104 145 372.703> 636 149
VStem: 104 41<41 522> 137 290 479 41<155.064 403.293>
LayerCount: 2
Back
SplineSet
104 41 m 1
 104 522 l 1
 70 522 l 2
 52 522 43 529 43 543 c 0
 43 556 52 563 70 563 c 2
 290 563 l 2
 419 563 520 451 520 310 c 2
 520 254 l 2
 520 112 419 0 290 0 c 2
 70 0 l 2
 52 0 43 7 43 21 c 0
 43 34 52 41 70 41 c 2
 104 41 l 1
479 318 m 2
 479 359 441 522 288 522 c 2
 145 522 l 1
 145 41 l 1
 295 41 l 2
 391 41 479 139 479 245 c 2
 479 318 l 2
300 640 m 1
 168 749 l 1
 158 756 155 760 155 769 c 0
 155 780 164 789 175 789 c 0
 180 789 186 786 193 781 c 2
 300 693 l 1
 407 781 l 2
 414 786 420 789 425 789 c 0
 435 789 445 779 445 769 c 0
 445 761 443 757 432 748 c 2
 300 640 l 1
EndSplineSet
Fore
Refer: 579 711 N 1 0 0 1 -18 146 0
Refer: 36 68 N 1 0 0 1 0 0 1
EndChar

StartChar: dcroat
Encoding: 273 273 208
Width: 600
Flags: W
HStem: -16 41<198.77 366.983> 0 41<502 582.993> 390 41<198.608 368.397> 479 41<296.007 461 502 582.993> 563 41<380.007 461>
VStem: 63 41<120.523 294.85> 461 41<41 81 119.384 294.435 335 479 520 563>
LayerCount: 2
Fore
SplineSet
502 520 m 1xbe
 556 520 l 2
 574 520 583 513 583 500 c 0
 583 486 574 479 556 479 c 2
 502 479 l 1
 502 41 l 1
 556 41 l 2
 574 41 583 34 583 21 c 0
 583 7 574 0 556 0 c 2
 461 0 l 1x7e
 461 81 l 1
 414 16 354 -16 280 -16 c 0
 160 -16 63 84 63 208 c 0
 63 331 160 431 280 431 c 0
 354 431 412 400 461 335 c 1
 461 479 l 1
 323 479 l 2
 305 479 296 486 296 500 c 0
 296 513 305 520 323 520 c 2
 461 520 l 1
 461 563 l 1
 407 563 l 2
 389 563 380 570 380 584 c 0
 380 597 389 604 407 604 c 2
 502 604 l 1
 502 520 l 1xbe
282 390 m 0
 183 390 104 309 104 208 c 0
 104 106 183 25 283 25 c 0xbe
 381 25 461 106 461 205 c 0
 461 310 383 390 282 390 c 0
EndSplineSet
EndChar

StartChar: Emacron
Encoding: 274 274 209
Width: 600
Flags: W
HStem: 0 41<43.0066 124 165 479> 272 41<165 310> 522 41<43.0066 124 165 458> 636 40<139.007 428.993>
VStem: 124 41<41 272 313 522> 139 290<636.25 675.75> 310 41<200.007 272 313 384.993> 458 41<397.007 522> 479 41<41 186.993>
LayerCount: 2
Back
SplineSet
165 272 m 1xfe
 165 41 l 1
 479 41 l 1
 479 160 l 2
 479 178 486 187 500 187 c 0
 513 187 520 178 520 160 c 2
 520 0 l 1xfd
 70 0 l 2
 52 0 43 7 43 21 c 0
 43 34 52 41 70 41 c 2
 124 41 l 1
 124 522 l 1
 70 522 l 2
 52 522 43 529 43 543 c 0
 43 556 52 563 70 563 c 2
 499 563 l 1
 499 424 l 2
 499 406 492 397 478 397 c 0
 465 397 458 406 458 424 c 2
 458 522 l 1
 165 522 l 1
 165 313 l 1
 310 313 l 1
 310 358 l 2
 310 376 317 385 331 385 c 0
 344 385 351 376 351 358 c 2
 351 227 l 2
 351 209 344 200 331 200 c 0
 317 200 310 209 310 227 c 2
 310 272 l 1
 165 272 l 1xfe
418 686 m 2
 182 686 l 2
 164 686 155 693 155 706 c 0
 155 719 164 726 182 726 c 2
 418 726 l 2
 436 726 445 719 445 706 c 0
 445 693 436 686 418 686 c 2
EndSplineSet
Fore
Refer: 581 713 N 1 0 0 1 -16 100 0
Refer: 37 69 N 1 0 0 1 0 0 1
EndChar

StartChar: emacron
Encoding: 275 275 210
Width: 600
Flags: W
HStem: -16 41<210.154 420.958> 199 41<104 478> 390 41<196.865 383.966> 491 40<146.007 435.993>
VStem: 146 290<491.25 530.75>
LayerCount: 2
Back
SplineSet
520 199 m 1
 104 199 l 1
 118 94 198 25 306 25 c 0
 368 25 441 47 481 79 c 0
 488 84 492 86 497 86 c 0
 507 86 516 77 516 66 c 0
 516 31 396 -16 305 -16 c 0
 170 -16 63 87 63 217 c 0
 63 338 163 431 291 431 c 0
 424 431 520 340 520 199 c 1
104 240 m 1
 478 240 l 1
 462 331 388 390 291 390 c 0
 194 390 122 332 104 240 c 1
418 536 m 2
 182 536 l 2
 164 536 155 543 155 556 c 0
 155 569 164 576 182 576 c 2
 418 576 l 2
 436 576 445 569 445 556 c 0
 445 543 436 536 418 536 c 2
EndSplineSet
Fore
Refer: 581 713 N 1 0 0 1 -9 -45 0
Refer: 69 101 N 1 0 0 1 0 0 1
EndChar

StartChar: Edotaccent
Encoding: 278 278 213
Width: 600
Flags: W
HStem: 0 41<43.0066 124 165 479> 272 41<165 310> 522 41<43.0066 124 165 458> 636 100<243.396 324.604>
VStem: 124 41<41 272 313 522> 234 100<645.396 726.544> 310 41<200.007 272 313 384.993> 458 41<397.007 522> 479 41<41 186.993>
LayerCount: 2
Back
SplineSet
165 272 m 1xfb
 165 41 l 1
 479 41 l 1
 479 160 l 2
 479 178 486 187 500 187 c 0
 513 187 520 178 520 160 c 2
 520 0 l 1xfa80
 70 0 l 2
 52 0 43 7 43 21 c 0
 43 34 52 41 70 41 c 2
 124 41 l 1
 124 522 l 1
 70 522 l 2
 52 522 43 529 43 543 c 0
 43 556 52 563 70 563 c 2
 499 563 l 1
 499 424 l 2
 499 406 492 397 478 397 c 0
 465 397 458 406 458 424 c 2
 458 522 l 1
 165 522 l 1
 165 313 l 1
 310 313 l 1
 310 358 l 2
 310 376 317 385 331 385 c 0
 344 385 351 376 351 358 c 2
 351 227 l 2
 351 209 344 200 331 200 c 0
 317 200 310 209 310 227 c 2
 310 272 l 1
 165 272 l 1xfb
300 761 m 0
 328 761 350 738 350 710 c 0
 350 684 327 661 300 661 c 0
 273 661 250 684 250 711 c 0xfc
 250 738 273 761 300 761 c 0
EndSplineSet
Fore
Refer: 593 729 N 1 0 0 1 -16 125 0
Refer: 37 69 N 1 0 0 1 0 0 1
EndChar

StartChar: edotaccent
Encoding: 279 279 214
Width: 600
Flags: W
HStem: -16 41<210.154 420.958> 199 41<104 478> 390 41<196.865 383.966> 491 100<250.396 331.604>
VStem: 241 100<500.396 581.544>
LayerCount: 2
Back
SplineSet
520 199 m 1
 104 199 l 1
 118 94 198 25 306 25 c 0
 368 25 441 47 481 79 c 0
 488 84 492 86 497 86 c 0
 507 86 516 77 516 66 c 0
 516 31 396 -16 305 -16 c 0
 170 -16 63 87 63 217 c 0
 63 338 163 431 291 431 c 0
 424 431 520 340 520 199 c 1
104 240 m 1
 478 240 l 1
 462 331 388 390 291 390 c 0
 194 390 122 332 104 240 c 1
300 611 m 0
 328 611 350 588 350 560 c 0
 350 534 327 511 300 511 c 0
 273 511 250 534 250 561 c 0
 250 588 273 611 300 611 c 0
EndSplineSet
Fore
Refer: 593 729 N 1 0 0 1 -9 -20 0
Refer: 69 101 N 1 0 0 1 0 0 1
EndChar

StartChar: Eogonek
Encoding: 280 280 215
Width: 600
Flags: W
HStem: -155 32<436.437 536.538> -20 20<444.5 519> 0 41<43.0066 124 165 479> 272 41<165 310> 522 41<43.0066 124 165 458>
VStem: 124 41<41 272 313 522> 310 41<200.007 272 313 384.993> 395 39<-119.814 -42.7998> 458 41<397.007 522> 479 41<41 186.993>
LayerCount: 2
Back
SplineSet
478 -123 m 0xfe80
 513 -123 523 -104 535 -104 c 0
 542 -104 549 -111 549 -119 c 0
 549 -136 509 -155 472 -155 c 0
 424 -155 395 -132 395 -94 c 0
 395 -53 416 -27 473 0 c 1
 70 0 l 2
 52 0 43 7 43 21 c 0
 43 34 52 41 70 41 c 2
 124 41 l 1
 124 522 l 1
 70 522 l 2
 52 522 43 529 43 543 c 0
 43 556 52 563 70 563 c 2
 499 563 l 1
 499 424 l 2
 499 406 492 397 478 397 c 0
 465 397 458 406 458 424 c 2
 458 522 l 1xff
 165 522 l 1
 165 313 l 1
 310 313 l 1
 310 358 l 2
 310 376 317 385 331 385 c 0
 344 385 351 376 351 358 c 2
 351 227 l 2
 351 209 344 200 331 200 c 0
 317 200 310 209 310 227 c 2
 310 272 l 1
 165 272 l 1
 165 41 l 1
 479 41 l 1
 479 160 l 2
 479 178 486 187 500 187 c 0
 513 187 520 178 520 160 c 2
 520 0 l 1
 493 -15 l 2
 455 -36 434 -62 434 -89 c 0
 434 -112 449 -123 478 -123 c 0xfe80
EndSplineSet
Fore
Refer: 595 731 N 1 0 0 1 115 0 0
Refer: 37 69 N 1 0 0 1 0 0 1
EndChar

StartChar: eogonek
Encoding: 281 281 216
Width: 600
Flags: W
HStem: -155 32<348.437 448.538> -16 41<210.365 390.762> 199 41<104 478> 390 41<196.865 383.966>
VStem: 307 39<-119.814 -45.9167>
LayerCount: 2
Fore
SplineSet
389 -123 m 0
 426 -123 434 -104 446 -104 c 0
 453 -104 460 -111 460 -119 c 0
 460 -136 421 -155 383 -155 c 0
 335 -155 307 -132 307 -94 c 0
 307 -60 325 -33 361 -11 c 1
 337 -15 323 -16 306 -16 c 0
 170 -16 63 86 63 217 c 0
 63 338 163 431 291 431 c 0
 424 431 520 340 520 199 c 1
 104 199 l 1
 118 94 198 25 306 25 c 0
 368 25 441 47 481 79 c 0
 488 84 492 86 497 86 c 0
 507 86 516 77 516 66 c 0
 516 30 346 -20 346 -89 c 0
 346 -112 360 -123 389 -123 c 0
104 240 m 1
 478 240 l 1
 462 331 388 390 291 390 c 0
 194 390 122 332 104 240 c 1
EndSplineSet
EndChar

StartChar: Ecaron
Encoding: 282 282 217
Width: 600
Flags: W
HStem: 0 41<43.0066 124 165 479> 272 41<165 310> 522 41<43.0066 124 165 458> 636 149
VStem: 124 41<41 272 313 522> 139 290 310 41<200.007 272 313 384.993> 458 41<397.007 522> 479 41<41 186.993>
LayerCount: 2
Back
SplineSet
165 272 m 1xfc
 165 41 l 1
 479 41 l 1
 479 160 l 2
 479 178 486 187 500 187 c 0
 513 187 520 178 520 160 c 2
 520 0 l 1xfa
 70 0 l 2
 52 0 43 7 43 21 c 0
 43 34 52 41 70 41 c 2
 124 41 l 1
 124 522 l 1
 70 522 l 2
 52 522 43 529 43 543 c 0
 43 556 52 563 70 563 c 2
 499 563 l 1
 499 424 l 2
 499 406 492 397 478 397 c 0
 465 397 458 406 458 424 c 2
 458 522 l 1
 165 522 l 1
 165 313 l 1
 310 313 l 1
 310 358 l 2
 310 376 317 385 331 385 c 0
 344 385 351 376 351 358 c 2
 351 227 l 2
 351 209 344 200 331 200 c 0
 317 200 310 209 310 227 c 2
 310 272 l 1
 165 272 l 1xfc
300 640 m 1
 168 749 l 1
 158 756 155 760 155 769 c 0
 155 780 164 789 175 789 c 0
 180 789 186 786 193 781 c 2
 300 693 l 1
 407 781 l 2
 414 786 420 789 425 789 c 0
 435 789 445 779 445 769 c 0
 445 761 443 757 432 748 c 2
 300 640 l 1
EndSplineSet
Fore
Refer: 579 711 N 1 0 0 1 -16 146 0
Refer: 37 69 N 1 0 0 1 0 0 1
EndChar

StartChar: ecaron
Encoding: 283 283 218
Width: 600
Flags: W
HStem: -16 41<210.154 420.958> 199 41<104 478> 390 41<196.865 383.966> 491 149
VStem: 146 290
LayerCount: 2
Back
SplineSet
520 199 m 1
 104 199 l 1
 118 94 198 25 306 25 c 0
 368 25 441 47 481 79 c 0
 488 84 492 86 497 86 c 0
 507 86 516 77 516 66 c 0
 516 31 396 -16 305 -16 c 0
 170 -16 63 87 63 217 c 0
 63 338 163 431 291 431 c 0
 424 431 520 340 520 199 c 1
104 240 m 1
 478 240 l 1
 462 331 388 390 291 390 c 0
 194 390 122 332 104 240 c 1
300 490 m 1
 168 599 l 1
 158 606 155 610 155 619 c 0
 155 630 164 639 175 639 c 0
 180 639 186 636 193 631 c 2
 300 543 l 1
 407 631 l 2
 414 636 420 639 425 639 c 0
 435 639 445 629 445 619 c 0
 445 611 443 607 432 598 c 2
 300 490 l 1
EndSplineSet
Fore
Refer: 579 711 N 1 0 0 1 -9 1 0
Refer: 69 101 N 1 0 0 1 0 0 1
EndChar

StartChar: Gbreve
Encoding: 286 286 221
Width: 600
Flags: W
HStem: -16 41<222.509 450.358> 209 41<313.007 479 520 561.993> 418 21<493.5 506.5> 535 41<220.247 418.459> 636 41<238.842 386.96> 746 20<182.5 195 431.5 443.5>
VStem: 63 41<142.727 244 244 405.752> 168 41<705.847 744> 417 41<705.847 765.993> 479 41<59 209 418.007 486.937 522 562.993>
LayerCount: 2
Back
SplineSet
315 535 m 0
 138 535 104 362 104 317 c 2
 104 244 l 2
 104 108 192 25 336 25 c 0
 388 25 423 33 479 59 c 1
 479 209 l 1
 340 209 l 2
 322 209 313 216 313 230 c 0
 313 243 322 250 340 250 c 2
 534 250 l 2
 553 250 562 243 562 230 c 0
 562 216 553 209 534 209 c 2
 520 209 l 1
 520 36 l 1
 461 2 395 -16 333 -16 c 0
 169 -16 63 86 63 244 c 2
 63 318 l 2
 63 453 163 576 313 576 c 0
 379 576 434 558 479 522 c 1
 479 536 l 2
 479 554 486 563 500 563 c 0
 514 563 520 555 520 536 c 2
 520 445 l 2
 520 427 513 418 500 418 c 0
 487 418 481 426 480 443 c 0
 476 494 404 535 315 535 c 0
206 770 m 0
 218 770 224 763 226 748 c 0
 229 710 274 681 330 681 c 0
 386 681 430 710 434 748 c 0
 436 763 442 770 455 770 c 0
 466 770 475 761 475 747 c 0
 475 687 412 640 330 640 c 0
 248 640 185 687 185 747 c 0
 185 761 193 770 206 770 c 0
EndSplineSet
Fore
Refer: 592 728 N 1 0 0 1 13 146 0
Refer: 39 71 N 1 0 0 1 0 0 1
EndChar

StartChar: gbreve
Encoding: 287 287 222
Width: 600
Flags: W
HStem: -186 41<175.007 386.33> 10 41<190.483 353.046> 376 41<481 561.993> 390 41<190.261 353.697> 491 41<224.842 372.96> 601 20<168.5 181 417.5 429.5>
VStem: 63 41<139.285 304.083> 154 41<560.847 599> 403 41<560.847 620.993> 440 41<-90.8008 -22 -22 107 138.825 305.254 334 376>
LayerCount: 2
Back
SplineSet
440 334 m 1xdf
 440 417 l 1
 535 417 l 2
 553 417 562 410 562 397 c 0
 562 383 553 376 535 376 c 2
 481 376 l 1xef
 481 -28 l 2
 481 -69 468 -100 438 -132 c 0
 403 -169 366 -186 316 -186 c 2
 202 -186 l 2
 184 -186 175 -179 175 -165 c 0
 175 -152 184 -145 202 -145 c 2
 318 -145 l 2
 386 -145 440 -90 440 -22 c 2
 440 107 l 1
 395 41 341 10 269 10 c 0
 156 10 63 105 63 221 c 0
 63 337 156 431 269 431 c 0
 342 431 395 401 440 334 c 1xdf
272 390 m 0xdf
 178 390 104 315 104 221 c 0
 104 126 179 51 272 51 c 0
 365 51 440 126 440 219 c 0
 440 316 367 390 272 390 c 0xdf
176 620 m 0
 188 620 194 613 196 598 c 0
 199 560 244 531 300 531 c 0
 356 531 400 560 404 598 c 0
 406 613 412 620 425 620 c 0
 436 620 445 611 445 597 c 0
 445 537 382 490 300 490 c 0
 218 490 155 537 155 597 c 0
 155 611 163 620 176 620 c 0
EndSplineSet
Fore
Refer: 592 728 S 1 0 0 1 -1 1 0
Refer: 71 103 N 1 0 0 1 0 0 1
EndChar

StartChar: Gcommaaccent
Encoding: 290 290 225
Width: 600
Flags: W
HStem: -250 174 -16 41<222.509 450.358> 209 41<313.007 479 520 561.993> 418 21<493.5 506.5> 535 41<220.247 418.459>
VStem: 63 41<142.727 244 244 405.752> 314 80<-110.543 -76> 479 41<59 209 418.007 486.937 522 562.993>
LayerCount: 2
Back
SplineSet
315 535 m 0
 138 535 104 362 104 317 c 2
 104 244 l 2
 104 108 192 25 336 25 c 0
 388 25 423 33 479 59 c 1
 479 209 l 1
 340 209 l 2
 322 209 313 216 313 230 c 0
 313 243 322 250 340 250 c 2
 534 250 l 2
 553 250 562 243 562 230 c 0
 562 216 553 209 534 209 c 2
 520 209 l 1
 520 36 l 1
 461 2 395 -16 333 -16 c 0
 169 -16 63 86 63 244 c 2
 63 318 l 2
 63 453 163 576 313 576 c 0
 379 576 434 558 479 522 c 1
 479 536 l 2
 479 554 486 563 500 563 c 0
 514 563 520 555 520 536 c 2
 520 445 l 2
 520 427 513 418 500 418 c 0
 487 418 481 426 480 443 c 0
 476 494 404 535 315 535 c 0
358 -97 m 0
 274 -223 l 2
 266 -234 262 -237 253 -237 c 0
 242 -237 233 -228 233 -216 c 0
 233 -212 235 -207 240 -200 c 2
 324 -74 l 2
 331 -64 337 -60 345 -60 c 0
 357 -60 366 -69 366 -81 c 0
 366 -85 361 -93 358 -97 c 0
EndSplineSet
Fore
Refer: 574 700 N 1 0 0 1 20 -740 0
Refer: 39 71 N 1 0 0 1 0 0 1
EndChar

StartChar: gcommaaccent
Encoding: 291 291 226
Width: 600
Flags: W
HStem: -186 41<175.007 386.33> 10 41<190.483 353.046> 376 41<481 561.993> 390 41<190.261 353.697> 491 174
VStem: 63 41<139.285 304.083> 207 80<512.57 547.113> 440 41<-90.8008 -22 -22 107 138.825 305.254 334 376>
LayerCount: 2
Back
SplineSet
440 334 m 1xdc
 440 417 l 1
 535 417 l 2
 553 417 562 410 562 397 c 0
 562 383 553 376 535 376 c 2
 481 376 l 1xec
 481 -28 l 2
 481 -69 468 -100 438 -132 c 0
 403 -169 366 -186 316 -186 c 2
 202 -186 l 2
 184 -186 175 -179 175 -165 c 0
 175 -152 184 -145 202 -145 c 2
 318 -145 l 2
 386 -145 440 -90 440 -22 c 2
 440 107 l 1
 395 41 341 10 269 10 c 0
 156 10 63 105 63 221 c 0
 63 337 156 431 269 431 c 0
 342 431 395 401 440 334 c 1xdc
272 390 m 0xdc
 178 390 104 315 104 221 c 0
 104 126 179 51 272 51 c 0
 365 51 440 126 440 219 c 0
 440 316 367 390 272 390 c 0xdc
358 629 m 0
 274 503 l 2
 266 492 262 489 253 489 c 0
 242 489 233 498 233 510 c 0
 233 514 235 519 240 526 c 2
 324 652 l 2
 331 662 337 666 345 666 c 0
 357 666 366 657 366 645 c 0
 366 641 361 633 358 629 c 0
EndSplineSet
Fore
Refer: 573 699 N 1 0 0 1 -44 1 0
Refer: 71 103 N 1 0 0 1 0 0 1
EndChar

StartChar: Hbar
Encoding: 294 294 229
Width: 600
Flags: W
HStem: 0 41<53.0073 126 167 247.993 356.007 437 478 550.993> 272 41<167 437> 381 40<74.0066 126 167 437 478 529.993> 522 41<74.0066 126 167 247.993 356.007 437 478 529.993>
VStem: 126 41<41 272 313 381 421 522> 437 41<41 272 313 381 421 522>
LayerCount: 2
Fore
SplineSet
478 421 m 1
 503 421 l 2
 521 421 530 414 530 401 c 0
 530 388 521 381 503 381 c 2
 478 381 l 1
 478 41 l 1
 524 41 l 2
 542 41 551 34 551 21 c 0
 551 7 541 0 524 0 c 2
 383 0 l 2
 365 0 356 7 356 21 c 0
 356 34 365 41 383 41 c 2
 437 41 l 1
 437 272 l 1
 167 272 l 1
 167 41 l 1
 221 41 l 2
 239 41 248 34 248 21 c 0
 248 7 239 0 221 0 c 2
 81 0 l 2
 63 0 53 7 53 21 c 0
 53 34 62 41 81 41 c 2
 126 41 l 1
 126 381 l 1
 101 381 l 2
 83 381 74 388 74 401 c 0
 74 414 83 421 101 421 c 2
 126 421 l 1
 126 522 l 1
 101 522 l 2
 83 522 74 529 74 543 c 0
 74 556 83 563 101 563 c 2
 221 563 l 2
 239 563 248 556 248 543 c 0
 248 529 239 522 221 522 c 2
 167 522 l 1
 167 421 l 1
 437 421 l 1
 437 522 l 1
 383 522 l 2
 365 522 356 529 356 543 c 0
 356 556 365 563 383 563 c 2
 503 563 l 2
 521 563 530 556 530 543 c 0
 530 529 521 522 503 522 c 2
 478 522 l 1
 478 421 l 1
437 381 m 1
 167 381 l 1
 167 313 l 1
 437 313 l 1
 437 381 l 1
EndSplineSet
EndChar

StartChar: hbar
Encoding: 295 295 230
Width: 600
Flags: W
HStem: 0 41<51.0073 124 165 237.993 365.007 437 478 550.993> 390 41<236.212 393.087> 469 40<43.0066 124 165 332.993> 563 41<43.0066 124>
VStem: 124 41<41 296 347 469 509 563> 437 41<41 347.047>
LayerCount: 2
Fore
SplineSet
437 288 m 2
 437 348 388 390 314 390 c 0
 258 390 230 373 176 309 c 2
 165 296 l 1
 165 41 l 1
 210 41 l 2
 229 41 238 34 238 21 c 0
 238 7 228 0 210 0 c 2
 78 0 l 2
 61 0 51 7 51 21 c 0
 51 34 60 41 78 41 c 2
 124 41 l 1
 124 469 l 1
 70 469 l 2
 52 469 43 476 43 489 c 0
 43 502 52 509 70 509 c 2
 124 509 l 1
 124 563 l 1
 70 563 l 2
 52 563 43 570 43 584 c 0
 43 597 52 604 70 604 c 2
 165 604 l 1
 165 509 l 1
 306 509 l 2
 324 509 333 502 333 489 c 0
 333 476 324 469 306 469 c 2
 165 469 l 1
 165 347 l 1
 216 408 258 431 319 431 c 0
 412 431 478 372 478 291 c 2
 478 41 l 1
 523 41 l 2
 542 41 551 34 551 21 c 0
 551 7 542 0 523 0 c 2
 392 0 l 2
 374 0 365 7 365 21 c 0
 365 34 374 41 392 41 c 2
 437 41 l 1
 437 288 l 2
EndSplineSet
EndChar

StartChar: Imacron
Encoding: 298 298 233
Width: 600
Flags: W
HStem: 0 41<113.007 279 320 486.993> 522 41<113.007 279 320 486.993> 636 40<155.007 444.993>
VStem: 155 290<636.25 675.75> 279 41<41 522>
LayerCount: 2
Back
SplineSet
320 522 m 1
 320 41 l 1
 459 41 l 2
 478 41 487 34 487 21 c 0
 487 7 477 0 459 0 c 2
 140 0 l 2
 122 0 113 7 113 21 c 0
 113 34 122 41 140 41 c 2
 279 41 l 1
 279 522 l 1
 140 522 l 2
 122 522 113 529 113 543 c 0
 113 556 122 563 140 563 c 2
 459 563 l 2
 478 563 487 556 487 543 c 0
 487 529 478 522 459 522 c 2
 320 522 l 1
418 686 m 2
 182 686 l 2
 164 686 155 693 155 706 c 0
 155 719 164 726 182 726 c 2
 418 726 l 2
 436 726 445 719 445 706 c 0
 445 693 436 686 418 686 c 2
EndSplineSet
Fore
Refer: 581 713 N 1 0 0 1 0 100 0
Refer: 41 73 N 1 0 0 1 0 0 1
EndChar

StartChar: imacron
Encoding: 299 299 234
Width: 600
Flags: W
HStem: 0 41<92.0066 279 320 507.993> 376 41<134.007 279> 491 40<154.007 443.993>
VStem: 154 290<491.25 530.75> 279 41<41 376>
LayerCount: 2
Back
SplineSet
320 417 m 1
 320 41 l 1
 480 41 l 2
 499 41 508 34 508 21 c 0
 508 7 498 0 480 0 c 2
 119 0 l 2
 101 0 92 7 92 21 c 0
 92 34 101 41 119 41 c 2
 279 41 l 1
 279 376 l 1
 161 376 l 2
 143 376 134 383 134 397 c 0
 134 410 143 417 161 417 c 2
 320 417 l 1
418 536 m 2
 182 536 l 2
 164 536 155 543 155 556 c 0
 155 569 164 576 182 576 c 2
 418 576 l 2
 436 576 445 569 445 556 c 0
 445 543 436 536 418 536 c 2
EndSplineSet
Fore
Refer: 581 713 N 1 0 0 1 -1 -45 0
Refer: 240 305 N 1 0 0 1 0 0 1
EndChar

StartChar: Iogonek
Encoding: 302 302 237
Width: 600
Flags: W
HStem: -155 32<388.437 488.538> 0 41<113.007 279 320 424> 522 41<113.007 279 320 486.993>
VStem: 279 41<41 522> 347 39<-119.814 -42.6433>
LayerCount: 2
Fore
SplineSet
429 -123 m 0
 466 -123 474 -104 486 -104 c 0
 493 -104 500 -111 500 -119 c 0
 500 -136 461 -155 423 -155 c 0
 375 -155 347 -132 347 -94 c 0
 347 -52 368 -27 424 0 c 1
 140 0 l 2
 122 0 113 7 113 21 c 0
 113 34 122 41 140 41 c 2
 279 41 l 1
 279 522 l 1
 140 522 l 2
 122 522 113 529 113 543 c 0
 113 556 122 563 140 563 c 2
 459 563 l 2
 478 563 487 556 487 543 c 0
 487 529 478 522 459 522 c 2
 320 522 l 1
 320 41 l 1
 459 41 l 2
 478 41 487 34 487 21 c 0
 487 -6 386 -25 386 -89 c 0
 386 -112 400 -123 429 -123 c 0
EndSplineSet
EndChar

StartChar: iogonek
Encoding: 303 303 238
Width: 600
Flags: W
HStem: -155 32<408.437 508.538> 0 41<92.0066 279 320 444> 376 41<134.007 279> 520 104<259 318>
VStem: 259 59<520 624> 279 41<41 376> 367 39<-119.814 -42.2617>
LayerCount: 2
Fore
SplineSet
449 -123 m 0xf6
 486 -123 494 -104 506 -104 c 0
 513 -104 520 -111 520 -119 c 0
 520 -136 481 -155 443 -155 c 0
 395 -155 367 -132 367 -94 c 0
 367 -52 388 -27 444 0 c 1
 119 0 l 2
 101 0 92 7 92 21 c 0
 92 34 101 41 119 41 c 2
 279 41 l 1
 279 376 l 1
 161 376 l 2
 143 376 134 383 134 397 c 0
 134 410 143 417 161 417 c 2
 320 417 l 1
 320 41 l 1
 480 41 l 2
 499 41 508 34 508 21 c 0
 508 -9 406 -22 406 -89 c 0
 406 -112 420 -123 449 -123 c 0xf6
318 624 m 1xfa
 318 520 l 1
 259 520 l 1
 259 624 l 1
 318 624 l 1xfa
EndSplineSet
EndChar

StartChar: Idotaccent
Encoding: 304 304 239
Width: 600
Flags: W
HStem: 0 41<113.007 279 320 486.993> 522 41<113.007 279 320 486.993> 636 100<259.396 340.604>
VStem: 250 100<645.396 726.544> 279 41<41 522>
LayerCount: 2
Back
SplineSet
320 522 m 1xe8
 320 41 l 1
 459 41 l 2
 478 41 487 34 487 21 c 0
 487 7 477 0 459 0 c 2
 140 0 l 2
 122 0 113 7 113 21 c 0
 113 34 122 41 140 41 c 2
 279 41 l 1
 279 522 l 1
 140 522 l 2
 122 522 113 529 113 543 c 0
 113 556 122 563 140 563 c 2
 459 563 l 2
 478 563 487 556 487 543 c 0
 487 529 478 522 459 522 c 2
 320 522 l 1xe8
300 761 m 0
 328 761 350 738 350 710 c 0
 350 684 327 661 300 661 c 0
 273 661 250 684 250 711 c 0xf0
 250 738 273 761 300 761 c 0
EndSplineSet
Fore
Refer: 593 729 N 1 0 0 1 0 125 0
Refer: 41 73 N 1 0 0 1 0 0 1
EndChar

StartChar: dotlessi
Encoding: 305 305 240
Width: 600
Flags: W
HStem: 0 41<92.0066 279 320 507.993> 376 41<134.007 279>
VStem: 279 41<41 376>
LayerCount: 2
Fore
SplineSet
320 417 m 1
 320 41 l 1
 480 41 l 2
 499 41 508 34 508 21 c 0
 508 7 498 0 480 0 c 2
 119 0 l 2
 101 0 92 7 92 21 c 0
 92 34 101 41 119 41 c 2
 279 41 l 1
 279 376 l 1
 161 376 l 2
 143 376 134 383 134 397 c 0
 134 410 143 417 161 417 c 2
 320 417 l 1
EndSplineSet
EndChar

StartChar: IJ
Encoding: 306 306 241
Width: 600
Flags: W
HStem: -16 41<284.911 417.197> 0 41<29.0066 100 141 212.993> 522 41<29.0066 100 141 212.993 331.007 453 494 570.993>
VStem: 100 41<41 522> 210 41<93 249.993> 453 41<64.2246 165 165 522>
LayerCount: 2
Fore
SplineSet
494 522 m 1xbc
 494 165 l 2
 494 66 454 -16 351 -16 c 0
 287 -16 251 12 210 74 c 1
 210 223 l 2
 210 241 217 250 231 250 c 0
 244 250 251 241 251 223 c 2
 251 93 l 1
 283 38 302 25 352 25 c 0
 433 25 453 87 453 165 c 2
 453 522 l 1
 358 522 l 2
 340 522 331 529 331 543 c 0
 331 556 340 563 358 563 c 2
 544 563 l 2
 562 563 571 556 571 543 c 0
 571 529 562 522 544 522 c 2
 494 522 l 1xbc
141 522 m 1
 141 41 l 1
 185 41 l 2
 204 41 213 34 213 21 c 0
 213 7 203 0 185 0 c 2
 56 0 l 2
 38 0 29 7 29 21 c 0
 29 34 38 41 56 41 c 2
 100 41 l 1x7c
 100 522 l 1
 56 522 l 2
 38 522 29 529 29 543 c 0
 29 556 38 563 56 563 c 2
 185 563 l 2
 204 563 213 556 213 543 c 0
 213 529 204 522 185 522 c 2
 141 522 l 1
EndSplineSet
EndChar

StartChar: ij
Encoding: 307 307 242
Width: 600
Flags: W
HStem: -186 41<165.007 387.107> 0 41<124.007 217 258 349.993> 376 41<134.007 217 327.007 435> 520 104<210 269 424 483>
VStem: 210 59<520 624> 217 41<41 376> 424 59<520 624> 435 41<-97.2019 376>
LayerCount: 2
Fore
SplineSet
435 376 m 1xf1
 354 376 l 2
 336 376 327 383 327 397 c 0
 327 410 336 417 354 417 c 2
 476 417 l 1
 476 -28 l 2
 476 -121 412 -186 321 -186 c 2
 192 -186 l 2
 174 -186 165 -179 165 -165 c 0
 165 -152 174 -145 192 -145 c 2
 320 -145 l 2
 386 -145 435 -96 435 -28 c 2
 435 376 l 1xf1
483 624 m 1xf2
 483 520 l 1
 424 520 l 1
 424 624 l 1
 483 624 l 1xf2
258 417 m 1xf4
 258 41 l 1
 322 41 l 2
 341 41 350 34 350 21 c 0
 350 7 340 0 322 0 c 2
 151 0 l 2
 133 0 124 7 124 21 c 0
 124 34 133 41 151 41 c 2
 217 41 l 1
 217 376 l 1
 161 376 l 2
 143 376 134 383 134 397 c 0
 134 410 143 417 161 417 c 2
 258 417 l 1xf4
269 624 m 1xf8
 269 520 l 1
 210 520 l 1
 210 624 l 1
 269 624 l 1xf8
EndSplineSet
EndChar

StartChar: jcircumflex
Encoding: 309 309 244
Width: 600
HStem: -186 41<147.007 369.107> 376 41<149.007 417> 517 149
VStem: 172 290 417 41<-97.2019 376>
LayerCount: 2
Back
SplineSet
417 376 m 1
 176 376 l 2
 158 376 149 383 149 397 c 0
 149 410 158 417 176 417 c 2
 458 417 l 1
 458 -28 l 2
 458 -121 394 -186 303 -186 c 2
 174 -186 l 2
 156 -186 147 -179 147 -165 c 0
 147 -152 156 -145 174 -145 c 2
 302 -145 l 2
 368 -145 417 -96 417 -28 c 2
 417 376 l 1
302 725 m 1
 434 617 l 2
 446 608 448 604 448 596 c 0
 448 585 438 576 428 576 c 0
 422 576 416 579 410 584 c 2
 302 672 l 1
 196 584 l 2
 188 579 182 576 178 576 c 0
 166 576 158 585 158 596 c 0
 158 604 161 608 170 616 c 0
 302 725 l 1
EndSplineSet
Fore
Refer: 578 710 N 1 0 0 1 17 27 0
Refer: 2571 63166 N 1 0 0 1 0 0 1
EndChar

StartChar: Kcommaaccent
Encoding: 310 310 245
Width: 600
Flags: W
HStem: -234 174 0 41<43.0066 124 165 266.993 489 571.993> 522 41<43.0066 124 165 266.993 372.007 445 502 545.993>
VStem: 124 41<41 221 273 522> 289 80<-94.5426 -60>
LayerCount: 2
Back
SplineSet
165 221 m 1
 165 41 l 1
 240 41 l 2
 258 41 267 34 267 21 c 0
 267 7 258 0 240 0 c 2
 70 0 l 2
 52 0 43 7 43 21 c 0
 43 34 52 41 70 41 c 2
 124 41 l 1
 124 522 l 1
 70 522 l 2
 52 522 43 529 43 543 c 0
 43 556 52 563 70 563 c 2
 240 563 l 2
 258 563 267 556 267 543 c 0
 267 529 258 522 240 522 c 2
 165 522 l 1
 165 273 l 1
 445 522 l 1
 400 522 l 2
 381 522 372 529 372 543 c 0
 372 556 381 563 400 563 c 2
 518 563 l 2
 537 563 546 556 546 543 c 0
 546 529 537 522 518 522 c 2
 502 522 l 1
 280 324 l 1
 377 284 414 233 489 41 c 1
 545 41 l 2
 563 41 572 34 572 21 c 0
 572 7 563 0 545 0 c 2
 458 0 l 1
 385 203 341 263 246 294 c 1
 165 221 l 1
358 -97 m 0
 274 -223 l 2
 266 -234 262 -237 253 -237 c 0
 242 -237 233 -228 233 -216 c 0
 233 -212 235 -207 240 -200 c 2
 324 -74 l 2
 331 -64 337 -60 345 -60 c 0
 357 -60 366 -69 366 -81 c 0
 366 -85 361 -93 358 -97 c 0
EndSplineSet
Fore
Refer: 574 700 N 1 0 0 1 -5 -724 0
Refer: 43 75 N 1 0 0 1 0 0 1
EndChar

StartChar: kcommaaccent
Encoding: 311 311 246
Width: 600
Flags: W
HStem: -234 174 0 41<63.0066 144 356.007 411 469 540.993> 376 41<309.007 358 419 492.993> 563 41<63.0066 144>
VStem: 63 122<0.251221 40.7501 563.251 603.75> 144 41<41 180 229 563> 284 80<-94.5426 -60>
LayerCount: 2
Back
SplineSet
185 180 m 1
 185 0 l 1
 90 0 l 2
 72 0 63 7 63 21 c 0
 63 34 72 41 90 41 c 2
 144 41 l 1
 144 563 l 1
 90 563 l 2
 72 563 63 570 63 584 c 0
 63 597 72 604 90 604 c 2
 185 604 l 1
 185 229 l 1
 358 376 l 1
 336 376 l 2
 318 376 309 383 309 397 c 0
 309 410 318 417 336 417 c 2
 466 417 l 2
 484 417 493 410 493 397 c 0
 493 383 484 376 466 376 c 2
 419 376 l 1
 262 245 l 1
 469 41 l 1
 514 41 l 2
 532 41 541 34 541 21 c 0
 541 7 532 0 514 0 c 2
 383 0 l 2
 365 0 356 7 356 21 c 0
 356 34 365 41 383 41 c 2
 411 41 l 1
 231 219 l 1
 185 180 l 1
318 -97 m 0
 234 -223 l 2
 226 -234 222 -237 213 -237 c 0
 202 -237 193 -228 193 -216 c 0
 193 -212 195 -207 200 -200 c 2
 284 -74 l 2
 291 -64 297 -60 305 -60 c 0
 317 -60 326 -69 326 -81 c 0
 326 -85 321 -93 318 -97 c 0
EndSplineSet
Fore
Refer: 574 700 N 1 0 0 1 -10 -724 0
Refer: 75 107 N 1 0 0 1 0 0 1
EndChar

StartChar: Lacute
Encoding: 313 313 248
Width: 600
Flags: W
HStem: 0 41<63.0066 186 227 500> 522 41<63.0066 186 227 349.993> 636 149
VStem: 186 41<41 522> 186 165 500 41<41 227.993>
LayerCount: 2
Back
SplineSet
227 522 m 1
 227 41 l 1
 500 41 l 1
 500 201 l 2
 500 219 507 228 521 228 c 0
 534 228 541 219 541 201 c 2
 541 0 l 1
 90 0 l 2
 72 0 63 7 63 21 c 0
 63 34 72 41 90 41 c 2
 186 41 l 1
 186 522 l 1
 90 522 l 2
 72 522 63 529 63 543 c 0
 63 556 72 563 90 563 c 2
 323 563 l 2
 341 563 350 556 350 543 c 0
 350 529 341 522 323 522 c 2
 227 522 l 1
353 749 m 2
 239 649 l 2
 230 642 226 640 220 640 c 0
 209 640 200 649 200 661 c 0
 200 668 202 671 212 680 c 2
 326 780 l 2
 335 787 339 789 345 789 c 0
 356 789 365 780 365 768 c 0
 365 761 362 757 353 749 c 2
EndSplineSet
Fore
Refer: 582 714 N 1 0 0 1 -94 146 0
Refer: 44 76 N 1 0 0 1 0 0 1
EndChar

StartChar: lacute
Encoding: 314 314 249
Width: 600
Flags: W
HStem: 0 41<92.0066 279 320 507.993> 563 41<135.007 279> 664 149
VStem: 279 41<41 563> 279 165
LayerCount: 2
Back
SplineSet
320 604 m 1
 320 41 l 1
 480 41 l 2
 499 41 508 34 508 21 c 0
 508 7 498 0 480 0 c 2
 119 0 l 2
 101 0 92 7 92 21 c 0
 92 34 101 41 119 41 c 2
 279 41 l 1
 279 563 l 1
 162 563 l 2
 144 563 135 570 135 584 c 0
 135 597 144 604 162 604 c 2
 320 604 l 1
433 749 m 2
 319 649 l 2
 310 642 306 640 300 640 c 0
 289 640 280 649 280 661 c 0
 280 668 282 671 292 680 c 2
 406 780 l 2
 415 787 419 789 425 789 c 0
 436 789 445 780 445 768 c 0
 445 761 442 757 433 749 c 2
EndSplineSet
Fore
Refer: 582 714 N 1 0 0 1 -1 174 0
Refer: 76 108 N 1 0 0 1 0 0 1
EndChar

StartChar: Lcommaaccent
Encoding: 315 315 250
Width: 600
Flags: W
HStem: -234 174 0 41<63.0066 186 227 500> 522 41<63.0066 186 227 349.993>
VStem: 186 41<41 522> 297 80<-94.5426 -60> 500 41<41 227.993>
LayerCount: 2
Back
SplineSet
227 522 m 1
 227 41 l 1
 500 41 l 1
 500 201 l 2
 500 219 507 228 521 228 c 0
 534 228 541 219 541 201 c 2
 541 0 l 1
 90 0 l 2
 72 0 63 7 63 21 c 0
 63 34 72 41 90 41 c 2
 186 41 l 1
 186 522 l 1
 90 522 l 2
 72 522 63 529 63 543 c 0
 63 556 72 563 90 563 c 2
 323 563 l 2
 341 563 350 556 350 543 c 0
 350 529 341 522 323 522 c 2
 227 522 l 1
328 -97 m 0
 244 -223 l 2
 236 -234 232 -237 223 -237 c 0
 212 -237 203 -228 203 -216 c 0
 203 -212 205 -207 210 -200 c 2
 294 -74 l 2
 301 -64 307 -60 315 -60 c 0
 327 -60 336 -69 336 -81 c 0
 336 -85 331 -93 328 -97 c 0
EndSplineSet
Fore
Refer: 574 700 N 1 0 0 1 3 -724 0
Refer: 44 76 N 1 0 0 1 0 0 1
EndChar

StartChar: lcommaaccent
Encoding: 316 316 251
Width: 600
Flags: W
HStem: -234 174 0 41<92.0066 279 320 507.993> 563 41<135.007 279>
VStem: 279 41<41 563> 281 80<-94.5426 -60>
LayerCount: 2
Back
SplineSet
320 604 m 1
 320 41 l 1
 480 41 l 2
 499 41 508 34 508 21 c 0
 508 7 498 0 480 0 c 2
 119 0 l 2
 101 0 92 7 92 21 c 0
 92 34 101 41 119 41 c 2
 279 41 l 1
 279 563 l 1
 162 563 l 2
 144 563 135 570 135 584 c 0
 135 597 144 604 162 604 c 2
 320 604 l 1
318 -97 m 0
 234 -223 l 2
 226 -234 222 -237 213 -237 c 0
 202 -237 193 -228 193 -216 c 0
 193 -212 195 -207 200 -200 c 2
 284 -74 l 2
 291 -64 297 -60 305 -60 c 0
 317 -60 326 -69 326 -81 c 0
 326 -85 321 -93 318 -97 c 0
EndSplineSet
Fore
Refer: 574 700 N 1 0 0 1 -13 -724 0
Refer: 76 108 N 1 0 0 1 0 0 1
EndChar

StartChar: Lcaron
Encoding: 317 317 252
Width: 600
Flags: W
HStem: 0 41<63.0066 186 227 500> 402 174 522 41<63.0066 186 227 349.993>
VStem: 186 41<41 522> 464 80<541.457 576> 500 41<41 227.993>
LayerCount: 2
Back
SplineSet
227 522 m 1
 227 41 l 1
 500 41 l 1
 500 201 l 2
 500 219 507 228 521 228 c 0
 534 228 541 219 541 201 c 2
 541 0 l 1
 90 0 l 2
 72 0 63 7 63 21 c 0
 63 34 72 41 90 41 c 2
 186 41 l 1
 186 522 l 1
 90 522 l 2
 72 522 63 529 63 543 c 0
 63 556 72 563 90 563 c 2
 323 563 l 2
 341 563 350 556 350 543 c 0
 350 529 341 522 323 522 c 2
 227 522 l 1
501 529 m 0
 417 403 l 2
 409 392 405 389 396 389 c 0
 385 389 376 398 376 410 c 0
 376 414 378 419 383 426 c 2
 467 552 l 2
 474 562 480 566 488 566 c 0
 500 566 509 557 509 545 c 0
 509 541 504 533 501 529 c 0
EndSplineSet
Fore
Refer: 574 700 S 1 0 0 1 170 -88 0
Refer: 44 76 N 1 0 0 1 0 0 0
EndChar

StartChar: lcaron
Encoding: 318 318 253
Width: 600
Flags: W
HStem: 0 41<92.0066 279 320 507.993> 430 174 563 41<135.007 279>
VStem: 279 41<41 563> 432 80<569.457 604>
LayerCount: 2
Back
SplineSet
320 604 m 1
 320 41 l 1
 480 41 l 2
 499 41 508 34 508 21 c 0
 508 7 498 0 480 0 c 2
 119 0 l 2
 101 0 92 7 92 21 c 0
 92 34 101 41 119 41 c 2
 279 41 l 1
 279 563 l 1
 162 563 l 2
 144 563 135 570 135 584 c 0
 135 597 144 604 162 604 c 2
 320 604 l 1
500 579 m 0
 416 453 l 2
 408 442 404 439 395 439 c 0
 384 439 375 448 375 460 c 0
 375 464 377 469 382 476 c 2
 466 602 l 2
 473 612 479 616 487 616 c 0
 499 616 508 607 508 595 c 0
 508 591 503 583 500 579 c 0
EndSplineSet
Fore
Refer: 574 700 N 1 0 0 1 138 -60 0
Refer: 76 108 N 1 0 0 1 0 0 0
EndChar

StartChar: Lslash
Encoding: 321 321 256
Width: 600
Flags: W
HStem: 0 41<62.0066 185 226 500> 522 41<62.0066 185 226 348.993>
VStem: 185 41<41 246 310 522> 500 41<41 228.993>
LayerCount: 2
Fore
SplineSet
226 522 m 1
 226 310 l 1
 360 390 l 2
 365 392 373 395 377 395 c 0
 388 395 397 385 397 375 c 0
 397 366 393 362 380 355 c 2
 226 263 l 1
 226 41 l 1
 500 41 l 1
 500 202 l 2
 500 220 507 229 521 229 c 0
 534 229 541 220 541 202 c 2
 541 0 l 1
 89 0 l 2
 71 0 62 7 62 21 c 0
 62 34 71 41 89 41 c 2
 185 41 l 1
 185 246 l 1
 79 184 l 2
 73 180 66 178 62 178 c 0
 53 178 43 188 43 199 c 0
 43 207 47 212 59 219 c 2
 185 293 l 1
 185 522 l 1
 89 522 l 2
 71 522 62 529 62 543 c 0
 62 556 71 563 89 563 c 2
 322 563 l 2
 340 563 349 556 349 543 c 0
 349 529 340 522 322 522 c 2
 226 522 l 1
EndSplineSet
EndChar

StartChar: lslash
Encoding: 322 322 257
Width: 600
Flags: W
HStem: 0 41<92.0066 278 319 507.993> 563 41<134.007 278>
VStem: 278 41<41 280 343 563>
LayerCount: 2
Fore
SplineSet
319 604 m 1
 319 343 l 1
 407 394 l 2
 414 398 419 400 424 400 c 0
 434 400 443 391 443 380 c 0
 443 370 439 366 427 359 c 2
 319 297 l 1
 319 41 l 1
 481 41 l 2
 499 41 508 34 508 21 c 0
 508 7 499 0 481 0 c 2
 119 0 l 2
 101 0 92 7 92 21 c 0
 92 34 101 41 119 41 c 2
 278 41 l 1
 278 280 l 1
 191 230 l 2
 182 225 180 224 174 224 c 0
 164 224 155 234 155 245 c 0
 155 254 159 259 171 266 c 2
 278 327 l 1
 278 563 l 1
 161 563 l 2
 143 563 134 570 134 584 c 0
 134 597 143 604 161 604 c 2
 319 604 l 1
EndSplineSet
EndChar

StartChar: Nacute
Encoding: 323 323 258
Width: 600
Flags: W
HStem: 0 41<42.0066 103 144 245.993> 522 41<22.0066 103 358.007 460 501 561.993> 636 149
VStem: 103 41<41 504> 272 165 460 41<59 522>
LayerCount: 2
Back
SplineSet
501 0 m 1
 449 0 l 1
 144 504 l 1
 144 41 l 1
 219 41 l 2
 237 41 246 34 246 21 c 0
 246 7 236 0 219 0 c 2
 69 0 l 2
 51 0 42 7 42 21 c 0
 42 34 51 41 69 41 c 2
 103 41 l 1
 103 522 l 1
 49 522 l 2
 31 522 22 529 22 543 c 0
 22 556 31 563 49 563 c 2
 155 563 l 1
 460 59 l 1
 460 522 l 1
 386 522 l 2
 367 522 358 529 358 543 c 0
 358 556 367 563 386 563 c 2
 535 563 l 2
 553 563 562 556 562 543 c 0
 562 529 553 522 535 522 c 2
 501 522 l 1
 501 0 l 1
433 749 m 2
 319 649 l 2
 310 642 306 640 300 640 c 0
 289 640 280 649 280 661 c 0
 280 668 282 671 292 680 c 2
 406 780 l 2
 415 787 419 789 425 789 c 0
 436 789 445 780 445 768 c 0
 445 761 442 757 433 749 c 2
EndSplineSet
Fore
Refer: 582 714 N 1 0 0 1 -8 146 0
Refer: 46 78 N 1 0 0 1 0 0 1
EndChar

StartChar: nacute
Encoding: 324 324 259
Width: 600
Flags: W
HStem: 0 41<53.0066 126 167 238.993 378.007 439 480 540.993> 376 41<65.0066 126> 390 41<240.775 396.13> 491 149
VStem: 65 102<376.251 416.75> 126 41<41 294 348 376> 277 165 439 41<41 348.734>
LayerCount: 2
Back
SplineSet
319 390 m 0xb8
 230 390 189 322 167 294 c 1
 167 41 l 1
 212 41 l 2
 230 41 239 34 239 21 c 0
 239 7 230 0 212 0 c 2
 81 0 l 2
 62 0 53 7 53 21 c 0
 53 34 62 41 81 41 c 2
 126 41 l 1
 126 376 l 1
 92 376 l 2
 74 376 65 383 65 397 c 0
 65 410 74 417 92 417 c 2
 167 417 l 1xd8
 167 348 l 1
 225 412 261 431 323 431 c 0
 412 431 480 372 480 295 c 2
 480 41 l 1
 514 41 l 2
 532 41 541 34 541 21 c 0
 541 7 532 0 514 0 c 2
 405 0 l 2
 387 0 378 7 378 21 c 0
 378 34 387 41 405 41 c 2
 439 41 l 1
 439 288 l 2
 439 344 394 390 319 390 c 0xb8
433 599 m 2
 319 499 l 2
 310 492 306 490 300 490 c 0
 289 490 280 499 280 511 c 0
 280 518 282 521 292 530 c 2
 406 630 l 2
 415 637 419 639 425 639 c 0
 436 639 445 630 445 618 c 0
 445 611 442 607 433 599 c 2
EndSplineSet
Fore
Refer: 582 714 N 1 0 0 1 -3 1 0
Refer: 78 110 N 1 0 0 1 0 0 1
EndChar

StartChar: Ncommaaccent
Encoding: 325 325 260
Width: 600
Flags: W
HStem: -234 174 0 41<42.0066 103 144 245.993> 522 41<22.0066 103 358.007 460 501 561.993>
VStem: 103 41<41 504> 266 80<-94.5426 -60> 460 41<59 522>
LayerCount: 2
Back
SplineSet
501 0 m 1
 449 0 l 1
 144 504 l 1
 144 41 l 1
 219 41 l 2
 237 41 246 34 246 21 c 0
 246 7 236 0 219 0 c 2
 69 0 l 2
 51 0 42 7 42 21 c 0
 42 34 51 41 69 41 c 2
 103 41 l 1
 103 522 l 1
 49 522 l 2
 31 522 22 529 22 543 c 0
 22 556 31 563 49 563 c 2
 155 563 l 1
 460 59 l 1
 460 522 l 1
 386 522 l 2
 367 522 358 529 358 543 c 0
 358 556 367 563 386 563 c 2
 535 563 l 2
 553 563 562 556 562 543 c 0
 562 529 553 522 535 522 c 2
 501 522 l 1
 501 0 l 1
338 -97 m 0
 254 -223 l 2
 246 -234 242 -237 233 -237 c 0
 222 -237 213 -228 213 -216 c 0
 213 -212 215 -207 220 -200 c 2
 304 -74 l 2
 311 -64 317 -60 325 -60 c 0
 337 -60 346 -69 346 -81 c 0
 346 -85 341 -93 338 -97 c 0
EndSplineSet
Fore
Refer: 574 700 N 1 0 0 1 -28 -724 0
Refer: 46 78 N 1 0 0 1 0 0 1
EndChar

StartChar: ncommaaccent
Encoding: 326 326 261
Width: 600
Flags: W
HStem: -234 174 0 41<53.0066 126 167 238.993 378.007 439 480 540.993> 376 41<65.0066 126> 390 41<240.775 396.13>
VStem: 65 102<376.251 416.75> 126 41<41 294 348 376> 279 80<-94.5426 -60> 439 41<41 348.734>
LayerCount: 2
Back
SplineSet
319 390 m 0xb8
 230 390 189 322 167 294 c 1
 167 41 l 1
 212 41 l 2
 230 41 239 34 239 21 c 0
 239 7 230 0 212 0 c 2
 81 0 l 2
 62 0 53 7 53 21 c 0
 53 34 62 41 81 41 c 2
 126 41 l 1
 126 376 l 1
 92 376 l 2
 74 376 65 383 65 397 c 0
 65 410 74 417 92 417 c 2
 167 417 l 1xd8
 167 348 l 1
 225 412 261 431 323 431 c 0
 412 431 480 372 480 295 c 2
 480 41 l 1
 514 41 l 2
 532 41 541 34 541 21 c 0
 541 7 532 0 514 0 c 2
 405 0 l 2
 387 0 378 7 378 21 c 0
 378 34 387 41 405 41 c 2
 439 41 l 1
 439 288 l 2
 439 344 394 390 319 390 c 0xb8
318 -97 m 0
 234 -223 l 2
 226 -234 222 -237 213 -237 c 0
 202 -237 193 -228 193 -216 c 0
 193 -212 195 -207 200 -200 c 2
 284 -74 l 2
 291 -64 297 -60 305 -60 c 0
 317 -60 326 -69 326 -81 c 0
 326 -85 321 -93 318 -97 c 0
EndSplineSet
Fore
Refer: 574 700 N 1 0 0 1 -15 -724 0
Refer: 78 110 N 1 0 0 1 0 0 1
EndChar

StartChar: Ncaron
Encoding: 327 327 262
Width: 600
Flags: W
HStem: 0 41<42.0066 103 144 245.993> 522 41<22.0066 103 358.007 460 501 561.993> 636 149
VStem: 103 41<41 504> 147 290 460 41<59 522>
LayerCount: 2
Back
SplineSet
501 0 m 1
 449 0 l 1
 144 504 l 1
 144 41 l 1
 219 41 l 2
 237 41 246 34 246 21 c 0
 246 7 236 0 219 0 c 2
 69 0 l 2
 51 0 42 7 42 21 c 0
 42 34 51 41 69 41 c 2
 103 41 l 1
 103 522 l 1
 49 522 l 2
 31 522 22 529 22 543 c 0
 22 556 31 563 49 563 c 2
 155 563 l 1
 460 59 l 1
 460 522 l 1
 386 522 l 2
 367 522 358 529 358 543 c 0
 358 556 367 563 386 563 c 2
 535 563 l 2
 553 563 562 556 562 543 c 0
 562 529 553 522 535 522 c 2
 501 522 l 1
 501 0 l 1
300 640 m 1
 168 749 l 1
 158 756 155 760 155 769 c 0
 155 780 164 789 175 789 c 0
 180 789 186 786 193 781 c 2
 300 693 l 1
 407 781 l 2
 414 786 420 789 425 789 c 0
 435 789 445 779 445 769 c 0
 445 761 443 757 432 748 c 2
 300 640 l 1
EndSplineSet
Fore
Refer: 579 711 N 1 0 0 1 -8 146 0
Refer: 46 78 N 1 0 0 1 0 0 1
EndChar

StartChar: ncaron
Encoding: 328 328 263
Width: 600
Flags: W
HStem: 0 41<53.0066 126 167 238.993 378.007 439 480 540.993> 376 41<65.0066 126> 390 41<240.775 396.13> 491 149
VStem: 65 102<376.251 416.75> 126 41<41 294 348 376> 152 290 439 41<41 348.734>
LayerCount: 2
Back
SplineSet
319 390 m 0xb8
 230 390 189 322 167 294 c 1
 167 41 l 1
 212 41 l 2
 230 41 239 34 239 21 c 0
 239 7 230 0 212 0 c 2
 81 0 l 2
 62 0 53 7 53 21 c 0
 53 34 62 41 81 41 c 2
 126 41 l 1
 126 376 l 1
 92 376 l 2
 74 376 65 383 65 397 c 0
 65 410 74 417 92 417 c 2
 167 417 l 1xd8
 167 348 l 1
 225 412 261 431 323 431 c 0
 412 431 480 372 480 295 c 2
 480 41 l 1
 514 41 l 2
 532 41 541 34 541 21 c 0
 541 7 532 0 514 0 c 2
 405 0 l 2
 387 0 378 7 378 21 c 0
 378 34 387 41 405 41 c 2
 439 41 l 1
 439 288 l 2
 439 344 394 390 319 390 c 0xb8
300 490 m 1
 168 599 l 1
 158 606 155 610 155 619 c 0
 155 630 164 639 175 639 c 0
 180 639 186 636 193 631 c 2
 300 543 l 1
 407 631 l 2
 414 636 420 639 425 639 c 0
 435 639 445 629 445 619 c 0
 445 611 443 607 432 598 c 2
 300 490 l 1
EndSplineSet
Fore
Refer: 579 711 N 1 0 0 1 -3 1 0
Refer: 78 110 N 1 0 0 1 0 0 1
EndChar

StartChar: Eng
Encoding: 330 330 265
Width: 600
Flags: W
HStem: -199 41<279.023 418.601> 0 41<42.0066 103 144 245.993> 522 41<22.0066 103 358.007 460 501 561.993>
VStem: 103 41<41 504> 460 41<-113.728 0 59 522>
LayerCount: 2
Fore
SplineSet
285 -145 m 0
 298 -145 318 -158 355 -158 c 0
 416 -158 460 -110 460 -42 c 2
 460 0 l 1
 449 0 l 1
 144 504 l 1
 144 41 l 1
 219 41 l 2
 237 41 246 34 246 21 c 0
 246 7 236 0 219 0 c 2
 69 0 l 2
 51 0 42 7 42 21 c 0
 42 34 51 41 69 41 c 2
 103 41 l 1
 103 522 l 1
 49 522 l 2
 31 522 22 529 22 543 c 0
 22 556 31 563 49 563 c 2
 155 563 l 1
 460 59 l 1
 460 522 l 1
 386 522 l 2
 367 522 358 529 358 543 c 0
 358 556 367 563 386 563 c 2
 535 563 l 2
 553 563 562 556 562 543 c 0
 562 529 553 522 535 522 c 2
 501 522 l 1
 501 -48 l 1
 501 -132 436 -199 354 -199 c 0
 335 -199 267 -192 267 -165 c 0
 267 -154 275 -145 285 -145 c 0
EndSplineSet
EndChar

StartChar: eng
Encoding: 331 331 266
Width: 600
Flags: W
HStem: -199 41<258.023 397.601> 0 41<53.0066 126 167 238.993> 376 41<65.0066 126> 390 41<240.775 396.13>
VStem: 65 102<376.251 416.75> 126 41<41 294 348 376> 439 41<-113.728 348.734>
LayerCount: 2
Fore
SplineSet
264 -145 m 0xd6
 277 -145 297 -158 334 -158 c 0
 395 -158 439 -110 439 -42 c 0
 439 288 l 2
 439 344 394 390 319 390 c 0xd6
 230 390 189 322 167 294 c 1
 167 41 l 1
 212 41 l 2
 230 41 239 34 239 21 c 0
 239 7 230 0 212 0 c 2
 81 0 l 2
 62 0 53 7 53 21 c 0
 53 34 62 41 81 41 c 2
 126 41 l 1
 126 376 l 1xe6
 92 376 l 2
 74 376 65 383 65 397 c 0xea
 65 410 74 417 92 417 c 2
 167 417 l 1xe6
 167 348 l 1
 225 412 261 431 323 431 c 0
 412 431 480 372 480 295 c 0
 480 -48 l 1
 480 -132 415 -199 333 -199 c 0
 314 -199 246 -192 246 -165 c 0
 246 -154 254 -145 264 -145 c 0xd6
EndSplineSet
EndChar

StartChar: Omacron
Encoding: 332 332 267
Width: 600
Flags: W
HStem: -16 41<219.486 379.916> 535 41<219.275 381.323> 636 40<155.007 444.993>
VStem: 51 41<170.323 389.677> 155 290<636.25 675.75> 508 41<168.868 388.646>
CounterMasks: 1 1c
LayerCount: 2
Back
SplineSet
300 576 m 0
 441 576 549 446 549 276 c 0
 549 115 437 -16 300 -16 c 0
 161 -16 51 115 51 280 c 0
 51 445 161 576 300 576 c 0
300 535 m 0
 185 535 92 420 92 280 c 0
 92 140 186 25 300 25 c 0
 413 25 508 140 508 277 c 0
 508 421 416 535 300 535 c 0
418 686 m 2
 182 686 l 2
 164 686 155 693 155 706 c 0
 155 719 164 726 182 726 c 2
 418 726 l 2
 436 726 445 719 445 706 c 0
 445 693 436 686 418 686 c 2
EndSplineSet
Fore
Refer: 581 713 N 1 0 0 1 0 100 0
Refer: 47 79 N 1 0 0 1 0 0 1
EndChar

StartChar: omacron
Encoding: 333 333 268
Width: 600
Flags: W
HStem: -16 41<210.671 388.897> 390 41<210.671 389.762> 491 40<155.007 444.993>
VStem: 72 41<124.806 290.386> 155 290<491.25 530.75> 487 41<123.612 292.179>
CounterMasks: 1 1c
LayerCount: 2
Back
SplineSet
300 431 m 0
 428 431 528 332 528 205 c 0
 528 83 426 -16 300 -16 c 0
 173 -16 72 83 72 208 c 0
 72 331 173 431 300 431 c 0
300 390 m 0
 196 390 113 309 113 208 c 0
 113 106 196 25 300 25 c 0
 403 25 487 106 487 205 c 0
 487 310 405 390 300 390 c 0
418 536 m 2
 182 536 l 2
 164 536 155 543 155 556 c 0
 155 569 164 576 182 576 c 2
 418 576 l 2
 436 576 445 569 445 556 c 0
 445 543 436 536 418 536 c 2
EndSplineSet
Fore
Refer: 581 713 N 1 0 0 1 0 -45 0
Refer: 79 111 N 1 0 0 1 0 0 1
EndChar

